<?xml version="1.0" encoding="UTF-8" standalone="no"?>
<!-- Generator: Adobe Illustrator 15.0.0, SVG Export Plug-In . SVG Version: 6.00 Build 0)  -->
<svg
   xmlns:dc="http://purl.org/dc/elements/1.1/"
   xmlns:cc="http://web.resource.org/cc/"
   xmlns:rdf="http://www.w3.org/1999/02/22-rdf-syntax-ns#"
   xmlns:svg="http://www.w3.org/2000/svg"
   xmlns="http://www.w3.org/2000/svg"
   xmlns:sodipodi="http://inkscape.sourceforge.net/DTD/sodipodi-0.dtd"
   xmlns:inkscape="http://www.inkscape.org/namespaces/inkscape"
   version="1.0"
   id="Layer_1"
   x="0px"
   y="0px"
   width="56"
   height="46"
   viewBox="0 0 123.84 108.367"
   enable-background="new 0 0 123.84 108.367"
   xml:space="preserve"
   sodipodi:version="0.32"
   inkscape:version="0.43"
   sodipodi:docname="openvdb_icon.svg"
   sodipodi:docbase="/usr/home/malden"
   inkscape:export-filename="/usr/home/malden/openvdb_icon.png"
   inkscape:export-xdpi="90"
   inkscape:export-ydpi="90"><metadata
   id="metadata1412"><rdf:RDF><cc:Work
       rdf:about=""><dc:format>image/svg+xml</dc:format><dc:type
         rdf:resource="http://purl.org/dc/dcmitype/StillImage" /></cc:Work></rdf:RDF></metadata><defs
   id="defs1410"><radialGradient
     id="SVGID_3_"
     cx="45.291"
     cy="84.226601"
     r="85.773697"
     gradientUnits="userSpaceOnUse">
            <stop
   offset="0"
   style="stop-color:#32363F"
   id="stop1403" />
            <stop
   offset="1"
   style="stop-color:#16080F"
   id="stop1405" />
        </radialGradient><radialGradient
     id="SVGID_2_"
     cx="45.284199"
     cy="84.226601"
     r="85.792297"
     gradientUnits="userSpaceOnUse">
            <stop
   offset="0"
   style="stop-color:#32363F"
   id="stop1396" />
            <stop
   offset="1"
   style="stop-color:#16080F"
   id="stop1398" />
        </radialGradient><radialGradient
     id="SVGID_1_"
     cx="45.291"
     cy="84.2314"
     r="85.7659"
     gradientUnits="userSpaceOnUse">
            <stop
   offset="0"
   style="stop-color:#32363F"
   id="stop1389" />
            <stop
   offset="1"
   style="stop-color:#16080F"
   id="stop1391" />
        </radialGradient></defs><sodipodi:namedview
   inkscape:window-height="887"
   inkscape:window-width="1014"
   inkscape:pageshadow="2"
   inkscape:pageopacity="0.0"
   borderopacity="1.0"
   bordercolor="#666666"
   pagecolor="#ffffff"
   id="base"
   inkscape:zoom="2"
   inkscape:cx="61.919998"
   inkscape:cy="-88.93136"
   inkscape:window-x="460"
   inkscape:window-y="244"
   inkscape:current-layer="g1382"
   inkscape:grid-points="false"
   inkscape:grid-bbox="false"
   showgrid="true"
   borderlayer="top"
   inkscape:showpageshadow="false" />
<g
   id="g1382">


<path
   d="M 125.59762,29.044545 C 123.88773,14.90797 112.55213,3.6598519 98.263748,1.8846099 C 93.686488,1.2152049 88.386058,1.4313119 82.422558,3.2371249 C 82.422558,3.2371249 72.480568,6.3184979 64.474068,15.304342 C 64.474068,15.304342 61.050078,19.324991 58.345048,23.025168 C 58.185868,23.258142 58.019308,23.47952 57.859078,23.703007 C 57.843258,23.703007 54.507828,28.121082 54.046098,28.740941 C 51.197698,32.632978 47.344668,37.967138 42.760028,41.923481 C 39.304418,45.458152 34.425668,47.661391 29.005068,47.661391 C 26.894598,47.661391 24.865298,47.320891 22.962498,46.698924 C 19.460508,45.711155 15.623288,43.579601 13.013138,39.127793 C 11.143018,36.294152 10.058268,32.919716 10.058268,29.305982 C 10.058268,19.181621 18.528618,11.085507 28.980828,10.967439 C 35.466148,10.895755 45.432378,12.551874 53.225948,23.361451 C 53.305008,23.472141 53.384068,23.592318 53.466298,23.703007 C 53.466298,23.703007 53.488438,23.733577 53.473678,23.726199 C 53.489488,23.733577 53.426238,23.551205 53.321878,23.280279 C 52.414228,20.772381 48.267078,7.4549059 36.182988,2.8154529 C 36.182988,2.8154529 33.261858,1.6927489 28.869078,1.4861299 C 22.906628,1.2236379 14.221228,2.6552169 6.4139582,10.950572 C 6.4139582,10.950572 -2.8596818,19.754042 -1.9994618,33.318197 C -1.5936018,50.393831 12.422798,63.925301 29.377198,63.672301 C 33.072098,63.797751 37.153888,63.337071 41.605698,61.982451 C 41.605698,61.982451 50.608408,59.611591 59.579498,49.963724 C 59.579498,49.963724 62.476388,46.573476 65.048588,43.141061 C 65.446018,42.6087 65.827628,42.083717 66.202918,41.566113 C 66.617218,41.056944 67.037828,40.53934 67.467938,40.006979 C 70.628378,35.795523 80.753788,21.610456 90.169738,18.482699 C 92.104158,17.774288 94.205148,17.384242 96.386248,17.384242 C 106.3915,17.384242 114.51185,25.487735 114.51185,35.485595 C 114.51185,44.528363 107.87262,52.901731 99.196697,54.246861 C 98.137238,54.430291 80.696868,57.301881 69.767108,42.145914 C 69.688048,42.028899 69.601598,41.915047 69.521488,41.798034 C 69.521488,41.798034 69.504618,41.773786 69.513048,41.781167 C 69.497238,41.772734 69.584738,41.939294 69.664848,42.217598 C 71.048998,46.477546 75.061208,58.337091 87.869518,62.452611 C 87.869518,62.452611 91.141698,63.541581 95.965628,63.511011 C 101.88803,63.472011 110.1507,61.761071 117.64171,54.325931 C 117.63855,54.325931 127.73971,43.994948 125.59762,29.044545 z "
   id="path1384"
   sodipodi:nodetypes="cccccsccsccscscsccccccccscccsscccsccscc"
   style="fill:#ce3131" /><g
   id="g1386"
   transform="matrix(1.044656,0,0,1.044656,-2.7651,-5.158591)">
        <radialGradient
   id="radialGradient1469"
   cx="45.291"
   cy="84.2314"
   r="85.7659"
   gradientUnits="userSpaceOnUse">
            <stop
   offset="0"
   style="stop-color:#32363F"
   id="stop1471" />
            <stop
   offset="1"
   style="stop-color:#16080F"
   id="stop1473" />
        </radialGradient>
        <path
   d="M 21.13,106.975 L 9.041,69.244 L 18.389,69.244 L 22.981,85.183 C 24.272,89.728 25.451,93.98 26.34,98.683 L 26.506,98.683 C 27.457,94.146 28.636,89.667 29.927,85.356 L 34.738,69.244 L 43.814,69.244 L 31.097,106.974 L 21.13,106.974 L 21.13,106.975 z "
   id="path1393"
   style="fill:url(#SVGID_1_)" />
        <radialGradient
   id="radialGradient1476"
   cx="45.284199"
   cy="84.226601"
   r="85.792297"
   gradientUnits="userSpaceOnUse">
            <stop
   offset="0"
   style="stop-color:#32363F"
   id="stop1478" />
            <stop
   offset="1"
   style="stop-color:#16080F"
   id="stop1480" />
        </radialGradient>
        <path
   d="M 47.838,69.793 C 50.972,69.28 55.065,68.956 59.316,68.956 C 66.542,68.956 71.246,70.3 74.826,72.988 C 78.753,75.895 81.214,80.547 81.214,87.206 C 81.214,94.432 78.579,99.409 74.992,102.481 C 71.02,105.803 64.919,107.367 57.526,107.367 C 53.101,107.367 49.907,107.08 47.838,106.801 L 47.838,69.793 L 47.838,69.793 z M 56.348,100.533 C 57.08,100.7 58.303,100.7 59.316,100.7 C 67.1,100.76 72.197,96.494 72.197,87.486 C 72.197,79.648 67.607,75.509 60.215,75.509 C 58.372,75.509 57.081,75.675 56.349,75.842 L 56.349,100.533 L 56.348,100.533 z "
   id="path1400"
   style="fill:url(#SVGID_2_)" />
        <radialGradient
   id="radialGradient1483"
   cx="45.291"
   cy="84.226601"
   r="85.773697"
   gradientUnits="userSpaceOnUse">
            <stop
   offset="0"
   style="stop-color:#32363F"
   id="stop1485" />
            <stop
   offset="1"
   style="stop-color:#16080F"
   id="stop1487" />
        </radialGradient>
        <path
   d="M 86.808,69.734 C 89.043,69.348 93.529,68.956 97.84,68.956 C 103.051,68.956 106.236,69.453 109.046,71.086 C 111.666,72.482 113.515,75.065 113.515,78.531 C 113.515,81.83 111.554,84.911 107.301,86.542 L 107.301,86.646 C 111.614,87.764 114.799,91.072 114.799,95.888 C 114.799,99.355 113.236,102.042 110.888,103.938 C 108.148,106.128 103.557,107.367 96.05,107.367 C 91.845,107.367 88.719,107.08 86.808,106.801 L 86.808,69.734 z M 95.266,84.187 L 98.06,84.187 C 102.597,84.187 104.946,82.337 104.946,79.528 C 104.946,76.68 102.771,75.171 98.906,75.171 C 96.995,75.171 95.93,75.276 95.266,75.39 L 95.266,84.187 L 95.266,84.187 z M 95.266,100.919 C 96.096,101.033 97.116,101.033 98.566,101.033 C 102.431,101.033 105.844,99.521 105.844,95.549 C 105.844,91.798 102.431,90.287 98.18,90.287 L 95.266,90.287 L 95.266,100.919 z "
   id="path1407"
   style="fill:url(#SVGID_3_)" />
    </g></g>
</svg>
