<svg version="1.1" viewBox="0.0 0.0 689.6141732283464 471.09186351706035" fill="none" stroke="none" stroke-linecap="square" stroke-miterlimit="10" xmlns:xlink="http://www.w3.org/1999/xlink" xmlns="http://www.w3.org/2000/svg"><clipPath id="p.0"><path d="m0 0l689.6142 0l0 471.09186l-689.6142 0l0 -471.09186z" clip-rule="nonzero"/></clipPath><g clip-path="url(#p.0)"><path fill="#000000" fill-opacity="0.0" d="m0 0l689.6142 0l0 471.09186l-689.6142 0z" fill-rule="evenodd"/><path shape-rendering="crispEdges" fill="#6fa8dc" d="m49.32546 144.24147l60.000004 0l0 60.0l-60.000004 0l0 -60.0z" fill-rule="nonzero"/><path shape-rendering="crispEdges" fill="#674ea7" d="m109.32546 144.24147l59.999992 0l0 60.0l-59.999992 0l0 -60.0z" fill-rule="nonzero"/><path shape-rendering="crispEdges" fill="#ffe599" d="m169.32545 144.24147l60.0 0l0 60.0l-60.0 0l0 -60.0z" fill-rule="nonzero"/><path shape-rendering="crispEdges" fill="#76a5af" d="m229.32545 144.24147l60.000015 0l0 60.0l-60.000015 0l0 -60.0z" fill-rule="nonzero"/><path shape-rendering="crispEdges" fill="#ea9999" d="m49.32546 204.24147l60.000004 0l0 59.999985l-60.000004 0l0 -59.999985z" fill-rule="nonzero"/><path shape-rendering="crispEdges" fill="#f9cb9c" d="m109.32546 204.24147l59.999992 0l0 59.999985l-59.999992 0l0 -59.999985z" fill-rule="nonzero"/><path shape-rendering="crispEdges" fill="#b4a7d6" d="m169.32545 204.24147l60.0 0l0 59.999985l-60.0 0l0 -59.999985z" fill-rule="nonzero"/><path shape-rendering="crispEdges" fill="#ffff00" d="m229.32545 204.24147l60.000015 0l0 59.999985l-60.000015 0l0 -59.999985z" fill-rule="nonzero"/><path shape-rendering="crispEdges" fill="#4a86e8" d="m49.32546 264.24146l60.000004 0l0 60.0l-60.000004 0l0 -60.0z" fill-rule="nonzero"/><path shape-rendering="crispEdges" fill="#93c47d" d="m109.32546 264.24146l59.999992 0l0 60.0l-59.999992 0l0 -60.0z" fill-rule="nonzero"/><path shape-rendering="crispEdges" fill="#4a86e8" d="m169.32545 264.24146l60.0 0l0 60.0l-60.0 0l0 -60.0z" fill-rule="nonzero"/><path shape-rendering="crispEdges" fill="#ead1dc" d="m229.32545 264.24146l60.000015 0l0 60.0l-60.000015 0l0 -60.0z" fill-rule="nonzero"/><path shape-rendering="crispEdges" fill="#ea9999" d="m49.32546 324.24146l60.000004 0l0 60.0l-60.000004 0l0 -60.0z" fill-rule="nonzero"/><path shape-rendering="crispEdges" fill="#f6b26b" d="m109.32546 324.24146l59.999992 0l0 60.0l-59.999992 0l0 -60.0z" fill-rule="nonzero"/><path shape-rendering="crispEdges" fill="#ea9999" d="m169.32545 324.24146l60.0 0l0 60.0l-60.0 0l0 -60.0z" fill-rule="nonzero"/><path shape-rendering="crispEdges" fill="#93c47d" d="m229.32545 324.24146l60.000015 0l0 60.0l-60.000015 0l0 -60.0z" fill-rule="nonzero"/><path stroke="#434343" stroke-width="4.0" stroke-linecap="butt" d="m49.32546 142.24147l0 243.99998" fill-rule="nonzero"/><path stroke="#434343" stroke-width="4.0" stroke-linecap="butt" d="m109.32546 142.24147l0 243.99998" fill-rule="nonzero"/><path stroke="#434343" stroke-width="4.0" stroke-linecap="butt" d="m169.32545 142.24147l0 243.99998" fill-rule="nonzero"/><path stroke="#434343" stroke-width="4.0" stroke-linecap="butt" d="m229.32545 142.24147l0 243.99998" fill-rule="nonzero"/><path stroke="#434343" stroke-width="4.0" stroke-linecap="butt" d="m289.32547 142.24147l0 243.99998" fill-rule="nonzero"/><path stroke="#434343" stroke-width="4.0" stroke-linecap="butt" d="m47.32546 144.24147l244.00002 0" fill-rule="nonzero"/><path stroke="#434343" stroke-width="4.0" stroke-linecap="butt" d="m47.32546 204.24147l244.00002 0" fill-rule="nonzero"/><path stroke="#434343" stroke-width="4.0" stroke-linecap="butt" d="m47.32546 264.24146l244.00002 0" fill-rule="nonzero"/><path stroke="#434343" stroke-width="4.0" stroke-linecap="butt" d="m47.32546 324.24146l244.00002 0" fill-rule="nonzero"/><path stroke="#434343" stroke-width="4.0" stroke-linecap="butt" d="m47.32546 384.24146l244.00002 0" fill-rule="nonzero"/><path shape-rendering="crispEdges" fill="#ea9999" d="m371.78085 377.89502l42.514435 0l0 41.280823l-42.514435 0l0 -41.280823z" fill-rule="nonzero"/><path shape-rendering="crispEdges" fill="#f6b26b" d="m414.2953 377.89502l40.194214 0l0 41.280823l-40.194214 0l0 -41.280823z" fill-rule="nonzero"/><path shape-rendering="crispEdges" fill="#ea9999" d="m454.4895 377.89502l41.35434 0l0 41.280823l-41.35434 0l0 -41.280823z" fill-rule="nonzero"/><path shape-rendering="crispEdges" fill="#93c47d" d="m495.84384 377.89502l41.35434 0l0 41.280823l-41.35434 0l0 -41.280823z" fill-rule="nonzero"/><path stroke="#434343" stroke-width="4.0" stroke-linecap="butt" d="m371.78085 375.89502l0 45.280823" fill-rule="nonzero"/><path stroke="#434343" stroke-width="4.0" stroke-linecap="butt" d="m414.2953 375.89502l0 45.280823" fill-rule="nonzero"/><path stroke="#434343" stroke-width="4.0" stroke-linecap="butt" d="m454.4895 375.89502l0 45.280823" fill-rule="nonzero"/><path stroke="#434343" stroke-width="4.0" stroke-linecap="butt" d="m495.84384 375.89502l0 45.280823" fill-rule="nonzero"/><path stroke="#434343" stroke-width="4.0" stroke-linecap="butt" d="m537.1982 375.89502l0 45.280823" fill-rule="nonzero"/><path stroke="#434343" stroke-width="4.0" stroke-linecap="butt" d="m369.78085 377.89502l169.41733 0" fill-rule="nonzero"/><path stroke="#434343" stroke-width="4.0" stroke-linecap="butt" d="m369.78085 419.17584l169.41733 0" fill-rule="nonzero"/><path fill="#000000" d="m388.93826 398.65042q0 -2.1875 0.453125 -3.53125q0.453125 -1.34375 1.34375 -2.0625q0.890625 -0.734375 2.25 -0.734375q1.0 0 1.75 0.40625q0.75 0.390625 1.234375 1.15625q0.5 0.75 0.78125 1.84375q0.28125 1.078125 0.28125 2.921875q0 2.1875 -0.453125 3.53125q-0.453125 1.34375 -1.34375 2.078125q-0.890625 0.734375 -2.25 0.734375q-1.796875 0 -2.8125 -1.296875q-1.234375 -1.546875 -1.234375 -5.046875zm1.5625 0q0 3.0625 0.71875 4.078125q0.71875 1.0 1.765625 1.0q1.046875 0 1.765625 -1.015625q0.71875 -1.015625 0.71875 -4.0625q0 -3.0625 -0.71875 -4.0625q-0.71875 -1.0 -1.78125 -1.0q-1.046875 0 -1.671875 0.875q-0.796875 1.140625 -0.796875 4.1875z" fill-rule="nonzero"/><path fill="#000000" d="m436.02698 404.77542l-1.515625 0l0 -9.703125q-0.5625 0.515625 -1.453125 1.046875q-0.890625 0.53125 -1.59375 0.78125l0 -1.46875q1.28125 -0.59375 2.234375 -1.453125q0.953125 -0.859375 1.34375 -1.65625l0.984375 0l0 12.453125z" fill-rule="nonzero"/><path fill="#000000" d="m479.06686 403.30667l0 1.46875l-8.1875 0q-0.03125 -0.546875 0.171875 -1.0625q0.3125 -0.828125 1.0 -1.640625q0.6875 -0.8125 2.0 -1.875q2.015625 -1.671875 2.71875 -2.640625q0.71875 -0.96875 0.71875 -1.828125q0 -0.90625 -0.65625 -1.515625q-0.640625 -0.625 -1.671875 -0.625q-1.109375 0 -1.765625 0.65625q-0.65625 0.65625 -0.671875 1.828125l-1.5625 -0.15625q0.15625 -1.765625 1.203125 -2.671875q1.0625 -0.921875 2.828125 -0.921875q1.78125 0 2.8125 1.0q1.046875 0.984375 1.046875 2.4375q0 0.75 -0.3125 1.46875q-0.296875 0.71875 -1.0 1.515625q-0.703125 0.796875 -2.34375 2.1875q-1.375 1.140625 -1.765625 1.5625q-0.390625 0.40625 -0.640625 0.8125l6.078125 0z" fill-rule="nonzero"/><path fill="#000000" d="m512.4368 401.49417l1.515625 -0.203125q0.265625 1.296875 0.890625 1.875q0.640625 0.5625 1.53125 0.5625q1.078125 0 1.8125 -0.734375q0.75 -0.75 0.75 -1.84375q0 -1.046875 -0.6875 -1.734375q-0.6875 -0.6875 -1.734375 -0.6875q-0.4375 0 -1.078125 0.171875l0.171875 -1.328125q0.140625 0.015625 0.234375 0.015625q0.984375 0 1.75 -0.5q0.78125 -0.515625 0.78125 -1.578125q0 -0.84375 -0.5625 -1.390625q-0.5625 -0.546875 -1.46875 -0.546875q-0.890625 0 -1.484375 0.5625q-0.578125 0.5625 -0.75 1.671875l-1.53125 -0.265625q0.28125 -1.53125 1.265625 -2.375q1.0 -0.84375 2.46875 -0.84375q1.015625 0 1.859375 0.4375q0.859375 0.4375 1.3125 1.1875q0.453125 0.75 0.453125 1.59375q0 0.8125 -0.4375 1.46875q-0.421875 0.65625 -1.265625 1.046875q1.09375 0.25 1.703125 1.0625q0.609375 0.796875 0.609375 2.0q0 1.609375 -1.1875 2.75q-1.171875 1.125 -2.984375 1.125q-1.640625 0 -2.71875 -0.96875q-1.078125 -0.96875 -1.21875 -2.53125z" fill-rule="nonzero"/><path fill="#000000" fill-opacity="0.0" d="m71.24672 91.761154l196.15749 0l0 36.7874l-196.15749 0z" fill-rule="evenodd"/><path fill="#a4c2f4" d="m106.272995 118.68115l0 -1.375l-6.65625 0l3.5625 -3.859375q0.5 -0.546875 0.953125 -1.09375q0.453125 -0.5625 0.796875 -1.125q0.328125 -0.5625 0.53125 -1.140625q0.203125 -0.578125 0.203125 -1.171875q0 -0.796875 -0.28125 -1.46875q-0.28125 -0.671875 -0.796875 -1.15625q-0.515625 -0.5 -1.265625 -0.78125q-0.75 -0.28125 -1.6875 -0.28125q-1.03125 0 -1.828125 0.328125q-0.796875 0.328125 -1.34375 0.890625q-0.546875 0.5625 -0.84375 1.3125q-0.28125 0.734375 -0.28125 1.5625l1.6875 0q0 -0.609375 0.15625 -1.109375q0.15625 -0.515625 0.484375 -0.859375q0.328125 -0.34375 0.8125 -0.53125q0.484375 -0.203125 1.15625 -0.203125q0.546875 0 0.96875 0.1875q0.4375 0.1875 0.75 0.5q0.296875 0.328125 0.453125 0.765625q0.171875 0.421875 0.171875 0.921875q0 0.390625 -0.109375 0.78125q-0.09375 0.375 -0.328125 0.796875q-0.25 0.421875 -0.640625 0.921875q-0.390625 0.5 -0.96875 1.140625l-4.34375 4.828125l0 1.21875l8.6875 0zm2.883072 0l3.078125 0q0.953125 -0.015625 1.78125 -0.234375q0.828125 -0.21875 1.484375 -0.625q0.609375 -0.390625 1.109375 -0.9375q0.5 -0.5625 0.828125 -1.25q0.328125 -0.65625 0.484375 -1.4375q0.171875 -0.78125 0.171875 -1.65625l0 -0.96875q0 -0.921875 -0.1875 -1.71875q-0.171875 -0.796875 -0.515625 -1.46875q-0.359375 -0.796875 -0.984375 -1.40625q-0.625 -0.609375 -1.4375 -0.984375q-0.59375 -0.265625 -1.28125 -0.40625q-0.6875 -0.15625 -1.453125 -0.171875l-3.078125 0l0 13.265625zm1.71875 -11.875l1.359375 0q0.625 0 1.15625 0.140625q0.53125 0.125 0.953125 0.359375q0.609375 0.328125 1.015625 0.84375q0.421875 0.515625 0.65625 1.15625q0.203125 0.484375 0.296875 1.0625q0.09375 0.5625 0.09375 1.1875l0 0.984375q0 0.609375 -0.09375 1.171875q-0.09375 0.5625 -0.265625 1.046875q-0.21875 0.59375 -0.578125 1.078125q-0.359375 0.46875 -0.84375 0.796875q-0.46875 0.3125 -1.078125 0.484375q-0.59375 0.171875 -1.3125 0.1875l-1.359375 0l0 -10.5zm20.844269 -1.390625l0 1.46875l3.109375 0l0 10.34375l-3.109375 0l0 1.453125l8.015625 0l0 -1.453125l-3.171875 0l0 -10.34375l3.171875 0l0 -1.46875l-8.015625 0zm11.976822 3.40625l-1.515625 0l0 9.859375l1.609375 0l0 -7.84375q0.046875 -0.140625 0.125 -0.265625q0.09375 -0.140625 0.21875 -0.234375q0.15625 -0.125 0.375 -0.1875q0.21875 -0.078125 0.53125 -0.078125q0.265625 0 0.46875 0.078125q0.203125 0.0625 0.34375 0.203125q0.15625 0.15625 0.21875 0.390625q0.0625 0.234375 0.0625 0.546875l0 7.390625l1.609375 0l0 -7.375q0 -0.0625 0 -0.09375q0 -0.046875 0 -0.09375q0.03125 -0.21875 0.109375 -0.40625q0.078125 -0.1875 0.21875 -0.34375q0.15625 -0.125 0.375 -0.203125q0.21875 -0.09375 0.515625 -0.09375q0.28125 0 0.484375 0.078125q0.21875 0.0625 0.375 0.21875q0.140625 0.15625 0.203125 0.390625q0.078125 0.234375 0.078125 0.546875l0 7.375l1.59375 0l0 -7.359375q0 -0.71875 -0.171875 -1.234375q-0.15625 -0.53125 -0.453125 -0.859375q-0.28125 -0.28125 -0.703125 -0.421875q-0.40625 -0.15625 -0.921875 -0.15625q-0.359375 0 -0.6875 0.09375q-0.3125 0.09375 -0.5625 0.25q-0.203125 0.125 -0.375 0.3125q-0.171875 0.1875 -0.296875 0.390625q-0.109375 -0.21875 -0.25 -0.40625q-0.140625 -0.1875 -0.3125 -0.3125q-0.234375 -0.15625 -0.546875 -0.234375q-0.3125 -0.09375 -0.703125 -0.09375q-0.6875 0 -1.1875 0.296875q-0.484375 0.28125 -0.78125 0.8125l-0.046875 -0.9375zm16.898697 9.859375l1.75 0l0 -0.140625q-0.15625 -0.421875 -0.25 -0.96875q-0.09375 -0.546875 -0.09375 -1.046875l0 -4.578125q0 -0.828125 -0.296875 -1.4375q-0.296875 -0.625 -0.8125 -1.046875q-0.53125 -0.40625 -1.25 -0.609375q-0.71875 -0.203125 -1.5625 -0.203125q-0.921875 0 -1.65625 0.25q-0.71875 0.25 -1.21875 0.65625q-0.5 0.421875 -0.78125 0.953125q-0.265625 0.515625 -0.265625 1.046875l1.6875 0q0 -0.3125 0.140625 -0.59375q0.15625 -0.28125 0.4375 -0.5q0.265625 -0.203125 0.65625 -0.328125q0.40625 -0.140625 0.90625 -0.140625q0.546875 0 0.96875 0.140625q0.4375 0.140625 0.734375 0.390625q0.296875 0.25 0.453125 0.609375q0.171875 0.34375 0.171875 0.796875l0 0.78125l-1.828125 0q-1.03125 0 -1.875 0.203125q-0.828125 0.1875 -1.421875 0.59375q-0.59375 0.40625 -0.921875 1.015625q-0.3125 0.609375 -0.3125 1.421875q0 0.625 0.234375 1.15625q0.25 0.53125 0.6875 0.90625q0.4375 0.40625 1.0625 0.640625q0.640625 0.21875 1.4375 0.21875q0.46875 0 0.890625 -0.109375q0.4375 -0.09375 0.828125 -0.265625q0.375 -0.171875 0.6875 -0.390625q0.3125 -0.234375 0.5625 -0.5q0.03125 0.3125 0.09375 0.609375q0.0625 0.28125 0.15625 0.46875zm-2.984375 -1.28125q-0.484375 0 -0.859375 -0.125q-0.375 -0.140625 -0.625 -0.359375q-0.234375 -0.21875 -0.359375 -0.53125q-0.125 -0.3125 -0.125 -0.671875q0 -0.390625 0.140625 -0.6875q0.140625 -0.296875 0.40625 -0.515625q0.390625 -0.3125 1.03125 -0.453125q0.65625 -0.15625 1.53125 -0.15625l1.5625 0l0 2.0q-0.140625 0.28125 -0.40625 0.5625q-0.25 0.265625 -0.59375 0.46875q-0.34375 0.203125 -0.78125 0.34375q-0.421875 0.125 -0.921875 0.125zm7.398697 -3.734375l0 0.203125q0 1.046875 0.265625 1.96875q0.28125 0.90625 0.78125 1.59375q0.5 0.671875 1.234375 1.0625q0.734375 0.375 1.625 0.375q0.546875 0 1.0 -0.125q0.46875 -0.109375 0.859375 -0.3125q0.234375 -0.140625 0.453125 -0.3125q0.21875 -0.1875 0.40625 -0.40625l0 0.84375q0 0.640625 -0.1875 1.125q-0.171875 0.5 -0.515625 0.828125q-0.34375 0.328125 -0.828125 0.5q-0.484375 0.171875 -1.078125 0.171875q-0.34375 0 -0.6875 -0.0625q-0.328125 -0.0625 -0.671875 -0.21875q-0.328125 -0.15625 -0.65625 -0.421875q-0.328125 -0.25 -0.640625 -0.625l-0.875 1.0q0.34375 0.484375 0.8125 0.8125q0.46875 0.328125 0.96875 0.515625q0.5 0.203125 0.984375 0.28125q0.5 0.09375 0.890625 0.09375q0.921875 0 1.6875 -0.28125q0.765625 -0.265625 1.328125 -0.78125q0.546875 -0.53125 0.84375 -1.296875q0.3125 -0.75 0.3125 -1.71875l0 -9.65625l-1.53125 0l-0.078125 1.078125q-0.171875 -0.21875 -0.375 -0.390625q-0.1875 -0.1875 -0.40625 -0.328125q-0.40625 -0.265625 -0.90625 -0.390625q-0.5 -0.140625 -1.09375 -0.140625q-0.90625 0 -1.640625 0.375q-0.734375 0.359375 -1.234375 1.03125q-0.515625 0.65625 -0.78125 1.59375q-0.265625 0.921875 -0.265625 2.015625zm1.671875 0.203125l0 -0.203125q0 -0.71875 0.15625 -1.359375q0.15625 -0.65625 0.484375 -1.15625q0.3125 -0.5 0.8125 -0.78125q0.515625 -0.296875 1.21875 -0.296875q0.421875 0 0.765625 0.109375q0.34375 0.09375 0.625 0.28125q0.296875 0.1875 0.515625 0.453125q0.21875 0.25 0.375 0.5625l0 4.515625q-0.15625 0.3125 -0.375 0.578125q-0.21875 0.265625 -0.5 0.453125q-0.28125 0.203125 -0.640625 0.3125q-0.34375 0.09375 -0.78125 0.09375q-0.703125 0 -1.203125 -0.28125q-0.5 -0.296875 -0.8125 -0.78125q-0.328125 -0.5 -0.484375 -1.140625q-0.15625 -0.640625 -0.15625 -1.359375zm14.179947 5.0q1.4375 0 2.421875 -0.578125q0.984375 -0.578125 1.46875 -1.328125l-1.03125 -0.796875q-0.46875 0.59375 -1.171875 0.96875q-0.6875 0.359375 -1.59375 0.359375q-0.6875 0 -1.25 -0.25q-0.5625 -0.265625 -0.96875 -0.71875q-0.390625 -0.40625 -0.609375 -0.953125q-0.21875 -0.546875 -0.28125 -1.265625l0 -0.078125l7.03125 0l0 -0.75q0 -1.03125 -0.265625 -1.90625q-0.25 -0.890625 -0.78125 -1.546875q-0.53125 -0.640625 -1.328125 -1.0q-0.796875 -0.375 -1.859375 -0.375q-0.84375 0 -1.65625 0.34375q-0.796875 0.34375 -1.4375 0.984375q-0.625 0.65625 -1.015625 1.609375q-0.375 0.9375 -0.375 2.125l0 0.390625q0 1.03125 0.34375 1.90625q0.34375 0.875 0.96875 1.5q0.609375 0.640625 1.484375 1.0q0.875 0.359375 1.90625 0.359375zm-0.21875 -8.84375q0.65625 0 1.125 0.234375q0.46875 0.234375 0.765625 0.625q0.3125 0.375 0.484375 0.90625q0.171875 0.515625 0.171875 0.984375l0 0.078125l-5.296875 0q0.09375 -0.6875 0.34375 -1.203125q0.265625 -0.53125 0.625 -0.890625q0.359375 -0.359375 0.8125 -0.546875q0.453125 -0.1875 0.96875 -0.1875zm26.844269 6.921875l-0.03125 -4.875l-4.296875 0l0 1.421875l2.6875 0l-0.015625 2.984375q-0.203125 0.296875 -0.515625 0.484375q-0.3125 0.1875 -0.671875 0.296875q-0.34375 0.109375 -0.734375 0.15625q-0.375 0.03125 -0.71875 0.015625q-0.59375 0 -1.078125 -0.203125q-0.46875 -0.21875 -0.828125 -0.5625q-0.359375 -0.34375 -0.625 -0.796875q-0.25 -0.453125 -0.40625 -0.96875q-0.171875 -0.515625 -0.25 -1.046875q-0.078125 -0.53125 -0.078125 -1.03125l0 -1.5625q0 -0.484375 0.0625 -1.015625q0.0625 -0.53125 0.203125 -1.03125q0.15625 -0.515625 0.375 -0.96875q0.234375 -0.46875 0.578125 -0.8125q0.34375 -0.34375 0.796875 -0.546875q0.46875 -0.203125 1.078125 -0.203125q0.625 0 1.09375 0.203125q0.484375 0.1875 0.828125 0.53125q0.34375 0.34375 0.546875 0.828125q0.203125 0.484375 0.3125 1.0625l1.65625 0q-0.078125 -0.921875 -0.4375 -1.671875q-0.34375 -0.765625 -0.9375 -1.296875q-0.578125 -0.53125 -1.359375 -0.8125q-0.78125 -0.296875 -1.71875 -0.296875q-0.828125 0 -1.515625 0.25q-0.671875 0.25 -1.1875 0.671875q-0.546875 0.421875 -0.9375 1.0q-0.375 0.578125 -0.625 1.25q-0.25 0.6875 -0.375 1.421875q-0.125 0.71875 -0.140625 1.46875l0 1.53125q0.015625 0.75 0.15625 1.484375q0.140625 0.734375 0.421875 1.390625q0.28125 0.671875 0.6875 1.25q0.40625 0.578125 0.953125 1.0q0.546875 0.421875 1.234375 0.671875q0.6875 0.234375 1.5 0.25q0.8125 0 1.546875 -0.1875q0.75 -0.1875 1.390625 -0.5625q0.375 -0.21875 0.71875 -0.515625q0.34375 -0.296875 0.65625 -0.65625zm9.070572 -8.296875q-1.078125 0 -1.921875 0.46875q-0.84375 0.46875 -1.4375 1.265625l-0.015625 -0.234375l-0.078125 -1.328125l-1.59375 0l0 9.859375l1.6875 0l0 -6.328125q0.171875 -0.453125 0.421875 -0.8125q0.25 -0.375 0.578125 -0.625q0.375 -0.296875 0.875 -0.4375q0.5 -0.15625 1.125 -0.15625q0.484375 0 0.921875 0.046875q0.453125 0.046875 0.9375 0.15625l0.234375 -1.640625q-0.265625 -0.109375 -0.765625 -0.171875q-0.5 -0.0625 -0.96875 -0.0625zm4.992447 0.171875l0 1.46875l3.359375 0l0 6.9375l-3.359375 0l0 1.453125l8.265625 0l0 -1.453125l-3.21875 0l0 -8.40625l-5.046875 0zm3.140625 -2.578125q0 0.40625 0.25 0.6875q0.25 0.265625 0.765625 0.265625q0.5 0 0.75 -0.265625q0.25 -0.28125 0.25 -0.6875q0 -0.234375 -0.078125 -0.421875q-0.0625 -0.1875 -0.203125 -0.328125q-0.125 -0.109375 -0.3125 -0.171875q-0.171875 -0.078125 -0.40625 -0.078125q-0.25 0 -0.4375 0.078125q-0.171875 0.0625 -0.296875 0.171875q-0.140625 0.140625 -0.21875 0.34375q-0.0625 0.1875 -0.0625 0.40625zm7.476822 7.421875l0 0.203125q0 1.046875 0.28125 1.96875q0.28125 0.90625 0.796875 1.59375q0.5 0.671875 1.21875 1.0625q0.734375 0.375 1.625 0.375q0.921875 0 1.59375 -0.3125q0.6875 -0.3125 1.1875 -0.90625l0.0625 1.03125l1.546875 0l0 -14.0l-1.6875 0l0 5.125q-0.46875 -0.578125 -1.140625 -0.859375q-0.65625 -0.296875 -1.546875 -0.296875q-0.890625 0 -1.625 0.375q-0.734375 0.359375 -1.234375 1.03125q-0.515625 0.65625 -0.796875 1.59375q-0.28125 0.921875 -0.28125 2.015625zm1.6875 0.203125l0 -0.203125q0 -0.71875 0.15625 -1.359375q0.15625 -0.65625 0.484375 -1.15625q0.3125 -0.5 0.8125 -0.78125q0.515625 -0.296875 1.21875 -0.296875q0.828125 0 1.375 0.390625q0.5625 0.390625 0.890625 0.984375l0 4.578125q-0.328125 0.640625 -0.890625 1.03125q-0.546875 0.375 -1.390625 0.375q-0.703125 0 -1.203125 -0.28125q-0.5 -0.296875 -0.8125 -0.78125q-0.328125 -0.5 -0.484375 -1.140625q-0.15625 -0.640625 -0.15625 -1.359375z" fill-rule="nonzero"/><path fill="#000000" fill-opacity="0.0" d="m547.5066 350.74014l55.747986 0l0 63.02365l-55.747986 0z" fill-rule="evenodd"/><path fill="#666666" d="m584.03784 394.30014l0 -4.9375l4.953125 0l0 4.9375l-4.953125 0zm-11.984375 0l0 -4.9375l4.9375 0l0 4.9375l-4.9375 0zm-12.015625 0l0 -4.9375l4.9375 0l0 4.9375l-4.9375 0z" fill-rule="nonzero"/><path shape-rendering="crispEdges" fill="#76a5af" d="m608.31366 377.09448l41.35431 0l0 41.280853l-41.35431 0l0 -41.280853z" fill-rule="nonzero"/><path stroke="#434343" stroke-width="4.0" stroke-linecap="butt" d="m608.31366 375.09448l0 45.280853" fill-rule="nonzero"/><path stroke="#434343" stroke-width="4.0" stroke-linecap="butt" d="m649.66797 375.09448l0 45.280853" fill-rule="nonzero"/><path stroke="#434343" stroke-width="4.0" stroke-linecap="butt" d="m606.31366 377.09448l45.35431 0" fill-rule="nonzero"/><path stroke="#434343" stroke-width="4.0" stroke-linecap="butt" d="m606.31366 418.37534l45.35431 0" fill-rule="nonzero"/><path fill="#000000" d="m625.8069 402.7345l-1.515686 0l0 -9.703125q-0.5625 0.515625 -1.453125 1.046875q-0.890625 0.53125 -1.59375 0.78125l0 -1.46875q1.28125 -0.59375 2.234375 -1.453125q0.95318604 -0.859375 1.343811 -1.65625l0.984375 0l0 12.453125zm3.90271 -3.25l1.59375 -0.140625q0.1875 1.171875 0.828125 1.765625q0.65625 0.578125 1.5625 0.578125q1.09375 0 1.859375 -0.828125q0.765625 -0.828125 0.765625 -2.1875q0 -1.3125 -0.734375 -2.0625q-0.734375 -0.75 -1.921875 -0.75q-0.734375 0 -1.328125 0.34375q-0.578125 0.328125 -0.921875 0.859375l-1.4375 -0.1875l1.203125 -6.375l6.171875 0l0 1.453125l-4.953125 0l-0.671875 3.328125q1.125 -0.765625 2.34375 -0.765625q1.625 0 2.734375 1.125q1.125 1.125 1.125 2.890625q0 1.6875 -0.96875 2.90625q-1.203125 1.515625 -3.265625 1.515625q-1.6875 0 -2.765625 -0.953125q-1.0625 -0.953125 -1.21875 -2.515625z" fill-rule="nonzero"/><path shape-rendering="crispEdges" fill="#ffffff" d="m414.4882 96.59843l48.456696 0l0 50.501305l-48.456696 0l0 -50.501305z" fill-rule="nonzero"/><path shape-rendering="crispEdges" fill="#ffffff" d="m462.9449 96.59843l48.456696 0l0 50.501305l-48.456696 0l0 -50.501305z" fill-rule="nonzero"/><path shape-rendering="crispEdges" fill="#ffffff" d="m511.40158 96.59843l48.456696 0l0 50.501305l-48.456696 0l0 -50.501305z" fill-rule="nonzero"/><path shape-rendering="crispEdges" fill="#ffffff" d="m559.8583 96.59843l48.456665 0l0 50.501305l-48.456665 0l0 -50.501305z" fill-rule="nonzero"/><path shape-rendering="crispEdges" fill="#ffffff" d="m414.4882 147.09973l48.456696 0l0 50.501312l-48.456696 0l0 -50.501312z" fill-rule="nonzero"/><path shape-rendering="crispEdges" fill="#ffffff" d="m462.9449 147.09973l48.456696 0l0 50.501312l-48.456696 0l0 -50.501312z" fill-rule="nonzero"/><path shape-rendering="crispEdges" fill="#ffffff" d="m511.40158 147.09973l48.456696 0l0 50.501312l-48.456696 0l0 -50.501312z" fill-rule="nonzero"/><path shape-rendering="crispEdges" fill="#ffffff" d="m559.8583 147.09973l48.456665 0l0 50.501312l-48.456665 0l0 -50.501312z" fill-rule="nonzero"/><path shape-rendering="crispEdges" fill="#ffffff" d="m414.4882 197.60104l48.456696 0l0 50.501312l-48.456696 0l0 -50.501312z" fill-rule="nonzero"/><path shape-rendering="crispEdges" fill="#ffffff" d="m462.9449 197.60104l48.456696 0l0 50.501312l-48.456696 0l0 -50.501312z" fill-rule="nonzero"/><path shape-rendering="crispEdges" fill="#ffffff" d="m511.40158 197.60104l48.456696 0l0 50.501312l-48.456696 0l0 -50.501312z" fill-rule="nonzero"/><path shape-rendering="crispEdges" fill="#ffffff" d="m559.8583 197.60104l48.456665 0l0 50.501312l-48.456665 0l0 -50.501312z" fill-rule="nonzero"/><path shape-rendering="crispEdges" fill="#ffffff" d="m414.4882 248.10236l48.456696 0l0 50.501312l-48.456696 0l0 -50.501312z" fill-rule="nonzero"/><path shape-rendering="crispEdges" fill="#ffffff" d="m462.9449 248.10236l48.456696 0l0 50.501312l-48.456696 0l0 -50.501312z" fill-rule="nonzero"/><path shape-rendering="crispEdges" fill="#ffffff" d="m511.40158 248.10236l48.456696 0l0 50.501312l-48.456696 0l0 -50.501312z" fill-rule="nonzero"/><path shape-rendering="crispEdges" fill="#ffffff" d="m559.8583 248.10236l48.456665 0l0 50.501312l-48.456665 0l0 -50.501312z" fill-rule="nonzero"/><path stroke="#434343" stroke-width="4.0" stroke-linecap="butt" d="m414.4882 94.59843l0 206.00525" fill-rule="nonzero"/><path stroke="#434343" stroke-width="4.0" stroke-linecap="butt" d="m462.9449 94.59843l0 206.00525" fill-rule="nonzero"/><path stroke="#434343" stroke-width="4.0" stroke-linecap="butt" d="m511.40158 94.59843l0 206.00525" fill-rule="nonzero"/><path stroke="#434343" stroke-width="4.0" stroke-linecap="butt" d="m559.8583 94.59843l0 206.00525" fill-rule="nonzero"/><path stroke="#434343" stroke-width="4.0" stroke-linecap="butt" d="m608.31494 94.59843l0 206.00525" fill-rule="nonzero"/><path stroke="#434343" stroke-width="4.0" stroke-linecap="butt" d="m412.4882 96.59843l197.82675 0" fill-rule="nonzero"/><path stroke="#434343" stroke-width="4.0" stroke-linecap="butt" d="m412.4882 147.09973l197.82675 0" fill-rule="nonzero"/><path stroke="#434343" stroke-width="4.0" stroke-linecap="butt" d="m412.4882 197.60104l197.82675 0" fill-rule="nonzero"/><path stroke="#434343" stroke-width="4.0" stroke-linecap="butt" d="m412.4882 248.10236l197.82675 0" fill-rule="nonzero"/><path stroke="#434343" stroke-width="4.0" stroke-linecap="butt" d="m412.4882 298.60367l197.82675 0" fill-rule="nonzero"/><path fill="#000000" d="m430.97995 122.12908q0.84375 0.375 1.28125 1.046875q0.453125 0.65625 0.453125 1.375q0 1.109375 -0.890625 1.953125q-0.890625 0.84375 -2.25 0.84375q-0.78125 0 -1.640625 -0.328125q-0.84375 -0.34375 -1.1875 -0.703125q-0.109375 -0.109375 -0.109375 -0.25q0 -0.109375 0.078125 -0.1875q0.09375 -0.09375 0.21875 -0.09375q0.109375 0 0.265625 0.109375q1.125 0.84375 2.390625 0.84375q1.078125 0 1.796875 -0.671875q0.71875 -0.671875 0.71875 -1.5q0 -0.546875 -0.359375 -1.0625q-0.34375 -0.53125 -1.015625 -0.828125q-0.671875 -0.3125 -1.34375 -0.3125q-0.21875 0 -0.328125 -0.078125q-0.09375 -0.09375 -0.09375 -0.234375q0 -0.125 0.09375 -0.21875q0.09375 -0.09375 0.28125 -0.09375l0.53125 0.015625q0.828125 0 1.359375 -0.5q0.546875 -0.515625 0.546875 -1.171875q0 -0.6875 -0.578125 -1.21875q-0.5625 -0.53125 -1.46875 -0.53125q-0.640625 0 -1.171875 0.21875q-0.53125 0.21875 -0.859375 0.609375q-0.109375 0.140625 -0.171875 0.171875q-0.0625 0.03125 -0.140625 0.03125q-0.125 0 -0.21875 -0.078125q-0.078125 -0.09375 -0.078125 -0.203125q0 -0.296875 0.625 -0.75q0.890625 -0.609375 2.015625 -0.609375q1.171875 0 1.90625 0.703125q0.75 0.6875 0.75 1.65625q0 0.609375 -0.359375 1.171875q-0.359375 0.546875 -1.046875 0.875zm6.51709 2.78125l2.0 0l-2.171875 4.0468674q-0.203125 0.375 -0.484375 0.375q-0.171875 0 -0.3125 -0.140625q-0.125 -0.125 -0.125 -0.296875q0 -0.078125 0.03125 -0.171875l1.0625 -3.8124924zm13.04834 -3.140625l0 1.53125q0 1.984375 -0.953125 3.140625q-0.734375 0.90625 -1.859375 0.90625q-0.546875 0 -1.03125 -0.21875q-0.46875 -0.21875 -0.8125 -0.59375q-0.203125 -0.25 -0.46875 -0.78125q-0.25 -0.53125 -0.359375 -0.984375q-0.171875 -0.625 -0.171875 -1.46875l0 -1.53125q0 -1.984375 0.953125 -3.140625q0.734375 -0.90625 1.859375 -0.90625q0.5625 0 1.03125 0.21875q0.46875 0.203125 0.8125 0.59375q0.21875 0.25 0.46875 0.796875q0.25 0.53125 0.359375 0.96875q0.171875 0.625 0.171875 1.46875zm-0.625 0.078125q0 -0.859375 -0.25 -1.609375q-0.234375 -0.75 -0.546875 -1.203125q-0.171875 -0.25 -0.46875 -0.4375q-0.421875 -0.265625 -0.9375 -0.265625q-1.03125 0 -1.625 1.0625q-0.578125 1.046875 -0.578125 2.453125l0 1.359375q0 0.875 0.234375 1.640625q0.25 0.75 0.5625 1.1875q0.1875 0.25 0.46875 0.4375q0.421875 0.265625 0.953125 0.265625q1.015625 0 1.59375 -1.0625q0.59375 -1.0625 0.59375 -2.46875l0 -1.359375z" fill-rule="nonzero"/><path fill="#000000" d="m479.43665 122.12908q0.84375 0.375 1.28125 1.046875q0.453125 0.65625 0.453125 1.375q0 1.109375 -0.890625 1.953125q-0.890625 0.84375 -2.25 0.84375q-0.78125 0 -1.640625 -0.328125q-0.84375 -0.34375 -1.1875 -0.703125q-0.109375 -0.109375 -0.109375 -0.25q0 -0.109375 0.078125 -0.1875q0.09375 -0.09375 0.21875 -0.09375q0.109375 0 0.265625 0.109375q1.125 0.84375 2.390625 0.84375q1.078125 0 1.796875 -0.671875q0.71875 -0.671875 0.71875 -1.5q0 -0.546875 -0.359375 -1.0625q-0.34375 -0.53125 -1.015625 -0.828125q-0.671875 -0.3125 -1.34375 -0.3125q-0.21875 0 -0.328125 -0.078125q-0.09375 -0.09375 -0.09375 -0.234375q0 -0.125 0.09375 -0.21875q0.09375 -0.09375 0.28125 -0.09375l0.53125 0.015625q0.828125 0 1.359375 -0.5q0.546875 -0.515625 0.546875 -1.171875q0 -0.6875 -0.578125 -1.21875q-0.5625 -0.53125 -1.46875 -0.53125q-0.640625 0 -1.171875 0.21875q-0.53125 0.21875 -0.859375 0.609375q-0.109375 0.140625 -0.171875 0.171875q-0.0625 0.03125 -0.140625 0.03125q-0.125 0 -0.21875 -0.078125q-0.078125 -0.09375 -0.078125 -0.203125q0 -0.296875 0.625 -0.75q0.890625 -0.609375 2.015625 -0.609375q1.171875 0 1.90625 0.703125q0.75 0.6875 0.75 1.65625q0 0.609375 -0.359375 1.171875q-0.359375 0.546875 -1.046875 0.875zm6.51709 2.78125l2.0 0l-2.171875 4.0468674q-0.203125 0.375 -0.484375 0.375q-0.171875 0 -0.3125 -0.140625q-0.125 -0.125 -0.125 -0.296875q0 -0.078125 0.03125 -0.171875l1.0625 -3.8124924zm10.532715 -7.09375l0 8.703125l2.109375 0q0.21875 0 0.3125 0.078125q0.09375 0.078125 0.09375 0.21875q0 0.140625 -0.09375 0.234375q-0.09375 0.078125 -0.3125 0.078125l-4.84375 0q-0.21875 0 -0.3125 -0.078125q-0.09375 -0.09375 -0.09375 -0.234375q0 -0.140625 0.09375 -0.21875q0.09375 -0.078125 0.3125 -0.078125l2.109375 0l0 -7.859375l-2.0 0.625q-0.15625 0.046875 -0.21875 0.046875q-0.109375 0 -0.203125 -0.078125q-0.09375 -0.09375 -0.09375 -0.21875q0 -0.109375 0.078125 -0.21875q0.0625 -0.046875 0.25 -0.125l2.8125 -0.875z" fill-rule="nonzero"/><path fill="#000000" d="m527.8934 122.12908q0.84375 0.375 1.28125 1.046875q0.453125 0.65625 0.453125 1.375q0 1.109375 -0.890625 1.953125q-0.890625 0.84375 -2.25 0.84375q-0.78125 0 -1.640625 -0.328125q-0.84375 -0.34375 -1.1875 -0.703125q-0.109375 -0.109375 -0.109375 -0.25q0 -0.109375 0.078125 -0.1875q0.09375 -0.09375 0.21875 -0.09375q0.109375 0 0.265625 0.109375q1.125 0.84375 2.390625 0.84375q1.078125 0 1.796875 -0.671875q0.71875 -0.671875 0.71875 -1.5q0 -0.546875 -0.359375 -1.0625q-0.34375 -0.53125 -1.015625 -0.828125q-0.671875 -0.3125 -1.34375 -0.3125q-0.21875 0 -0.328125 -0.078125q-0.09375 -0.09375 -0.09375 -0.234375q0 -0.125 0.09375 -0.21875q0.09375 -0.09375 0.28125 -0.09375l0.53125 0.015625q0.828125 0 1.359375 -0.5q0.546875 -0.515625 0.546875 -1.171875q0 -0.6875 -0.578125 -1.21875q-0.5625 -0.53125 -1.46875 -0.53125q-0.640625 0 -1.171875 0.21875q-0.53125 0.21875 -0.859375 0.609375q-0.109375 0.140625 -0.171875 0.171875q-0.0625 0.03125 -0.140625 0.03125q-0.125 0 -0.21875 -0.078125q-0.078125 -0.09375 -0.078125 -0.203125q0 -0.296875 0.625 -0.75q0.890625 -0.609375 2.015625 -0.609375q1.171875 0 1.90625 0.703125q0.75 0.6875 0.75 1.65625q0 0.609375 -0.359375 1.171875q-0.359375 0.546875 -1.046875 0.875zm6.51709 2.78125l2.0 0l-2.171875 4.0468674q-0.203125 0.375 -0.484375 0.375q-0.171875 0 -0.3125 -0.140625q-0.125 -0.125 -0.125 -0.296875q0 -0.078125 0.03125 -0.171875l1.0625 -3.8124924zm7.57959 1.609375l4.71875 0l0 -0.25q0 -0.21875 0.078125 -0.3125q0.09375 -0.09375 0.234375 -0.09375q0.140625 0 0.21875 0.09375q0.09375 0.09375 0.09375 0.3125l0 0.859375l-5.953125 0l0 -0.90625q1.875 -1.6875 3.65625 -3.4375q0.828125 -0.8125 1.125 -1.1875q0.3125 -0.375 0.421875 -0.65625q0.109375 -0.296875 0.109375 -0.59375q0 -0.796875 -0.640625 -1.40625q-0.625 -0.609375 -1.53125 -0.609375q-0.796875 0 -1.421875 0.46875q-0.625 0.46875 -0.8125 1.140625q-0.046875 0.171875 -0.109375 0.234375q-0.078125 0.0625 -0.203125 0.0625q-0.125 0 -0.21875 -0.078125q-0.078125 -0.078125 -0.078125 -0.203125q0 -0.34375 0.390625 -0.9375q0.390625 -0.609375 1.0625 -0.953125q0.671875 -0.34375 1.390625 -0.34375q1.140625 0 1.96875 0.796875q0.828125 0.796875 0.828125 1.8125q0 0.421875 -0.140625 0.78125q-0.125 0.34375 -0.46875 0.765625q-0.328125 0.421875 -1.1875 1.265625q-2.171875 2.140625 -3.53125 3.328125l0 0.046875z" fill-rule="nonzero"/><path fill="#000000" d="m576.35004 122.12908q0.84375 0.375 1.28125 1.046875q0.453125 0.65625 0.453125 1.375q0 1.109375 -0.890625 1.953125q-0.890625 0.84375 -2.25 0.84375q-0.78125 0 -1.640625 -0.328125q-0.84375 -0.34375 -1.1875 -0.703125q-0.109375 -0.109375 -0.109375 -0.25q0 -0.109375 0.078125 -0.1875q0.09375 -0.09375 0.21875 -0.09375q0.109375 0 0.265625 0.109375q1.125 0.84375 2.390625 0.84375q1.078125 0 1.796875 -0.671875q0.71875 -0.671875 0.71875 -1.5q0 -0.546875 -0.359375 -1.0625q-0.34375 -0.53125 -1.015625 -0.828125q-0.671875 -0.3125 -1.34375 -0.3125q-0.21875 0 -0.328125 -0.078125q-0.09375 -0.09375 -0.09375 -0.234375q0 -0.125 0.09375 -0.21875q0.09375 -0.09375 0.28125 -0.09375l0.53125 0.015625q0.828125 0 1.359375 -0.5q0.546875 -0.515625 0.546875 -1.171875q0 -0.6875 -0.578125 -1.21875q-0.5625 -0.53125 -1.46875 -0.53125q-0.640625 0 -1.171875 0.21875q-0.53125 0.21875 -0.859375 0.609375q-0.109375 0.140625 -0.171875 0.171875q-0.0625 0.03125 -0.140625 0.03125q-0.125 0 -0.21875 -0.078125q-0.078125 -0.09375 -0.078125 -0.203125q0 -0.296875 0.625 -0.75q0.890625 -0.609375 2.015625 -0.609375q1.171875 0 1.90625 0.703125q0.75 0.6875 0.75 1.65625q0 0.609375 -0.359375 1.171875q-0.359375 0.546875 -1.046875 0.875zm6.51709 2.78125l2.0 0l-2.171875 4.0468674q-0.203125 0.375 -0.484375 0.375q-0.171875 0 -0.3125 -0.140625q-0.125 -0.125 -0.125 -0.296875q0 -0.078125 0.03125 -0.171875l1.0625 -3.8124924zm11.48584 -2.78125q0.84375 0.375 1.28125 1.046875q0.453125 0.65625 0.453125 1.375q0 1.109375 -0.890625 1.953125q-0.890625 0.84375 -2.25 0.84375q-0.78125 0 -1.640625 -0.328125q-0.84375 -0.34375 -1.1875 -0.703125q-0.109375 -0.109375 -0.109375 -0.25q0 -0.109375 0.078125 -0.1875q0.09375 -0.09375 0.21875 -0.09375q0.109375 0 0.265625 0.109375q1.125 0.84375 2.390625 0.84375q1.078125 0 1.796875 -0.671875q0.71875 -0.671875 0.71875 -1.5q0 -0.546875 -0.359375 -1.0625q-0.34375 -0.53125 -1.015625 -0.828125q-0.671875 -0.3125 -1.34375 -0.3125q-0.21875 0 -0.328125 -0.078125q-0.09375 -0.09375 -0.09375 -0.234375q0 -0.125 0.09375 -0.21875q0.09375 -0.09375 0.28125 -0.09375l0.53125 0.015625q0.828125 0 1.359375 -0.5q0.546875 -0.515625 0.546875 -1.171875q0 -0.6875 -0.578125 -1.21875q-0.5625 -0.53125 -1.46875 -0.53125q-0.640625 0 -1.171875 0.21875q-0.53125 0.21875 -0.859375 0.609375q-0.109375 0.140625 -0.171875 0.171875q-0.0625 0.03125 -0.140625 0.03125q-0.125 0 -0.21875 -0.078125q-0.078125 -0.09375 -0.078125 -0.203125q0 -0.296875 0.625 -0.75q0.890625 -0.609375 2.015625 -0.609375q1.171875 0 1.90625 0.703125q0.75 0.6875 0.75 1.65625q0 0.609375 -0.359375 1.171875q-0.359375 0.546875 -1.046875 0.875z" fill-rule="nonzero"/><path fill="#000000" d="m427.0737 177.02103l4.71875 0l0 -0.25q0 -0.21875 0.078125 -0.3125q0.09375 -0.09375 0.234375 -0.09375q0.140625 0 0.21875 0.09375q0.09375 0.09375 0.09375 0.3125l0 0.859375l-5.953125 0l0 -0.90625q1.875 -1.6875 3.65625 -3.4375q0.828125 -0.8125 1.125 -1.1875q0.3125 -0.375 0.421875 -0.65625q0.109375 -0.296875 0.109375 -0.59375q0 -0.796875 -0.640625 -1.40625q-0.625 -0.609375 -1.53125 -0.609375q-0.796875 0 -1.421875 0.46875q-0.625 0.46875 -0.8125 1.140625q-0.046875 0.171875 -0.109375 0.234375q-0.078125 0.0625 -0.203125 0.0625q-0.125 0 -0.21875 -0.078125q-0.078125 -0.078125 -0.078125 -0.203125q0 -0.34375 0.390625 -0.9375q0.390625 -0.609375 1.0625 -0.953125q0.671875 -0.34375 1.390625 -0.34375q1.140625 0 1.96875 0.796875q0.828125 0.796875 0.828125 1.8125q0 0.421875 -0.140625 0.78125q-0.125 0.34375 -0.46875 0.765625q-0.328125 0.421875 -1.1875 1.265625q-2.171875 2.140625 -3.53125 3.328125l0 0.046875zm10.42334 -1.609375l2.0 0l-2.171875 4.0468597q-0.203125 0.375 -0.484375 0.375q-0.171875 0 -0.3125 -0.140625q-0.125 -0.125 -0.125 -0.296875q0 -0.078125 0.03125 -0.171875l1.0625 -3.8124847zm13.04834 -3.140625l0 1.53125q0 1.984375 -0.953125 3.140625q-0.734375 0.90625 -1.859375 0.90625q-0.546875 0 -1.03125 -0.21875q-0.46875 -0.21875 -0.8125 -0.59375q-0.203125 -0.25 -0.46875 -0.78125q-0.25 -0.53125 -0.359375 -0.984375q-0.171875 -0.625 -0.171875 -1.46875l0 -1.53125q0 -1.984375 0.953125 -3.140625q0.734375 -0.90625 1.859375 -0.90625q0.5625 0 1.03125 0.21875q0.46875 0.203125 0.8125 0.59375q0.21875 0.25 0.46875 0.796875q0.25 0.53125 0.359375 0.96875q0.171875 0.625 0.171875 1.46875zm-0.625 0.078125q0 -0.859375 -0.25 -1.609375q-0.234375 -0.75 -0.546875 -1.203125q-0.171875 -0.25 -0.46875 -0.4375q-0.421875 -0.265625 -0.9375 -0.265625q-1.03125 0 -1.625 1.0625q-0.578125 1.046875 -0.578125 2.453125l0 1.359375q0 0.875 0.234375 1.640625q0.25 0.75 0.5625 1.1875q0.1875 0.25 0.46875 0.4375q0.421875 0.265625 0.953125 0.265625q1.015625 0 1.59375 -1.0625q0.59375 -1.0625 0.59375 -2.46875l0 -1.359375z" fill-rule="nonzero"/><path fill="#000000" d="m475.5304 177.02103l4.71875 0l0 -0.25q0 -0.21875 0.078125 -0.3125q0.09375 -0.09375 0.234375 -0.09375q0.140625 0 0.21875 0.09375q0.09375 0.09375 0.09375 0.3125l0 0.859375l-5.953125 0l0 -0.90625q1.875 -1.6875 3.65625 -3.4375q0.828125 -0.8125 1.125 -1.1875q0.3125 -0.375 0.421875 -0.65625q0.109375 -0.296875 0.109375 -0.59375q0 -0.796875 -0.640625 -1.40625q-0.625 -0.609375 -1.53125 -0.609375q-0.796875 0 -1.421875 0.46875q-0.625 0.46875 -0.8125 1.140625q-0.046875 0.171875 -0.109375 0.234375q-0.078125 0.0625 -0.203125 0.0625q-0.125 0 -0.21875 -0.078125q-0.078125 -0.078125 -0.078125 -0.203125q0 -0.34375 0.390625 -0.9375q0.390625 -0.609375 1.0625 -0.953125q0.671875 -0.34375 1.390625 -0.34375q1.140625 0 1.96875 0.796875q0.828125 0.796875 0.828125 1.8125q0 0.421875 -0.140625 0.78125q-0.125 0.34375 -0.46875 0.765625q-0.328125 0.421875 -1.1875 1.265625q-2.171875 2.140625 -3.53125 3.328125l0 0.046875zm10.42334 -1.609375l2.0 0l-2.171875 4.0468597q-0.203125 0.375 -0.484375 0.375q-0.171875 0 -0.3125 -0.140625q-0.125 -0.125 -0.125 -0.296875q0 -0.078125 0.03125 -0.171875l1.0625 -3.8124847zm10.532715 -7.09375l0 8.703125l2.109375 0q0.21875 0 0.3125 0.078125q0.09375 0.078125 0.09375 0.21875q0 0.140625 -0.09375 0.234375q-0.09375 0.078125 -0.3125 0.078125l-4.84375 0q-0.21875 0 -0.3125 -0.078125q-0.09375 -0.09375 -0.09375 -0.234375q0 -0.140625 0.09375 -0.21875q0.09375 -0.078125 0.3125 -0.078125l2.109375 0l0 -7.859375l-2.0 0.625q-0.15625 0.046875 -0.21875 0.046875q-0.109375 0 -0.203125 -0.078125q-0.09375 -0.09375 -0.09375 -0.21875q0 -0.109375 0.078125 -0.21875q0.0625 -0.046875 0.25 -0.125l2.8125 -0.875z" fill-rule="nonzero"/><path fill="#000000" d="m523.9871 177.02103l4.71875 0l0 -0.25q0 -0.21875 0.078125 -0.3125q0.09375 -0.09375 0.234375 -0.09375q0.140625 0 0.21875 0.09375q0.09375 0.09375 0.09375 0.3125l0 0.859375l-5.953125 0l0 -0.90625q1.875 -1.6875 3.65625 -3.4375q0.828125 -0.8125 1.125 -1.1875q0.3125 -0.375 0.421875 -0.65625q0.109375 -0.296875 0.109375 -0.59375q0 -0.796875 -0.640625 -1.40625q-0.625 -0.609375 -1.53125 -0.609375q-0.796875 0 -1.421875 0.46875q-0.625 0.46875 -0.8125 1.140625q-0.046875 0.171875 -0.109375 0.234375q-0.078125 0.0625 -0.203125 0.0625q-0.125 0 -0.21875 -0.078125q-0.078125 -0.078125 -0.078125 -0.203125q0 -0.34375 0.390625 -0.9375q0.390625 -0.609375 1.0625 -0.953125q0.671875 -0.34375 1.390625 -0.34375q1.140625 0 1.96875 0.796875q0.828125 0.796875 0.828125 1.8125q0 0.421875 -0.140625 0.78125q-0.125 0.34375 -0.46875 0.765625q-0.328125 0.421875 -1.1875 1.265625q-2.171875 2.140625 -3.53125 3.328125l0 0.046875zm10.42334 -1.609375l2.0 0l-2.171875 4.0468597q-0.203125 0.375 -0.484375 0.375q-0.171875 0 -0.3125 -0.140625q-0.125 -0.125 -0.125 -0.296875q0 -0.078125 0.03125 -0.171875l1.0625 -3.8124847zm7.57959 1.609375l4.71875 0l0 -0.25q0 -0.21875 0.078125 -0.3125q0.09375 -0.09375 0.234375 -0.09375q0.140625 0 0.21875 0.09375q0.09375 0.09375 0.09375 0.3125l0 0.859375l-5.953125 0l0 -0.90625q1.875 -1.6875 3.65625 -3.4375q0.828125 -0.8125 1.125 -1.1875q0.3125 -0.375 0.421875 -0.65625q0.109375 -0.296875 0.109375 -0.59375q0 -0.796875 -0.640625 -1.40625q-0.625 -0.609375 -1.53125 -0.609375q-0.796875 0 -1.421875 0.46875q-0.625 0.46875 -0.8125 1.140625q-0.046875 0.171875 -0.109375 0.234375q-0.078125 0.0625 -0.203125 0.0625q-0.125 0 -0.21875 -0.078125q-0.078125 -0.078125 -0.078125 -0.203125q0 -0.34375 0.390625 -0.9375q0.390625 -0.609375 1.0625 -0.953125q0.671875 -0.34375 1.390625 -0.34375q1.140625 0 1.96875 0.796875q0.828125 0.796875 0.828125 1.8125q0 0.421875 -0.140625 0.78125q-0.125 0.34375 -0.46875 0.765625q-0.328125 0.421875 -1.1875 1.265625q-2.171875 2.140625 -3.53125 3.328125l0 0.046875z" fill-rule="nonzero"/><path fill="#000000" d="m572.4438 177.02103l4.71875 0l0 -0.25q0 -0.21875 0.078125 -0.3125q0.09375 -0.09375 0.234375 -0.09375q0.140625 0 0.21875 0.09375q0.09375 0.09375 0.09375 0.3125l0 0.859375l-5.953125 0l0 -0.90625q1.875 -1.6875 3.65625 -3.4375q0.828125 -0.8125 1.125 -1.1875q0.3125 -0.375 0.421875 -0.65625q0.109375 -0.296875 0.109375 -0.59375q0 -0.796875 -0.640625 -1.40625q-0.625 -0.609375 -1.53125 -0.609375q-0.796875 0 -1.421875 0.46875q-0.625 0.46875 -0.8125 1.140625q-0.046875 0.171875 -0.109375 0.234375q-0.078125 0.0625 -0.203125 0.0625q-0.125 0 -0.21875 -0.078125q-0.078125 -0.078125 -0.078125 -0.203125q0 -0.34375 0.390625 -0.9375q0.390625 -0.609375 1.0625 -0.953125q0.671875 -0.34375 1.390625 -0.34375q1.140625 0 1.96875 0.796875q0.828125 0.796875 0.828125 1.8125q0 0.421875 -0.140625 0.78125q-0.125 0.34375 -0.46875 0.765625q-0.328125 0.421875 -1.1875 1.265625q-2.171875 2.140625 -3.53125 3.328125l0 0.046875zm10.42334 -1.609375l2.0 0l-2.171875 4.0468597q-0.203125 0.375 -0.484375 0.375q-0.171875 0 -0.3125 -0.140625q-0.125 -0.125 -0.125 -0.296875q0 -0.078125 0.03125 -0.171875l1.0625 -3.8124847zm11.48584 -2.78125q0.84375 0.375 1.28125 1.046875q0.453125 0.65625 0.453125 1.375q0 1.109375 -0.890625 1.953125q-0.890625 0.84375 -2.25 0.84375q-0.78125 0 -1.640625 -0.328125q-0.84375 -0.34375 -1.1875 -0.703125q-0.109375 -0.109375 -0.109375 -0.25q0 -0.109375 0.078125 -0.1875q0.09375 -0.09375 0.21875 -0.09375q0.109375 0 0.265625 0.109375q1.125 0.84375 2.390625 0.84375q1.078125 0 1.796875 -0.671875q0.71875 -0.671875 0.71875 -1.5q0 -0.546875 -0.359375 -1.0625q-0.34375 -0.53125 -1.015625 -0.828125q-0.671875 -0.3125 -1.34375 -0.3125q-0.21875 0 -0.328125 -0.078125q-0.09375 -0.09375 -0.09375 -0.234375q0 -0.125 0.09375 -0.21875q0.09375 -0.09375 0.28125 -0.09375l0.53125 0.015625q0.828125 0 1.359375 -0.5q0.546875 -0.515625 0.546875 -1.171875q0 -0.6875 -0.578125 -1.21875q-0.5625 -0.53125 -1.46875 -0.53125q-0.640625 0 -1.171875 0.21875q-0.53125 0.21875 -0.859375 0.609375q-0.109375 0.140625 -0.171875 0.171875q-0.0625 0.03125 -0.140625 0.03125q-0.125 0 -0.21875 -0.078125q-0.078125 -0.09375 -0.078125 -0.203125q0 -0.296875 0.625 -0.75q0.890625 -0.609375 2.015625 -0.609375q1.171875 0 1.90625 0.703125q0.75 0.6875 0.75 1.65625q0 0.609375 -0.359375 1.171875q-0.359375 0.546875 -1.046875 0.875z" fill-rule="nonzero"/><path fill="#000000" d="m430.02682 218.81921l0 8.703125l2.109375 0q0.21875 0 0.3125 0.078125q0.09375 0.078125 0.09375 0.21875q0 0.140625 -0.09375 0.234375q-0.09375 0.078125 -0.3125 0.078125l-4.84375 0q-0.21875 0 -0.3125 -0.078125q-0.09375 -0.09375 -0.09375 -0.234375q0 -0.140625 0.09375 -0.21875q0.09375 -0.078125 0.3125 -0.078125l2.109375 0l0 -7.859375l-2.0 0.625q-0.15625 0.046875 -0.21875 0.046875q-0.109375 0 -0.203125 -0.078125q-0.09375 -0.09375 -0.09375 -0.21875q0 -0.109375 0.078125 -0.21875q0.0625 -0.046875 0.25 -0.125l2.8125 -0.875zm7.470215 7.09375l2.0 0l-2.171875 4.0468597q-0.203125 0.375 -0.484375 0.375q-0.171875 0 -0.3125 -0.140625q-0.125 -0.125 -0.125 -0.296875q0 -0.078125 0.03125 -0.171875l1.0625 -3.8124847zm13.04834 -3.140625l0 1.53125q0 1.984375 -0.953125 3.140625q-0.734375 0.90625 -1.859375 0.90625q-0.546875 0 -1.03125 -0.21875q-0.46875 -0.21875 -0.8125 -0.59375q-0.203125 -0.25 -0.46875 -0.78125q-0.25 -0.53125 -0.359375 -0.984375q-0.171875 -0.625 -0.171875 -1.46875l0 -1.53125q0 -1.984375 0.953125 -3.140625q0.734375 -0.90625 1.859375 -0.90625q0.5625 0 1.03125 0.21875q0.46875 0.203125 0.8125 0.59375q0.21875 0.25 0.46875 0.796875q0.25 0.53125 0.359375 0.96875q0.171875 0.625 0.171875 1.46875zm-0.625 0.078125q0 -0.859375 -0.25 -1.609375q-0.234375 -0.75 -0.546875 -1.203125q-0.171875 -0.25 -0.46875 -0.4375q-0.421875 -0.265625 -0.9375 -0.265625q-1.03125 0 -1.625 1.0625q-0.578125 1.046875 -0.578125 2.453125l0 1.359375q0 0.875 0.234375 1.640625q0.25 0.75 0.5625 1.1875q0.1875 0.25 0.46875 0.4375q0.421875 0.265625 0.953125 0.265625q1.015625 0 1.59375 -1.0625q0.59375 -1.0625 0.59375 -2.46875l0 -1.359375z" fill-rule="nonzero"/><path fill="#000000" d="m478.48352 218.81921l0 8.703125l2.109375 0q0.21875 0 0.3125 0.078125q0.09375 0.078125 0.09375 0.21875q0 0.140625 -0.09375 0.234375q-0.09375 0.078125 -0.3125 0.078125l-4.84375 0q-0.21875 0 -0.3125 -0.078125q-0.09375 -0.09375 -0.09375 -0.234375q0 -0.140625 0.09375 -0.21875q0.09375 -0.078125 0.3125 -0.078125l2.109375 0l0 -7.859375l-2.0 0.625q-0.15625 0.046875 -0.21875 0.046875q-0.109375 0 -0.203125 -0.078125q-0.09375 -0.09375 -0.09375 -0.21875q0 -0.109375 0.078125 -0.21875q0.0625 -0.046875 0.25 -0.125l2.8125 -0.875zm7.470215 7.09375l2.0 0l-2.171875 4.0468597q-0.203125 0.375 -0.484375 0.375q-0.171875 0 -0.3125 -0.140625q-0.125 -0.125 -0.125 -0.296875q0 -0.078125 0.03125 -0.171875l1.0625 -3.8124847zm10.532715 -7.09375l0 8.703125l2.109375 0q0.21875 0 0.3125 0.078125q0.09375 0.078125 0.09375 0.21875q0 0.140625 -0.09375 0.234375q-0.09375 0.078125 -0.3125 0.078125l-4.84375 0q-0.21875 0 -0.3125 -0.078125q-0.09375 -0.09375 -0.09375 -0.234375q0 -0.140625 0.09375 -0.21875q0.09375 -0.078125 0.3125 -0.078125l2.109375 0l0 -7.859375l-2.0 0.625q-0.15625 0.046875 -0.21875 0.046875q-0.109375 0 -0.203125 -0.078125q-0.09375 -0.09375 -0.09375 -0.21875q0 -0.109375 0.078125 -0.21875q0.0625 -0.046875 0.25 -0.125l2.8125 -0.875z" fill-rule="nonzero"/><path fill="#000000" d="m526.94025 218.81921l0 8.703125l2.109375 0q0.21875 0 0.3125 0.078125q0.09375 0.078125 0.09375 0.21875q0 0.140625 -0.09375 0.234375q-0.09375 0.078125 -0.3125 0.078125l-4.84375 0q-0.21875 0 -0.3125 -0.078125q-0.09375 -0.09375 -0.09375 -0.234375q0 -0.140625 0.09375 -0.21875q0.09375 -0.078125 0.3125 -0.078125l2.109375 0l0 -7.859375l-2.0 0.625q-0.15625 0.046875 -0.21875 0.046875q-0.109375 0 -0.203125 -0.078125q-0.09375 -0.09375 -0.09375 -0.21875q0 -0.109375 0.078125 -0.21875q0.0625 -0.046875 0.25 -0.125l2.8125 -0.875zm7.470215 7.09375l2.0 0l-2.171875 4.0468597q-0.203125 0.375 -0.484375 0.375q-0.171875 0 -0.3125 -0.140625q-0.125 -0.125 -0.125 -0.296875q0 -0.078125 0.03125 -0.171875l1.0625 -3.8124847zm7.57959 1.609375l4.71875 0l0 -0.25q0 -0.21875 0.078125 -0.3125q0.09375 -0.09375 0.234375 -0.09375q0.140625 0 0.21875 0.09375q0.09375 0.09375 0.09375 0.3125l0 0.859375l-5.953125 0l0 -0.90625q1.875 -1.6875 3.65625 -3.4375q0.828125 -0.8125 1.125 -1.1875q0.3125 -0.375 0.421875 -0.65625q0.109375 -0.296875 0.109375 -0.59375q0 -0.796875 -0.640625 -1.40625q-0.625 -0.609375 -1.53125 -0.609375q-0.796875 0 -1.421875 0.46875q-0.625 0.46875 -0.8125 1.140625q-0.046875 0.171875 -0.109375 0.234375q-0.078125 0.0625 -0.203125 0.0625q-0.125 0 -0.21875 -0.078125q-0.078125 -0.078125 -0.078125 -0.203125q0 -0.34375 0.390625 -0.9375q0.390625 -0.609375 1.0625 -0.953125q0.671875 -0.34375 1.390625 -0.34375q1.140625 0 1.96875 0.796875q0.828125 0.796875 0.828125 1.8125q0 0.421875 -0.140625 0.78125q-0.125 0.34375 -0.46875 0.765625q-0.328125 0.421875 -1.1875 1.265625q-2.171875 2.140625 -3.53125 3.328125l0 0.046875z" fill-rule="nonzero"/><path fill="#000000" d="m575.3969 218.81921l0 8.703125l2.109375 0q0.21875 0 0.3125 0.078125q0.09375 0.078125 0.09375 0.21875q0 0.140625 -0.09375 0.234375q-0.09375 0.078125 -0.3125 0.078125l-4.84375 0q-0.21875 0 -0.3125 -0.078125q-0.09375 -0.09375 -0.09375 -0.234375q0 -0.140625 0.09375 -0.21875q0.09375 -0.078125 0.3125 -0.078125l2.109375 0l0 -7.859375l-2.0 0.625q-0.15625 0.046875 -0.21875 0.046875q-0.109375 0 -0.203125 -0.078125q-0.09375 -0.09375 -0.09375 -0.21875q0 -0.109375 0.078125 -0.21875q0.0625 -0.046875 0.25 -0.125l2.8125 -0.875zm7.470215 7.09375l2.0 0l-2.171875 4.0468597q-0.203125 0.375 -0.484375 0.375q-0.171875 0 -0.3125 -0.140625q-0.125 -0.125 -0.125 -0.296875q0 -0.078125 0.03125 -0.171875l1.0625 -3.8124847zm11.48584 -2.78125q0.84375 0.375 1.28125 1.046875q0.453125 0.65625 0.453125 1.375q0 1.109375 -0.890625 1.953125q-0.890625 0.84375 -2.25 0.84375q-0.78125 0 -1.640625 -0.328125q-0.84375 -0.34375 -1.1875 -0.703125q-0.109375 -0.109375 -0.109375 -0.25q0 -0.109375 0.078125 -0.1875q0.09375 -0.09375 0.21875 -0.09375q0.109375 0 0.265625 0.109375q1.125 0.84375 2.390625 0.84375q1.078125 0 1.796875 -0.671875q0.71875 -0.671875 0.71875 -1.5q0 -0.546875 -0.359375 -1.0625q-0.34375 -0.53125 -1.015625 -0.828125q-0.671875 -0.3125 -1.34375 -0.3125q-0.21875 0 -0.328125 -0.078125q-0.09375 -0.09375 -0.09375 -0.234375q0 -0.125 0.09375 -0.21875q0.09375 -0.09375 0.28125 -0.09375l0.53125 0.015625q0.828125 0 1.359375 -0.5q0.546875 -0.515625 0.546875 -1.171875q0 -0.6875 -0.578125 -1.21875q-0.5625 -0.53125 -1.46875 -0.53125q-0.640625 0 -1.171875 0.21875q-0.53125 0.21875 -0.859375 0.609375q-0.109375 0.140625 -0.171875 0.171875q-0.0625 0.03125 -0.140625 0.03125q-0.125 0 -0.21875 -0.078125q-0.078125 -0.09375 -0.078125 -0.203125q0 -0.296875 0.625 -0.75q0.890625 -0.609375 2.015625 -0.609375q1.171875 0 1.90625 0.703125q0.75 0.6875 0.75 1.65625q0 0.609375 -0.359375 1.171875q-0.359375 0.546875 -1.046875 0.875z" fill-rule="nonzero"/><path fill="#000000" d="m432.54245 273.27365l0 1.53125q0 1.984375 -0.953125 3.140625q-0.734375 0.90625 -1.859375 0.90625q-0.546875 0 -1.03125 -0.21875q-0.46875 -0.21875 -0.8125 -0.59375q-0.203125 -0.25 -0.46875 -0.78125q-0.25 -0.53125 -0.359375 -0.984375q-0.171875 -0.625 -0.171875 -1.46875l0 -1.53125q0 -1.984375 0.953125 -3.140625q0.734375 -0.90625 1.859375 -0.90625q0.5625 0 1.03125 0.21875q0.46875 0.203125 0.8125 0.59375q0.21875 0.25 0.46875 0.796875q0.25 0.53125 0.359375 0.96875q0.171875 0.625 0.171875 1.46875zm-0.625 0.078125q0 -0.859375 -0.25 -1.609375q-0.234375 -0.75 -0.546875 -1.203125q-0.171875 -0.25 -0.46875 -0.4375q-0.421875 -0.265625 -0.9375 -0.265625q-1.03125 0 -1.625 1.0625q-0.578125 1.046875 -0.578125 2.453125l0 1.359375q0 0.875 0.234375 1.640625q0.25 0.75 0.5625 1.1875q0.1875 0.25 0.46875 0.4375q0.421875 0.265625 0.953125 0.265625q1.015625 0 1.59375 -1.0625q0.59375 -1.0625 0.59375 -2.46875l0 -1.359375zm5.57959 3.0625l2.0 0l-2.171875 4.046875q-0.203125 0.375 -0.484375 0.375q-0.171875 0 -0.3125 -0.140625q-0.125 -0.125 -0.125 -0.296875q0 -0.078125 0.03125 -0.171875l1.0625 -3.8125zm13.04834 -3.140625l0 1.53125q0 1.984375 -0.953125 3.140625q-0.734375 0.90625 -1.859375 0.90625q-0.546875 0 -1.03125 -0.21875q-0.46875 -0.21875 -0.8125 -0.59375q-0.203125 -0.25 -0.46875 -0.78125q-0.25 -0.53125 -0.359375 -0.984375q-0.171875 -0.625 -0.171875 -1.46875l0 -1.53125q0 -1.984375 0.953125 -3.140625q0.734375 -0.90625 1.859375 -0.90625q0.5625 0 1.03125 0.21875q0.46875 0.203125 0.8125 0.59375q0.21875 0.25 0.46875 0.796875q0.25 0.53125 0.359375 0.96875q0.171875 0.625 0.171875 1.46875zm-0.625 0.078125q0 -0.859375 -0.25 -1.609375q-0.234375 -0.75 -0.546875 -1.203125q-0.171875 -0.25 -0.46875 -0.4375q-0.421875 -0.265625 -0.9375 -0.265625q-1.03125 0 -1.625 1.0625q-0.578125 1.046875 -0.578125 2.453125l0 1.359375q0 0.875 0.234375 1.640625q0.25 0.75 0.5625 1.1875q0.1875 0.25 0.46875 0.4375q0.421875 0.265625 0.953125 0.265625q1.015625 0 1.59375 -1.0625q0.59375 -1.0625 0.59375 -2.46875l0 -1.359375z" fill-rule="nonzero"/><path fill="#000000" d="m480.99915 273.27365l0 1.53125q0 1.984375 -0.953125 3.140625q-0.734375 0.90625 -1.859375 0.90625q-0.546875 0 -1.03125 -0.21875q-0.46875 -0.21875 -0.8125 -0.59375q-0.203125 -0.25 -0.46875 -0.78125q-0.25 -0.53125 -0.359375 -0.984375q-0.171875 -0.625 -0.171875 -1.46875l0 -1.53125q0 -1.984375 0.953125 -3.140625q0.734375 -0.90625 1.859375 -0.90625q0.5625 0 1.03125 0.21875q0.46875 0.203125 0.8125 0.59375q0.21875 0.25 0.46875 0.796875q0.25 0.53125 0.359375 0.96875q0.171875 0.625 0.171875 1.46875zm-0.625 0.078125q0 -0.859375 -0.25 -1.609375q-0.234375 -0.75 -0.546875 -1.203125q-0.171875 -0.25 -0.46875 -0.4375q-0.421875 -0.265625 -0.9375 -0.265625q-1.03125 0 -1.625 1.0625q-0.578125 1.046875 -0.578125 2.453125l0 1.359375q0 0.875 0.234375 1.640625q0.25 0.75 0.5625 1.1875q0.1875 0.25 0.46875 0.4375q0.421875 0.265625 0.953125 0.265625q1.015625 0 1.59375 -1.0625q0.59375 -1.0625 0.59375 -2.46875l0 -1.359375zm5.57959 3.0625l2.0 0l-2.171875 4.046875q-0.203125 0.375 -0.484375 0.375q-0.171875 0 -0.3125 -0.140625q-0.125 -0.125 -0.125 -0.296875q0 -0.078125 0.03125 -0.171875l1.0625 -3.8125zm10.532715 -7.09375l0 8.703125l2.109375 0q0.21875 0 0.3125 0.078125q0.09375 0.078125 0.09375 0.21875q0 0.140625 -0.09375 0.234375q-0.09375 0.078125 -0.3125 0.078125l-4.84375 0q-0.21875 0 -0.3125 -0.078125q-0.09375 -0.09375 -0.09375 -0.234375q0 -0.140625 0.09375 -0.21875q0.09375 -0.078125 0.3125 -0.078125l2.109375 0l0 -7.859375l-2.0 0.625q-0.15625 0.046875 -0.21875 0.046875q-0.109375 0 -0.203125 -0.078125q-0.09375 -0.09375 -0.09375 -0.21875q0 -0.109375 0.078125 -0.21875q0.0625 -0.046875 0.25 -0.125l2.8125 -0.875z" fill-rule="nonzero"/><path fill="#000000" d="m529.4559 273.27365l0 1.53125q0 1.984375 -0.953125 3.140625q-0.734375 0.90625 -1.859375 0.90625q-0.546875 0 -1.03125 -0.21875q-0.46875 -0.21875 -0.8125 -0.59375q-0.203125 -0.25 -0.46875 -0.78125q-0.25 -0.53125 -0.359375 -0.984375q-0.171875 -0.625 -0.171875 -1.46875l0 -1.53125q0 -1.984375 0.953125 -3.140625q0.734375 -0.90625 1.859375 -0.90625q0.5625 0 1.03125 0.21875q0.46875 0.203125 0.8125 0.59375q0.21875 0.25 0.46875 0.796875q0.25 0.53125 0.359375 0.96875q0.171875 0.625 0.171875 1.46875zm-0.625 0.078125q0 -0.859375 -0.25 -1.609375q-0.234375 -0.75 -0.546875 -1.203125q-0.171875 -0.25 -0.46875 -0.4375q-0.421875 -0.265625 -0.9375 -0.265625q-1.03125 0 -1.625 1.0625q-0.578125 1.046875 -0.578125 2.453125l0 1.359375q0 0.875 0.234375 1.640625q0.25 0.75 0.5625 1.1875q0.1875 0.25 0.46875 0.4375q0.421875 0.265625 0.953125 0.265625q1.015625 0 1.59375 -1.0625q0.59375 -1.0625 0.59375 -2.46875l0 -1.359375zm5.57959 3.0625l2.0 0l-2.171875 4.046875q-0.203125 0.375 -0.484375 0.375q-0.171875 0 -0.3125 -0.140625q-0.125 -0.125 -0.125 -0.296875q0 -0.078125 0.03125 -0.171875l1.0625 -3.8125zm7.57959 1.609375l4.71875 0l0 -0.25q0 -0.21875 0.078125 -0.3125q0.09375 -0.09375 0.234375 -0.09375q0.140625 0 0.21875 0.09375q0.09375 0.09375 0.09375 0.3125l0 0.859375l-5.953125 0l0 -0.90625q1.875 -1.6875 3.65625 -3.4375q0.828125 -0.8125 1.125 -1.1875q0.3125 -0.375 0.421875 -0.65625q0.109375 -0.296875 0.109375 -0.59375q0 -0.796875 -0.640625 -1.40625q-0.625 -0.609375 -1.53125 -0.609375q-0.796875 0 -1.421875 0.46875q-0.625 0.46875 -0.8125 1.140625q-0.046875 0.171875 -0.109375 0.234375q-0.078125 0.0625 -0.203125 0.0625q-0.125 0 -0.21875 -0.078125q-0.078125 -0.078125 -0.078125 -0.203125q0 -0.34375 0.390625 -0.9375q0.390625 -0.609375 1.0625 -0.953125q0.671875 -0.34375 1.390625 -0.34375q1.140625 0 1.96875 0.796875q0.828125 0.796875 0.828125 1.8125q0 0.421875 -0.140625 0.78125q-0.125 0.34375 -0.46875 0.765625q-0.328125 0.421875 -1.1875 1.265625q-2.171875 2.140625 -3.53125 3.328125l0 0.046875z" fill-rule="nonzero"/><path fill="#000000" d="m577.91254 273.27365l0 1.53125q0 1.984375 -0.953125 3.140625q-0.734375 0.90625 -1.859375 0.90625q-0.546875 0 -1.03125 -0.21875q-0.46875 -0.21875 -0.8125 -0.59375q-0.203125 -0.25 -0.46875 -0.78125q-0.25 -0.53125 -0.359375 -0.984375q-0.171875 -0.625 -0.171875 -1.46875l0 -1.53125q0 -1.984375 0.953125 -3.140625q0.734375 -0.90625 1.859375 -0.90625q0.5625 0 1.03125 0.21875q0.46875 0.203125 0.8125 0.59375q0.21875 0.25 0.46875 0.796875q0.25 0.53125 0.359375 0.96875q0.171875 0.625 0.171875 1.46875zm-0.625 0.078125q0 -0.859375 -0.25 -1.609375q-0.234375 -0.75 -0.546875 -1.203125q-0.171875 -0.25 -0.46875 -0.4375q-0.421875 -0.265625 -0.9375 -0.265625q-1.03125 0 -1.625 1.0625q-0.578125 1.046875 -0.578125 2.453125l0 1.359375q0 0.875 0.234375 1.640625q0.25 0.75 0.5625 1.1875q0.1875 0.25 0.46875 0.4375q0.421875 0.265625 0.953125 0.265625q1.015625 0 1.59375 -1.0625q0.59375 -1.0625 0.59375 -2.46875l0 -1.359375zm5.57959 3.0625l2.0 0l-2.171875 4.046875q-0.203125 0.375 -0.484375 0.375q-0.171875 0 -0.3125 -0.140625q-0.125 -0.125 -0.125 -0.296875q0 -0.078125 0.03125 -0.171875l1.0625 -3.8125zm11.48584 -2.78125q0.84375 0.375 1.28125 1.046875q0.453125 0.65625 0.453125 1.375q0 1.109375 -0.890625 1.953125q-0.890625 0.84375 -2.25 0.84375q-0.78125 0 -1.640625 -0.328125q-0.84375 -0.34375 -1.1875 -0.703125q-0.109375 -0.109375 -0.109375 -0.25q0 -0.109375 0.078125 -0.1875q0.09375 -0.09375 0.21875 -0.09375q0.109375 0 0.265625 0.109375q1.125 0.84375 2.390625 0.84375q1.078125 0 1.796875 -0.671875q0.71875 -0.671875 0.71875 -1.5q0 -0.546875 -0.359375 -1.0625q-0.34375 -0.53125 -1.015625 -0.828125q-0.671875 -0.3125 -1.34375 -0.3125q-0.21875 0 -0.328125 -0.078125q-0.09375 -0.09375 -0.09375 -0.234375q0 -0.125 0.09375 -0.21875q0.09375 -0.09375 0.28125 -0.09375l0.53125 0.015625q0.828125 0 1.359375 -0.5q0.546875 -0.515625 0.546875 -1.171875q0 -0.6875 -0.578125 -1.21875q-0.5625 -0.53125 -1.46875 -0.53125q-0.640625 0 -1.171875 0.21875q-0.53125 0.21875 -0.859375 0.609375q-0.109375 0.140625 -0.171875 0.171875q-0.0625 0.03125 -0.140625 0.03125q-0.125 0 -0.21875 -0.078125q-0.078125 -0.09375 -0.078125 -0.203125q0 -0.296875 0.625 -0.75q0.890625 -0.609375 2.015625 -0.609375q1.171875 0 1.90625 0.703125q0.75 0.6875 0.75 1.65625q0 0.609375 -0.359375 1.171875q-0.359375 0.546875 -1.046875 0.875z" fill-rule="nonzero"/><path fill="#000000" fill-opacity="0.0" d="m453.3701 46.83727l127.055084 0l0 48.125988l-127.055084 0z" fill-rule="evenodd"/><path fill="#a4c2f4" d="m468.09567 60.491642l0 1.46875l3.109375 0l0 10.343754l-3.109375 0l0 1.453125l8.015625 0l0 -1.453125l-3.171875 0l0 -10.343754l3.171875 0l0 -1.46875l-8.015625 0zm11.195587 13.265629l1.6875 0l0 -7.0625q0.171875 -0.328125 0.40625 -0.59375q0.234375 -0.265625 0.515625 -0.453125q0.328125 -0.234375 0.71875 -0.359375q0.40625 -0.140625 0.875 -0.140625q0.546875 0 0.953125 0.125q0.421875 0.125 0.703125 0.40625q0.28125 0.296875 0.421875 0.75q0.15625 0.453125 0.15625 1.109375l0 6.21875l1.6875 0l0 -6.265625q0 -0.96875 -0.25 -1.6875q-0.234375 -0.71875 -0.6875 -1.1875q-0.4375 -0.453125 -1.078125 -0.6718788q-0.625 -0.21875 -1.40625 -0.21875q-0.5625 0 -1.078125 0.171875q-0.515625 0.15625381 -0.953125 0.4375038q-0.296875 0.1875 -0.5625 0.453125q-0.25 0.265625 -0.46875 0.5625l-0.125 -1.4531288l-1.515625 0l0 9.859379zm10.883057 -5.015625l0 0.203125q0 1.046875 0.28125 1.96875q0.28125 0.90625 0.796875 1.59375q0.5 0.671875 1.21875 1.0625q0.734375 0.375 1.625 0.375q0.921875 0 1.59375 -0.3125q0.6875 -0.3125 1.1875 -0.90625l0.0625 1.03125l1.546875 0l0 -14.000004l-1.6875 0l0 5.125004q-0.46875 -0.578125 -1.140625 -0.859375q-0.65625 -0.2968788 -1.546875 -0.2968788q-0.890625 0 -1.625 0.3750038q-0.734375 0.359375 -1.234375 1.03125q-0.515625 0.65625 -0.796875 1.59375q-0.28125 0.921875 -0.28125 2.015625zm1.6875 0.203125l0 -0.203125q0 -0.71875 0.15625 -1.359375q0.15625 -0.65625 0.484375 -1.15625q0.3125 -0.5 0.8125 -0.78125q0.515625 -0.296875 1.21875 -0.296875q0.828125 0 1.375 0.390625q0.5625 0.390625 0.890625 0.984375l0 4.578125q-0.328125 0.640625 -0.890625 1.03125q-0.546875 0.375 -1.390625 0.375q-0.703125 0 -1.203125 -0.28125q-0.5 -0.296875 -0.8125 -0.78125q-0.328125 -0.5 -0.484375 -1.140625q-0.15625 -0.640625 -0.15625 -1.359375zm14.179962 5.0q1.4375 0 2.421875 -0.578125q0.984375 -0.578125 1.46875 -1.328125l-1.03125 -0.796875q-0.46875 0.59375 -1.171875 0.96875q-0.6875 0.359375 -1.59375 0.359375q-0.6875 0 -1.25 -0.25q-0.5625 -0.265625 -0.96875 -0.71875q-0.390625 -0.40625 -0.609375 -0.953125q-0.21875 -0.546875 -0.28125 -1.265625l0 -0.078125l7.03125 0l0 -0.75q0 -1.03125 -0.265625 -1.90625q-0.25 -0.890625 -0.78125 -1.546875q-0.53125 -0.640625 -1.328125 -1.0q-0.796875 -0.3750038 -1.859375 -0.3750038q-0.84375 0 -1.65625 0.3437538q-0.796875 0.34375 -1.4375 0.984375q-0.625 0.65625 -1.015625 1.609375q-0.375 0.9375 -0.375 2.125l0 0.390625q0 1.03125 0.34375 1.90625q0.34375 0.875 0.96875 1.5q0.609375 0.640625 1.484375 1.0q0.875 0.359375 1.90625 0.359375zm-0.21875 -8.84375q0.65625 0 1.125 0.234375q0.46875 0.234375 0.765625 0.625q0.3125 0.375 0.484375 0.90625q0.171875 0.515625 0.171875 0.984375l0 0.078125l-5.296875 0q0.09375 -0.6875 0.34375 -1.203125q0.265625 -0.53125 0.625 -0.890625q0.359375 -0.359375 0.8125 -0.546875q0.453125 -0.1875 0.96875 -0.1875zm11.133087 2.453125l-2.609375 -3.6562538l-1.9375 0l3.65625 4.875004l-3.765625 4.984375l1.96875 0l2.71875 -3.75l2.734375 3.75l1.9375 0l-3.765625 -4.984375l3.671875 -4.875004l-1.96875 0l-2.640625 3.6562538zm15.711182 4.46875l-0.03125 -4.875l-4.296875 0l0 1.421875l2.6875 0l-0.015625 2.984375q-0.203125 0.296875 -0.515625 0.484375q-0.3125 0.1875 -0.671875 0.296875q-0.34375 0.109375 -0.734375 0.15625q-0.375 0.03125 -0.71875 0.015625q-0.59375 0 -1.078125 -0.203125q-0.46875 -0.21875 -0.828125 -0.5625q-0.359375 -0.34375 -0.625 -0.796875q-0.25 -0.453125 -0.40625 -0.96875q-0.171875 -0.515625 -0.25 -1.046875q-0.078125 -0.53125 -0.078125 -1.03125l0 -1.5625q0 -0.484375 0.0625 -1.015625q0.0625 -0.53125 0.203125 -1.03125q0.15625 -0.5156288 0.375 -0.9687538q0.234375 -0.46875 0.578125 -0.8125q0.34375 -0.34375 0.796875 -0.546875q0.46875 -0.203125 1.078125 -0.203125q0.625 0 1.09375 0.203125q0.484375 0.1875 0.828125 0.53125q0.34375 0.34375 0.546875 0.828125q0.203125 0.484375 0.3125 1.0625038l1.65625 0q-0.078125 -0.9218788 -0.4375 -1.6718788q-0.34375 -0.765625 -0.9375 -1.296875q-0.578125 -0.53125 -1.359375 -0.8125q-0.78125 -0.296875 -1.71875 -0.296875q-0.828125 0 -1.515625 0.25q-0.671875 0.25 -1.1875 0.671875q-0.546875 0.421875 -0.9375 1.0q-0.375 0.578125 -0.625 1.25q-0.25 0.6875038 -0.375 1.4218788q-0.125 0.71875 -0.140625 1.46875l0 1.53125q0.015625 0.75 0.15625 1.484375q0.140625 0.734375 0.421875 1.390625q0.28125 0.671875 0.6875 1.25q0.40625 0.578125 0.953125 1.0q0.546875 0.421875 1.234375 0.671875q0.6875 0.234375 1.5 0.25q0.8125 0 1.546875 -0.1875q0.75 -0.1875 1.390625 -0.5625q0.375 -0.21875 0.71875 -0.515625q0.34375 -0.296875 0.65625 -0.65625zm9.070557 -8.296879q-1.078125 0 -1.921875 0.4687538q-0.84375 0.46875 -1.4375 1.265625l-0.015625 -0.234375l-0.078125 -1.3281288l-1.59375 0l0 9.859379l1.6875 0l0 -6.328125q0.171875 -0.453125 0.421875 -0.8125q0.25 -0.375 0.578125 -0.625q0.375 -0.296875 0.875 -0.4375q0.5 -0.15625 1.125 -0.15625q0.484375 0 0.921875 0.046875q0.453125 0.046875 0.9375 0.15625l0.234375 -1.6406288q-0.265625 -0.109375 -0.765625 -0.171875q-0.5 -0.0625 -0.96875 -0.0625zm4.9924316 0.171875l0 1.4687538l3.359375 0l0 6.9375l-3.359375 0l0 1.453125l8.265625 0l0 -1.453125l-3.21875 0l0 -8.406254l-5.046875 0zm3.140625 -2.578125q0 0.40625 0.25 0.6875q0.25 0.265625 0.765625 0.265625q0.5 0 0.75 -0.265625q0.25 -0.28125 0.25 -0.6875q0 -0.234375 -0.078125 -0.421875q-0.0625 -0.1875 -0.203125 -0.328125q-0.125 -0.109375 -0.3125 -0.171875q-0.171875 -0.078125 -0.40625 -0.078125q-0.25 0 -0.4375 0.078125q-0.171875 0.0625 -0.296875 0.171875q-0.140625 0.140625 -0.21875 0.34375q-0.0625 0.1875 -0.0625 0.40625zm7.4768677 7.421879l0 0.203125q0 1.046875 0.28125 1.96875q0.28125 0.90625 0.796875 1.59375q0.5 0.671875 1.21875 1.0625q0.734375 0.375 1.625 0.375q0.921875 0 1.59375 -0.3125q0.6875 -0.3125 1.1875 -0.90625l0.0625 1.03125l1.546875 0l0 -14.000004l-1.6875 0l0 5.125004q-0.46875 -0.578125 -1.140625 -0.859375q-0.65625 -0.2968788 -1.546875 -0.2968788q-0.890625 0 -1.625 0.3750038q-0.734375 0.359375 -1.234375 1.03125q-0.515625 0.65625 -0.796875 1.59375q-0.28125 0.921875 -0.28125 2.015625zm1.6875 0.203125l0 -0.203125q0 -0.71875 0.15625 -1.359375q0.15625 -0.65625 0.484375 -1.15625q0.3125 -0.5 0.8125 -0.78125q0.515625 -0.296875 1.21875 -0.296875q0.828125 0 1.375 0.390625q0.5625 0.390625 0.890625 0.984375l0 4.578125q-0.328125 0.640625 -0.890625 1.03125q-0.546875 0.375 -1.390625 0.375q-0.703125 0 -1.203125 -0.28125q-0.5 -0.296875 -0.8125 -0.78125q-0.328125 -0.5 -0.484375 -1.140625q-0.15625 -0.640625 -0.15625 -1.359375z" fill-rule="nonzero"/><path fill="#000000" fill-opacity="0.0" d="m404.4567 422.9265l224.88187 0l0 36.787384l-224.88187 0z" fill-rule="evenodd"/><path fill="#a4c2f4" d="m426.66873 438.01837l0 -1.4375l-9.84375 0l0 1.4375l4.109375 0l0 11.828125l1.640625 0l0 -11.828125l4.09375 0zm6.601837 12.015625q1.4375 0 2.421875 -0.578125q0.984375 -0.578125 1.46875 -1.328125l-1.03125 -0.796875q-0.46875 0.59375 -1.171875 0.96875q-0.6875 0.359375 -1.59375 0.359375q-0.6875 0 -1.25 -0.25q-0.5625 -0.265625 -0.96875 -0.71875q-0.390625 -0.40625 -0.609375 -0.953125q-0.21875 -0.546875 -0.28125 -1.265625l0 -0.078125l7.03125 0l0 -0.75q0 -1.03125 -0.265625 -1.90625q-0.25 -0.890625 -0.78125 -1.546875q-0.53125 -0.640625 -1.328125 -1.0q-0.796875 -0.375 -1.859375 -0.375q-0.84375 0 -1.65625 0.34375q-0.796875 0.34375 -1.4375 0.984375q-0.625 0.65625 -1.015625 1.609375q-0.375 0.9375 -0.375 2.125l0 0.390625q0 1.03125 0.34375 1.90625q0.34375 0.875 0.96875 1.5q0.609375 0.640625 1.484375 1.0q0.875 0.359375 1.90625 0.359375zm-0.21875 -8.84375q0.65625 0 1.125 0.234375q0.46875 0.234375 0.765625 0.625q0.3125 0.375 0.484375 0.90625q0.171875 0.515625 0.171875 0.984375l0 0.078125l-5.296875 0q0.09375 -0.6875 0.34375 -1.203125q0.265625 -0.53125 0.625 -0.890625q0.359375 -0.359375 0.8125 -0.546875q0.453125 -0.1875 0.96875 -0.1875zm7.0549316 8.65625l1.6875 0l0 -7.0625q0.171875 -0.328125 0.40625 -0.59375q0.234375 -0.265625 0.515625 -0.453125q0.328125 -0.234375 0.71875 -0.359375q0.40625 -0.140625 0.875 -0.140625q0.546875 0 0.953125 0.125q0.421875 0.125 0.703125 0.40625q0.28125 0.296875 0.421875 0.75q0.15625 0.453125 0.15625 1.109375l0 6.21875l1.6875 0l0 -6.265625q0 -0.96875 -0.25 -1.6875q-0.234375 -0.71875 -0.6875 -1.1875q-0.4375 -0.453125 -1.078125 -0.671875q-0.625 -0.21875 -1.40625 -0.21875q-0.5625 0 -1.078125 0.171875q-0.515625 0.15625 -0.953125 0.4375q-0.296875 0.1875 -0.5625 0.453125q-0.25 0.265625 -0.46875 0.5625l-0.125 -1.453125l-1.515625 0l0 9.859375zm17.758087 -2.609375q0 0.234375 -0.09375 0.453125q-0.09375 0.203125 -0.265625 0.375q-0.28125 0.28125 -0.78125 0.4375q-0.5 0.15625 -1.171875 0.15625q-0.4375 0 -0.875 -0.078125q-0.4375 -0.09375 -0.796875 -0.3125q-0.359375 -0.21875 -0.609375 -0.578125q-0.234375 -0.359375 -0.265625 -0.875l-1.6875 0q0 0.625 0.28125 1.21875q0.296875 0.578125 0.84375 1.015625q0.53125 0.4375 1.3125 0.71875q0.78125 0.265625 1.796875 0.265625q0.875 0 1.609375 -0.203125q0.734375 -0.21875 1.265625 -0.609375q0.53125 -0.375 0.8125 -0.90625q0.296875 -0.546875 0.296875 -1.203125q0 -0.609375 -0.265625 -1.0625q-0.25 -0.46875 -0.734375 -0.828125q-0.5 -0.34375 -1.21875 -0.59375q-0.71875 -0.25 -1.625 -0.453125q-0.6875 -0.125 -1.140625 -0.265625q-0.453125 -0.15625 -0.71875 -0.34375q-0.28125 -0.171875 -0.390625 -0.40625q-0.109375 -0.234375 -0.109375 -0.515625q0 -0.28125 0.140625 -0.546875q0.140625 -0.265625 0.40625 -0.46875q0.265625 -0.203125 0.671875 -0.3125q0.40625 -0.125 0.953125 -0.125q0.515625 0 0.921875 0.15625q0.421875 0.140625 0.71875 0.375q0.28125 0.234375 0.4375 0.546875q0.171875 0.296875 0.171875 0.625l1.6875 0q0 -0.65625 -0.28125 -1.21875q-0.265625 -0.5625 -0.78125 -0.96875q-0.515625 -0.421875 -1.25 -0.65625q-0.71875 -0.234375 -1.625 -0.234375q-0.859375 0 -1.5625 0.234375q-0.703125 0.21875 -1.21875 0.609375q-0.5 0.390625 -0.78125 0.921875q-0.28125 0.515625 -0.28125 1.109375q0 0.609375 0.265625 1.078125q0.28125 0.453125 0.78125 0.796875q0.484375 0.34375 1.171875 0.59375q0.703125 0.234375 1.5625 0.421875q0.6875 0.125 1.140625 0.296875q0.46875 0.171875 0.75 0.375q0.28125 0.203125 0.40625 0.4375q0.125 0.234375 0.125 0.546875zm4.1643066 -2.40625l0 0.203125q0 1.0625 0.3125 1.96875q0.3125 0.90625 0.890625 1.59375q0.578125 0.671875 1.40625 1.0625q0.84375 0.375 1.890625 0.375q1.03125 0 1.859375 -0.375q0.828125 -0.390625 1.40625 -1.0625q0.578125 -0.6875 0.890625 -1.59375q0.3125 -0.90625 0.3125 -1.96875l0 -0.203125q0 -1.0625 -0.3125 -1.984375q-0.3125 -0.921875 -0.890625 -1.59375q-0.578125 -0.671875 -1.421875 -1.046875q-0.828125 -0.390625 -1.875 -0.390625q-1.03125 0 -1.859375 0.390625q-0.828125 0.375 -1.40625 1.046875q-0.578125 0.671875 -0.890625 1.59375q-0.3125 0.921875 -0.3125 1.984375zm1.6875 0.203125l0 -0.203125q0 -0.71875 0.171875 -1.375q0.171875 -0.671875 0.53125 -1.171875q0.34375 -0.5 0.859375 -0.796875q0.515625 -0.296875 1.21875 -0.296875q0.703125 0 1.21875 0.296875q0.53125 0.296875 0.890625 0.796875q0.34375 0.5 0.515625 1.171875q0.1875 0.65625 0.1875 1.375l0 0.203125q0 0.71875 -0.171875 1.390625q-0.171875 0.65625 -0.515625 1.15625q-0.359375 0.5 -0.890625 0.796875q-0.515625 0.28125 -1.203125 0.28125q-0.703125 0 -1.234375 -0.28125q-0.53125 -0.296875 -0.875 -0.796875q-0.359375 -0.5 -0.53125 -1.15625q-0.171875 -0.671875 -0.171875 -1.390625zm16.445587 -5.21875q-1.078125 0 -1.921875 0.46875q-0.84375 0.46875 -1.4375 1.265625l-0.015625 -0.234375l-0.078125 -1.328125l-1.59375 0l0 9.859375l1.6875 0l0 -6.328125q0.171875 -0.453125 0.421875 -0.8125q0.25 -0.375 0.578125 -0.625q0.375 -0.296875 0.875 -0.4375q0.5 -0.15625 1.125 -0.15625q0.484375 0 0.921875 0.046875q0.453125 0.046875 0.9375 0.15625l0.234375 -1.640625q-0.265625 -0.109375 -0.765625 -0.171875q-0.5 -0.0625 -0.96875 -0.0625zm15.453644 5.015625l0 0.203125q0 1.0625 0.3125 1.96875q0.3125 0.90625 0.890625 1.59375q0.578125 0.671875 1.40625 1.0625q0.84375 0.375 1.890625 0.375q1.03125 0 1.859375 -0.375q0.828125 -0.390625 1.40625 -1.0625q0.578125 -0.6875 0.890625 -1.59375q0.3125 -0.90625 0.3125 -1.96875l0 -0.203125q0 -1.0625 -0.3125 -1.984375q-0.3125 -0.921875 -0.890625 -1.59375q-0.578125 -0.671875 -1.421875 -1.046875q-0.828125 -0.390625 -1.875 -0.390625q-1.03125 0 -1.859375 0.390625q-0.828125 0.375 -1.40625 1.046875q-0.578125 0.671875 -0.890625 1.59375q-0.3125 0.921875 -0.3125 1.984375zm1.6875 0.203125l0 -0.203125q0 -0.71875 0.171875 -1.375q0.171875 -0.671875 0.53125 -1.171875q0.34375 -0.5 0.859375 -0.796875q0.515625 -0.296875 1.21875 -0.296875q0.703125 0 1.21875 0.296875q0.53125 0.296875 0.890625 0.796875q0.34375 0.5 0.515625 1.171875q0.1875 0.65625 0.1875 1.375l0 0.203125q0 0.71875 -0.171875 1.390625q-0.171875 0.65625 -0.515625 1.15625q-0.359375 0.5 -0.890625 0.796875q-0.515625 0.28125 -1.203125 0.28125q-0.703125 0 -1.234375 -0.28125q-0.53125 -0.296875 -0.875 -0.796875q-0.359375 -0.5 -0.53125 -1.15625q-0.171875 -0.671875 -0.171875 -1.390625zm12.492432 4.8125l1.703125 0l0 -8.546875l3.7969055 0l0 -1.3125l-3.7969055 0l0 -0.6875q0 -0.625 0.15625 -1.078125q0.15625 -0.46875 0.46878052 -0.765625q0.296875 -0.28125 0.734375 -0.421875q0.4375 -0.140625 1.015625 -0.140625q0.5625 0 1.0625 0.09375q0.5 0.09375 0.875 0.21875l0.1875 -1.390625q-0.234375 -0.0625 -0.46875 -0.109375q-0.21875 -0.046875 -0.453125 -0.09375q-0.34375 -0.0625 -0.703125 -0.109375q-0.34375 -0.046875 -0.703125 -0.046875q-0.875 0 -1.59375 0.25q-0.7031555 0.25 -1.2031555 0.734375q-0.515625 0.484375 -0.796875 1.203125q-0.28125 0.703125 -0.28125 1.65625l0 0.6875l-2.703125 0l0 1.3125l2.703125 0l0 8.546875zm24.266144 -5.40625l2.609375 5.40625l1.78125 0l0 -0.109375l-2.8125 -5.671875q0.546875 -0.234375 1.0 -0.5625q0.46875 -0.34375 0.796875 -0.78125q0.328125 -0.4375 0.5 -0.96875q0.1875 -0.546875 0.1875 -1.1875q0 -1.0 -0.34375 -1.734375q-0.34375 -0.75 -0.953125 -1.25q-0.625 -0.484375 -1.453125 -0.734375q-0.8125 -0.25 -1.75 -0.265625l-3.875 0l0 13.265625l1.671875 0l0 -5.40625l2.640625 0zm-2.640625 -1.390625l0 -5.078125l2.203125 0q0.625 0 1.125 0.171875q0.515625 0.15625 0.890625 0.484375q0.375 0.328125 0.578125 0.8125q0.21875 0.46875 0.21875 1.109375q0 0.59375 -0.21875 1.0625q-0.21875 0.453125 -0.59375 0.78125q-0.375 0.3125 -0.875 0.484375q-0.5 0.15625 -1.078125 0.171875l-2.25 0zm18.039307 5.0625l-0.03125 -4.875l-4.296875 0l0 1.421875l2.6875 0l-0.015625 2.984375q-0.203125 0.296875 -0.515625 0.484375q-0.3125 0.1875 -0.671875 0.296875q-0.34375 0.109375 -0.734375 0.15625q-0.375 0.03125 -0.71875 0.015625q-0.59375 0 -1.078125 -0.203125q-0.46875 -0.21875 -0.828125 -0.5625q-0.359375 -0.34375 -0.625 -0.796875q-0.25 -0.453125 -0.40625 -0.96875q-0.171875 -0.515625 -0.25 -1.046875q-0.078125 -0.53125 -0.078125 -1.03125l0 -1.5625q0 -0.484375 0.0625 -1.015625q0.0625 -0.53125 0.203125 -1.03125q0.15625 -0.515625 0.375 -0.96875q0.234375 -0.46875 0.578125 -0.8125q0.34375 -0.34375 0.796875 -0.546875q0.46875 -0.203125 1.078125 -0.203125q0.625 0 1.09375 0.203125q0.484375 0.1875 0.828125 0.53125q0.34375 0.34375 0.546875 0.828125q0.203125 0.484375 0.3125 1.0625l1.65625 0q-0.078125 -0.921875 -0.4375 -1.671875q-0.34375 -0.765625 -0.9375 -1.296875q-0.578125 -0.53125 -1.359375 -0.8125q-0.78125 -0.296875 -1.71875 -0.296875q-0.828125 0 -1.515625 0.25q-0.671875 0.25 -1.1875 0.671875q-0.546875 0.421875 -0.9375 1.0q-0.375 0.578125 -0.625 1.25q-0.25 0.6875 -0.375 1.421875q-0.125 0.71875 -0.140625 1.46875l0 1.53125q0.015625 0.75 0.15625 1.484375q0.140625 0.734375 0.421875 1.390625q0.28125 0.671875 0.6875 1.25q0.40625 0.578125 0.953125 1.0q0.546875 0.421875 1.234375 0.671875q0.6875 0.234375 1.5 0.25q0.8125 0 1.546875 -0.1875q0.75 -0.1875 1.390625 -0.5625q0.375 -0.21875 0.71875 -0.515625q0.34375 -0.296875 0.65625 -0.65625zm2.5862427 1.734375l4.25 0q0.84375 -0.015625 1.640625 -0.265625q0.796875 -0.25 1.40625 -0.734375q0.609375 -0.46875 0.96875 -1.171875q0.375 -0.71875 0.359375 -1.65625q0 -0.59375 -0.171875 -1.09375q-0.171875 -0.515625 -0.5 -0.921875q-0.296875 -0.375 -0.765625 -0.6875q-0.453125 -0.3125 -0.96875 -0.421875l0 -0.03125q0.484375 -0.21875 0.828125 -0.453125q0.34375 -0.234375 0.625 -0.578125q0.28125 -0.34375 0.4375 -0.765625q0.15625 -0.421875 0.171875 -0.953125q0 -0.921875 -0.359375 -1.578125q-0.359375 -0.671875 -0.96875 -1.109375q-0.625 -0.421875 -1.40625 -0.625q-0.78125 -0.203125 -1.59375 -0.21875l-3.953125 0l0 13.265625zm1.703125 -6.203125l2.6875 0q0.53125 0.015625 1.0 0.1875q0.46875 0.15625 0.8125 0.453125q0.34375 0.3125 0.53125 0.75q0.203125 0.4375 0.1875 1.0q0 0.5625 -0.21875 1.0q-0.203125 0.4375 -0.5625 0.734375q-0.375 0.296875 -0.84375 0.46875q-0.46875 0.171875 -1.0 0.171875l-2.59375 0l0 -4.765625zm0 -1.40625l0 -4.21875l2.296875 0q0.5 0.015625 0.96875 0.140625q0.46875 0.109375 0.828125 0.359375q0.359375 0.25 0.5625 0.640625q0.21875 0.390625 0.21875 0.953125q0 0.515625 -0.21875 0.90625q-0.21875 0.390625 -0.578125 0.65625q-0.34375 0.28125 -0.8125 0.421875q-0.453125 0.140625 -0.921875 0.140625l-2.34375 0zm20.531738 7.609375l3.078125 0q0.953125 -0.015625 1.78125 -0.234375q0.828125 -0.21875 1.484375 -0.625q0.609375 -0.390625 1.109375 -0.9375q0.5 -0.5625 0.828125 -1.25q0.328125 -0.65625 0.484375 -1.4375q0.171875 -0.78125 0.171875 -1.65625l0 -0.96875q0 -0.921875 -0.1875 -1.71875q-0.171875 -0.796875 -0.515625 -1.46875q-0.359375 -0.796875 -0.984375 -1.40625q-0.625 -0.609375 -1.4375 -0.984375q-0.59375 -0.265625 -1.28125 -0.40625q-0.6875 -0.15625 -1.453125 -0.171875l-3.078125 0l0 13.265625zm1.71875 -11.875l1.359375 0q0.625 0 1.15625 0.140625q0.53125 0.125 0.953125 0.359375q0.609375 0.328125 1.015625 0.84375q0.421875 0.515625 0.65625 1.15625q0.203125 0.484375 0.296875 1.0625q0.09375 0.5625 0.09375 1.1875l0 0.984375q0 0.609375 -0.09375 1.171875q-0.09375 0.5625 -0.265625 1.046875q-0.21875 0.59375 -0.578125 1.078125q-0.359375 0.46875 -0.84375 0.796875q-0.46875 0.3125 -1.078125 0.484375q-0.59375 0.171875 -1.3125 0.1875l-1.359375 0l0 -10.5zm16.133057 11.875l1.75 0l0 -0.140625q-0.15625 -0.421875 -0.25 -0.96875q-0.09375 -0.546875 -0.09375 -1.046875l0 -4.578125q0 -0.828125 -0.296875 -1.4375q-0.296875 -0.625 -0.8125 -1.046875q-0.53125 -0.40625 -1.25 -0.609375q-0.71875 -0.203125 -1.5625 -0.203125q-0.921875 0 -1.65625 0.25q-0.71875 0.25 -1.21875 0.65625q-0.5 0.421875 -0.78125 0.953125q-0.265625 0.515625 -0.265625 1.046875l1.6875 0q0 -0.3125 0.140625 -0.59375q0.15625 -0.28125 0.4375 -0.5q0.265625 -0.203125 0.65625 -0.328125q0.40625 -0.140625 0.90625 -0.140625q0.546875 0 0.96875 0.140625q0.4375 0.140625 0.734375 0.390625q0.296875 0.25 0.453125 0.609375q0.171875 0.34375 0.171875 0.796875l0 0.78125l-1.828125 0q-1.03125 0 -1.875 0.203125q-0.828125 0.1875 -1.421875 0.59375q-0.59375 0.40625 -0.921875 1.015625q-0.3125 0.609375 -0.3125 1.421875q0 0.625 0.234375 1.15625q0.25 0.53125 0.6875 0.90625q0.4375 0.40625 1.0625 0.640625q0.640625 0.21875 1.4375 0.21875q0.46875 0 0.890625 -0.109375q0.4375 -0.09375 0.828125 -0.265625q0.375 -0.171875 0.6875 -0.390625q0.3125 -0.234375 0.5625 -0.5q0.03125 0.3125 0.09375 0.609375q0.0625 0.28125 0.15625 0.46875zm-2.984375 -1.28125q-0.484375 0 -0.859375 -0.125q-0.375 -0.140625 -0.625 -0.359375q-0.234375 -0.21875 -0.359375 -0.53125q-0.125 -0.3125 -0.125 -0.671875q0 -0.390625 0.140625 -0.6875q0.140625 -0.296875 0.40625 -0.515625q0.390625 -0.3125 1.03125 -0.453125q0.65625 -0.15625 1.53125 -0.15625l1.5625 0l0 2.0q-0.140625 0.28125 -0.40625 0.5625q-0.25 0.265625 -0.59375 0.46875q-0.34375 0.203125 -0.78125 0.34375q-0.421875 0.125 -0.921875 0.125zm11.695618 -10.96875l-1.703125 0l0 2.390625l-2.578125 0l0 1.3125l2.578125 0l0 5.34375q0 0.921875 0.234375 1.5625q0.25 0.640625 0.671875 1.046875q0.421875 0.40625 0.984375 0.59375q0.578125 0.1875 1.234375 0.1875q0.390625 0 0.78125 -0.046875q0.40625 -0.03125 0.75 -0.109375q0.359375 -0.0625 0.65625 -0.15625q0.296875 -0.09375 0.515625 -0.21875l-0.234375 -1.203125q-0.15625 0.046875 -0.40625 0.09375q-0.234375 0.046875 -0.515625 0.09375q-0.28125 0.046875 -0.578125 0.078125q-0.28125 0.03125 -0.546875 0.03125q-0.375 0 -0.71875 -0.09375q-0.328125 -0.09375 -0.578125 -0.3125q-0.265625 -0.21875 -0.40625 -0.59375q-0.140625 -0.375 -0.140625 -0.953125l0 -5.34375l3.75 0l0 -1.3125l-3.75 0l0 -2.390625zm13.679932 12.25l1.75 0l0 -0.140625q-0.15625 -0.421875 -0.25 -0.96875q-0.09375 -0.546875 -0.09375 -1.046875l0 -4.578125q0 -0.828125 -0.296875 -1.4375q-0.296875 -0.625 -0.8125 -1.046875q-0.53125 -0.40625 -1.25 -0.609375q-0.71875 -0.203125 -1.5625 -0.203125q-0.921875 0 -1.65625 0.25q-0.71875 0.25 -1.21875 0.65625q-0.5 0.421875 -0.78125 0.953125q-0.265625 0.515625 -0.265625 1.046875l1.6875 0q0 -0.3125 0.140625 -0.59375q0.15625 -0.28125 0.4375 -0.5q0.265625 -0.203125 0.65625 -0.328125q0.40625 -0.140625 0.90625 -0.140625q0.546875 0 0.96875 0.140625q0.4375 0.140625 0.734375 0.390625q0.296875 0.25 0.453125 0.609375q0.171875 0.34375 0.171875 0.796875l0 0.78125l-1.828125 0q-1.03125 0 -1.875 0.203125q-0.828125 0.1875 -1.421875 0.59375q-0.59375 0.40625 -0.921875 1.015625q-0.3125 0.609375 -0.3125 1.421875q0 0.625 0.234375 1.15625q0.25 0.53125 0.6875 0.90625q0.4375 0.40625 1.0625 0.640625q0.640625 0.21875 1.4375 0.21875q0.46875 0 0.890625 -0.109375q0.4375 -0.09375 0.828125 -0.265625q0.375 -0.171875 0.6875 -0.390625q0.3125 -0.234375 0.5625 -0.5q0.03125 0.3125 0.09375 0.609375q0.0625 0.28125 0.15625 0.46875zm-2.984375 -1.28125q-0.484375 0 -0.859375 -0.125q-0.375 -0.140625 -0.625 -0.359375q-0.234375 -0.21875 -0.359375 -0.53125q-0.125 -0.3125 -0.125 -0.671875q0 -0.390625 0.140625 -0.6875q0.140625 -0.296875 0.40625 -0.515625q0.390625 -0.3125 1.03125 -0.453125q0.65625 -0.15625 1.53125 -0.15625l1.5625 0l0 2.0q-0.140625 0.28125 -0.40625 0.5625q-0.25 0.265625 -0.59375 0.46875q-0.34375 0.203125 -0.78125 0.34375q-0.421875 0.125 -0.921875 0.125z" fill-rule="nonzero"/><path fill="#000000" fill-opacity="0.0" d="m569.43304 285.37796l-47.77948 104.53543" fill-rule="evenodd"/><path stroke="#a4c2f4" stroke-width="2.0" stroke-linejoin="round" stroke-linecap="butt" stroke-dasharray="8.0,6.0,2.0,6.0" d="m569.43304 285.37796l-42.791077 93.62143" fill-rule="evenodd"/><path fill="#a4c2f4" stroke="#a4c2f4" stroke-width="2.0" stroke-linecap="butt" d="m523.63745 377.62613l-0.76849365 9.628052l6.777527 -6.8815613z" fill-rule="evenodd"/><path fill="#000000" fill-opacity="0.0" d="m584.6037 133.88452l46.393677 255.49606" fill-rule="evenodd"/><path stroke="#a4c2f4" stroke-width="2.0" stroke-linejoin="round" stroke-linecap="butt" stroke-dasharray="8.0,6.0,2.0,6.0" d="m584.6037 133.88452l44.249756 243.68915" fill-rule="evenodd"/><path fill="#a4c2f4" stroke="#a4c2f4" stroke-width="2.0" stroke-linecap="butt" d="m625.60315 378.16385l4.871826 8.339966l1.6287842 -9.520355z" fill-rule="evenodd"/><path fill="#000000" fill-opacity="0.0" d="m530.1365 285.37796l-47.77951 104.53543" fill-rule="evenodd"/><path stroke="#a4c2f4" stroke-width="2.0" stroke-linejoin="round" stroke-linecap="butt" stroke-dasharray="8.0,6.0,2.0,6.0" d="m530.1365 285.37796l-42.791077 93.62143" fill-rule="evenodd"/><path fill="#a4c2f4" stroke="#a4c2f4" stroke-width="2.0" stroke-linecap="butt" d="m484.34088 377.62613l-0.76849365 9.628052l6.7774963 -6.8815613z" fill-rule="evenodd"/><path fill="#000000" fill-opacity="0.0" d="m486.39633 285.37796l-47.77954 104.53543" fill-rule="evenodd"/><path stroke="#a4c2f4" stroke-width="2.0" stroke-linejoin="round" stroke-linecap="butt" stroke-dasharray="8.0,6.0,2.0,6.0" d="m486.39633 285.37796l-42.791107 93.62143" fill-rule="evenodd"/><path fill="#a4c2f4" stroke="#a4c2f4" stroke-width="2.0" stroke-linecap="butt" d="m440.6007 377.62613l-0.76849365 9.628052l6.7774963 -6.8815613z" fill-rule="evenodd"/><path fill="#000000" fill-opacity="0.0" d="m438.6168 285.37796l-47.77951 104.53543" fill-rule="evenodd"/><path stroke="#a4c2f4" stroke-width="2.0" stroke-linejoin="round" stroke-linecap="butt" stroke-dasharray="8.0,6.0,2.0,6.0" d="m438.6168 285.37796l-42.791077 93.62143" fill-rule="evenodd"/><path fill="#a4c2f4" stroke="#a4c2f4" stroke-width="2.0" stroke-linecap="butt" d="m392.8212 377.62613l-0.76849365 9.628052l6.7774963 -6.8815613z" fill-rule="evenodd"/><path fill="#000000" fill-opacity="0.0" d="m334.87665 108.83202l0 295.49606" fill-rule="evenodd"/><path stroke="#b7b7b7" stroke-width="3.0" stroke-linejoin="round" stroke-linecap="butt" d="m334.87665 108.83202l0 295.49606" fill-rule="evenodd"/></g></svg>