<svg version="1.1" viewBox="0.0 0.0 693.3123359580053 456.12598425196853" fill="none" stroke="none" stroke-linecap="square" stroke-miterlimit="10" xmlns:xlink="http://www.w3.org/1999/xlink" xmlns="http://www.w3.org/2000/svg"><clipPath id="p.0"><path d="m0 0l693.3123 0l0 456.12598l-693.3123 0l0 -456.12598z" clip-rule="nonzero"/></clipPath><g clip-path="url(#p.0)"><path fill="#000000" fill-opacity="0.0" d="m0 0l693.3123 0l0 456.12598l-693.3123 0z" fill-rule="evenodd"/><path shape-rendering="crispEdges" fill="#6fa8dc" d="m49.32546 144.24147l60.000004 0l0 60.0l-60.000004 0l0 -60.0z" fill-rule="nonzero"/><path shape-rendering="crispEdges" fill="#674ea7" d="m109.32546 144.24147l59.999992 0l0 60.0l-59.999992 0l0 -60.0z" fill-rule="nonzero"/><path shape-rendering="crispEdges" fill="#ffe599" d="m169.32545 144.24147l60.0 0l0 60.0l-60.0 0l0 -60.0z" fill-rule="nonzero"/><path shape-rendering="crispEdges" fill="#76a5af" d="m229.32545 144.24147l60.000015 0l0 60.0l-60.000015 0l0 -60.0z" fill-rule="nonzero"/><path shape-rendering="crispEdges" fill="#ea9999" d="m49.32546 204.24147l60.000004 0l0 59.999985l-60.000004 0l0 -59.999985z" fill-rule="nonzero"/><path shape-rendering="crispEdges" fill="#f9cb9c" d="m109.32546 204.24147l59.999992 0l0 59.999985l-59.999992 0l0 -59.999985z" fill-rule="nonzero"/><path shape-rendering="crispEdges" fill="#b4a7d6" d="m169.32545 204.24147l60.0 0l0 59.999985l-60.0 0l0 -59.999985z" fill-rule="nonzero"/><path shape-rendering="crispEdges" fill="#ffff00" d="m229.32545 204.24147l60.000015 0l0 59.999985l-60.000015 0l0 -59.999985z" fill-rule="nonzero"/><path shape-rendering="crispEdges" fill="#4a86e8" d="m49.32546 264.24146l60.000004 0l0 60.0l-60.000004 0l0 -60.0z" fill-rule="nonzero"/><path shape-rendering="crispEdges" fill="#93c47d" d="m109.32546 264.24146l59.999992 0l0 60.0l-59.999992 0l0 -60.0z" fill-rule="nonzero"/><path shape-rendering="crispEdges" fill="#4a86e8" d="m169.32545 264.24146l60.0 0l0 60.0l-60.0 0l0 -60.0z" fill-rule="nonzero"/><path shape-rendering="crispEdges" fill="#ead1dc" d="m229.32545 264.24146l60.000015 0l0 60.0l-60.000015 0l0 -60.0z" fill-rule="nonzero"/><path shape-rendering="crispEdges" fill="#ea9999" d="m49.32546 324.24146l60.000004 0l0 60.0l-60.000004 0l0 -60.0z" fill-rule="nonzero"/><path shape-rendering="crispEdges" fill="#f6b26b" d="m109.32546 324.24146l59.999992 0l0 60.0l-59.999992 0l0 -60.0z" fill-rule="nonzero"/><path shape-rendering="crispEdges" fill="#ea9999" d="m169.32545 324.24146l60.0 0l0 60.0l-60.0 0l0 -60.0z" fill-rule="nonzero"/><path shape-rendering="crispEdges" fill="#93c47d" d="m229.32545 324.24146l60.000015 0l0 60.0l-60.000015 0l0 -60.0z" fill-rule="nonzero"/><path stroke="#434343" stroke-width="4.0" stroke-linecap="butt" d="m49.32546 142.24147l0 243.99998" fill-rule="nonzero"/><path stroke="#434343" stroke-width="4.0" stroke-linecap="butt" d="m109.32546 142.24147l0 243.99998" fill-rule="nonzero"/><path stroke="#434343" stroke-width="4.0" stroke-linecap="butt" d="m169.32545 142.24147l0 243.99998" fill-rule="nonzero"/><path stroke="#434343" stroke-width="4.0" stroke-linecap="butt" d="m229.32545 142.24147l0 243.99998" fill-rule="nonzero"/><path stroke="#434343" stroke-width="4.0" stroke-linecap="butt" d="m289.32547 142.24147l0 243.99998" fill-rule="nonzero"/><path stroke="#434343" stroke-width="4.0" stroke-linecap="butt" d="m47.32546 144.24147l244.00002 0" fill-rule="nonzero"/><path stroke="#434343" stroke-width="4.0" stroke-linecap="butt" d="m47.32546 204.24147l244.00002 0" fill-rule="nonzero"/><path stroke="#434343" stroke-width="4.0" stroke-linecap="butt" d="m47.32546 264.24146l244.00002 0" fill-rule="nonzero"/><path stroke="#434343" stroke-width="4.0" stroke-linecap="butt" d="m47.32546 324.24146l244.00002 0" fill-rule="nonzero"/><path stroke="#434343" stroke-width="4.0" stroke-linecap="butt" d="m47.32546 384.24146l244.00002 0" fill-rule="nonzero"/><path shape-rendering="crispEdges" fill="#ea9999" d="m377.03018 369.14435l42.514435 0l0 41.595795l-42.514435 0l0 -41.595795z" fill-rule="nonzero"/><path shape-rendering="crispEdges" fill="#f6b26b" d="m419.54462 369.14435l40.194214 0l0 41.595795l-40.194214 0l0 -41.595795z" fill-rule="nonzero"/><path shape-rendering="crispEdges" fill="#ea9999" d="m459.73883 369.14435l41.35434 0l0 41.595795l-41.35434 0l0 -41.595795z" fill-rule="nonzero"/><path shape-rendering="crispEdges" fill="#93c47d" d="m501.09317 369.14435l41.35434 0l0 41.595795l-41.35434 0l0 -41.595795z" fill-rule="nonzero"/><path stroke="#434343" stroke-width="4.0" stroke-linecap="butt" d="m377.03018 367.14435l0 45.595795" fill-rule="nonzero"/><path stroke="#434343" stroke-width="4.0" stroke-linecap="butt" d="m419.54462 367.14435l0 45.595795" fill-rule="nonzero"/><path stroke="#434343" stroke-width="4.0" stroke-linecap="butt" d="m459.73883 367.14435l0 45.595795" fill-rule="nonzero"/><path stroke="#434343" stroke-width="4.0" stroke-linecap="butt" d="m501.09317 367.14435l0 45.595795" fill-rule="nonzero"/><path stroke="#434343" stroke-width="4.0" stroke-linecap="butt" d="m542.4475 367.14435l0 45.595795" fill-rule="nonzero"/><path stroke="#434343" stroke-width="4.0" stroke-linecap="butt" d="m375.03018 369.14435l169.41733 0" fill-rule="nonzero"/><path stroke="#434343" stroke-width="4.0" stroke-linecap="butt" d="m375.03018 410.74014l169.41733 0" fill-rule="nonzero"/><path fill="#000000" fill-opacity="0.0" d="m71.24672 91.761154l196.15749 0l0 36.7874l-196.15749 0z" fill-rule="evenodd"/><path fill="#000000" d="m118.0605 117.10303l0 1.578125l-8.828125 0q-0.015625 -0.59375 0.1875 -1.140625q0.34375 -0.90625 1.078125 -1.78125q0.75 -0.875 2.15625 -2.015625q2.171875 -1.78125 2.9375 -2.828125q0.765625 -1.046875 0.765625 -1.96875q0 -0.984375 -0.703125 -1.640625q-0.6875 -0.671875 -1.8125 -0.671875q-1.1875 0 -1.90625 0.71875q-0.703125 0.703125 -0.703125 1.953125l-1.6875 -0.171875q0.171875 -1.890625 1.296875 -2.875q1.140625 -0.984375 3.03125 -0.984375q1.921875 0 3.046875 1.0625q1.125 1.0625 1.125 2.640625q0 0.796875 -0.328125 1.578125q-0.328125 0.78125 -1.09375 1.640625q-0.75 0.84375 -2.53125 2.34375q-1.46875 1.234375 -1.890625 1.6875q-0.421875 0.4375 -0.6875 0.875l6.546875 0zm2.4225922 1.578125l0 -13.359375l4.609375 0q1.546875 0 2.375 0.203125q1.140625 0.25 1.953125 0.953125q1.0625 0.890625 1.578125 2.28125q0.53125 1.390625 0.53125 3.171875q0 1.515625 -0.359375 2.703125q-0.359375 1.171875 -0.921875 1.9375q-0.546875 0.765625 -1.203125 1.21875q-0.65625 0.4375 -1.59375 0.671875q-0.9375 0.21875 -2.140625 0.21875l-4.828125 0zm1.765625 -1.578125l2.859375 0q1.3125 0 2.0625 -0.234375q0.75 -0.25 1.203125 -0.703125q0.625 -0.625 0.96875 -1.6875q0.359375 -1.0625 0.359375 -2.578125q0 -2.09375 -0.6875 -3.21875q-0.6875 -1.125 -1.671875 -1.5q-0.703125 -0.28125 -2.28125 -0.28125l-2.8125 0l0 10.203125zm17.1875 1.578125l0 -13.359375l1.765625 0l0 13.359375l-1.765625 0zm4.683304 0l0 -9.671875l1.46875 0l0 1.359375q0.453125 -0.71875 1.203125 -1.140625q0.765625 -0.4375 1.71875 -0.4375q1.078125 0 1.765625 0.453125q0.6875 0.4375 0.96875 1.234375q1.15625 -1.6875 2.984375 -1.6875q1.453125 0 2.21875 0.796875q0.78125 0.796875 0.78125 2.453125l0 6.640625l-1.640625 0l0 -6.09375q0 -0.984375 -0.15625 -1.40625q-0.15625 -0.4375 -0.578125 -0.703125q-0.421875 -0.265625 -0.984375 -0.265625q-1.015625 0 -1.6875 0.6875q-0.671875 0.671875 -0.671875 2.15625l0 5.625l-1.640625 0l0 -6.28125q0 -1.09375 -0.40625 -1.640625q-0.40625 -0.546875 -1.3125 -0.546875q-0.6875 0 -1.28125 0.359375q-0.59375 0.359375 -0.859375 1.0625q-0.25 0.703125 -0.25 2.03125l0 5.015625l-1.640625 0zm21.853302 -1.1875q-0.921875 0.765625 -1.765625 1.09375q-0.828125 0.3125 -1.796875 0.3125q-1.59375 0 -2.453125 -0.78125q-0.859375 -0.78125 -0.859375 -1.984375q0 -0.71875 0.328125 -1.296875q0.328125 -0.59375 0.84375 -0.9375q0.53125 -0.359375 1.1875 -0.546875q0.46875 -0.125 1.453125 -0.25q1.984375 -0.234375 2.921875 -0.5625q0.015625 -0.34375 0.015625 -0.421875q0 -1.0 -0.46875 -1.421875q-0.625 -0.546875 -1.875 -0.546875q-1.15625 0 -1.703125 0.40625q-0.546875 0.40625 -0.8125 1.421875l-1.609375 -0.21875q0.21875 -1.015625 0.71875 -1.640625q0.5 -0.640625 1.453125 -0.984375q0.953125 -0.34375 2.1875 -0.34375q1.25 0 2.015625 0.296875q0.78125 0.28125 1.140625 0.734375q0.375 0.4375 0.515625 1.109375q0.078125 0.421875 0.078125 1.515625l0 2.1875q0 2.28125 0.109375 2.890625q0.109375 0.59375 0.40625 1.15625l-1.703125 0q-0.265625 -0.515625 -0.328125 -1.1875zm-0.140625 -3.671875q-0.890625 0.375 -2.671875 0.625q-1.015625 0.140625 -1.4375 0.328125q-0.421875 0.1875 -0.65625 0.53125q-0.21875 0.34375 -0.21875 0.78125q0 0.65625 0.5 1.09375q0.5 0.4375 1.453125 0.4375q0.9375 0 1.671875 -0.40625q0.75 -0.421875 1.09375 -1.140625q0.265625 -0.5625 0.265625 -1.640625l0 -0.609375zm3.8913422 5.65625l1.59375 0.234375q0.109375 0.75 0.5625 1.078125q0.609375 0.453125 1.671875 0.453125q1.140625 0 1.75 -0.453125q0.625 -0.453125 0.84375 -1.265625q0.125 -0.5 0.109375 -2.109375q-1.0625 1.265625 -2.671875 1.265625q-2.0 0 -3.09375 -1.4375q-1.09375 -1.4375 -1.09375 -3.453125q0 -1.390625 0.5 -2.5625q0.515625 -1.171875 1.453125 -1.796875q0.953125 -0.640625 2.25 -0.640625q1.703125 0 2.8125 1.375l0 -1.15625l1.515625 0l0 8.359375q0 2.265625 -0.46875 3.203125q-0.453125 0.9375 -1.453125 1.484375q-0.984375 0.546875 -2.453125 0.546875q-1.71875 0 -2.796875 -0.78125q-1.0625 -0.765625 -1.03125 -2.34375zm1.359375 -5.8125q0 1.90625 0.75 2.78125q0.765625 0.875 1.90625 0.875q1.125 0 1.890625 -0.859375q0.765625 -0.875 0.765625 -2.734375q0 -1.78125 -0.796875 -2.671875q-0.78125 -0.90625 -1.890625 -0.90625q-1.09375 0 -1.859375 0.890625q-0.765625 0.875 -0.765625 2.625zm15.953842 1.90625l1.6875 0.203125q-0.40625 1.484375 -1.484375 2.3125q-1.078125 0.8125 -2.765625 0.8125q-2.125 0 -3.375 -1.296875q-1.234375 -1.3125 -1.234375 -3.671875q0 -2.453125 1.25 -3.796875q1.265625 -1.34375 3.265625 -1.34375q1.9375 0 3.15625 1.328125q1.234375 1.3125 1.234375 3.703125q0 0.15625 0 0.4375l-7.21875 0q0.09375 1.59375 0.90625 2.453125q0.8125 0.84375 2.015625 0.84375q0.90625 0 1.546875 -0.46875q0.640625 -0.484375 1.015625 -1.515625zm-5.390625 -2.65625l5.40625 0q-0.109375 -1.21875 -0.625 -1.828125q-0.78125 -0.953125 -2.03125 -0.953125q-1.125 0 -1.90625 0.765625q-0.765625 0.75 -0.84375 2.015625zm20.777771 0.53125l0 -1.578125l5.65625 0l0 4.953125q-1.296875 1.046875 -2.6875 1.578125q-1.375 0.515625 -2.84375 0.515625q-1.96875 0 -3.578125 -0.84375q-1.609375 -0.84375 -2.421875 -2.4375q-0.8125 -1.59375 -0.8125 -3.5625q0 -1.953125 0.8125 -3.640625q0.8125 -1.6875 2.34375 -2.5q1.53125 -0.828125 3.515625 -0.828125q1.453125 0 2.625 0.46875q1.171875 0.46875 1.828125 1.3125q0.671875 0.828125 1.015625 2.171875l-1.59375 0.4375q-0.296875 -1.015625 -0.75 -1.59375q-0.4375 -0.59375 -1.265625 -0.9375q-0.828125 -0.34375 -1.84375 -0.34375q-1.203125 0 -2.09375 0.375q-0.890625 0.359375 -1.4375 0.96875q-0.53125 0.59375 -0.828125 1.3125q-0.515625 1.234375 -0.515625 2.6875q0 1.78125 0.609375 2.984375q0.625 1.203125 1.796875 1.796875q1.171875 0.578125 2.5 0.578125q1.140625 0 2.234375 -0.4375q1.09375 -0.453125 1.65625 -0.953125l0 -2.484375l-3.921875 0zm8.042679 5.234375l0 -9.671875l1.46875 0l0 1.46875q0.5625 -1.03125 1.03125 -1.359375q0.484375 -0.328125 1.0625 -0.328125q0.828125 0 1.6875 0.53125l-0.5625 1.515625q-0.609375 -0.359375 -1.203125 -0.359375q-0.546875 0 -0.96875 0.328125q-0.421875 0.328125 -0.609375 0.890625q-0.28125 0.875 -0.28125 1.921875l0 5.0625l-1.625 0zm6.228302 -11.46875l0 -1.890625l1.640625 0l0 1.890625l-1.640625 0zm0 11.46875l0 -9.671875l1.640625 0l0 9.671875l-1.640625 0zm10.410446 0l0 -1.21875q-0.90625 1.4375 -2.703125 1.4375q-1.15625 0 -2.125 -0.640625q-0.96875 -0.640625 -1.5 -1.78125q-0.53125 -1.140625 -0.53125 -2.625q0 -1.453125 0.484375 -2.625q0.484375 -1.1875 1.4375 -1.8125q0.96875 -0.625 2.171875 -0.625q0.875 0 1.546875 0.375q0.6875 0.359375 1.109375 0.953125l0 -4.796875l1.640625 0l0 13.359375l-1.53125 0zm-5.171875 -4.828125q0 1.859375 0.78125 2.78125q0.78125 0.921875 1.84375 0.921875q1.078125 0 1.828125 -0.875q0.75 -0.890625 0.75 -2.6875q0 -1.984375 -0.765625 -2.90625q-0.765625 -0.9375 -1.890625 -0.9375q-1.078125 0 -1.8125 0.890625q-0.734375 0.890625 -0.734375 2.8125z" fill-rule="nonzero"/><path fill="#000000" fill-opacity="0.0" d="m547.5066 350.74014l55.747986 0l0 63.02365l-55.747986 0z" fill-rule="evenodd"/><path fill="#000000" d="m584.03784 394.30014l0 -4.9375l4.953125 0l0 4.9375l-4.953125 0zm-11.984375 0l0 -4.9375l4.9375 0l0 4.9375l-4.9375 0zm-12.015625 0l0 -4.9375l4.9375 0l0 4.9375l-4.9375 0z" fill-rule="nonzero"/><path shape-rendering="crispEdges" fill="#76a5af" d="m608.31366 369.14435l41.35431 0l0 41.595795l-41.35431 0l0 -41.595795z" fill-rule="nonzero"/><path stroke="#434343" stroke-width="4.0" stroke-linecap="butt" d="m608.31366 367.14435l0 45.595795" fill-rule="nonzero"/><path stroke="#434343" stroke-width="4.0" stroke-linecap="butt" d="m649.66797 367.14435l0 45.595795" fill-rule="nonzero"/><path stroke="#434343" stroke-width="4.0" stroke-linecap="butt" d="m606.31366 369.14435l45.35431 0" fill-rule="nonzero"/><path stroke="#434343" stroke-width="4.0" stroke-linecap="butt" d="m606.31366 410.74014l45.35431 0" fill-rule="nonzero"/><path shape-rendering="crispEdges" fill="#ffffff" d="m414.4882 96.59843l48.456696 0l0 50.501305l-48.456696 0l0 -50.501305z" fill-rule="nonzero"/><path shape-rendering="crispEdges" fill="#ffffff" d="m462.9449 96.59843l48.456696 0l0 50.501305l-48.456696 0l0 -50.501305z" fill-rule="nonzero"/><path shape-rendering="crispEdges" fill="#ffffff" d="m511.40158 96.59843l48.456696 0l0 50.501305l-48.456696 0l0 -50.501305z" fill-rule="nonzero"/><path shape-rendering="crispEdges" fill="#ffffff" d="m559.8583 96.59843l48.456665 0l0 50.501305l-48.456665 0l0 -50.501305z" fill-rule="nonzero"/><path shape-rendering="crispEdges" fill="#ffffff" d="m414.4882 147.09973l48.456696 0l0 50.501312l-48.456696 0l0 -50.501312z" fill-rule="nonzero"/><path shape-rendering="crispEdges" fill="#ffffff" d="m462.9449 147.09973l48.456696 0l0 50.501312l-48.456696 0l0 -50.501312z" fill-rule="nonzero"/><path shape-rendering="crispEdges" fill="#ffffff" d="m511.40158 147.09973l48.456696 0l0 50.501312l-48.456696 0l0 -50.501312z" fill-rule="nonzero"/><path shape-rendering="crispEdges" fill="#ffffff" d="m559.8583 147.09973l48.456665 0l0 50.501312l-48.456665 0l0 -50.501312z" fill-rule="nonzero"/><path shape-rendering="crispEdges" fill="#ffffff" d="m414.4882 197.60104l48.456696 0l0 50.501312l-48.456696 0l0 -50.501312z" fill-rule="nonzero"/><path shape-rendering="crispEdges" fill="#ffffff" d="m462.9449 197.60104l48.456696 0l0 50.501312l-48.456696 0l0 -50.501312z" fill-rule="nonzero"/><path shape-rendering="crispEdges" fill="#ffffff" d="m511.40158 197.60104l48.456696 0l0 50.501312l-48.456696 0l0 -50.501312z" fill-rule="nonzero"/><path shape-rendering="crispEdges" fill="#ffffff" d="m559.8583 197.60104l48.456665 0l0 50.501312l-48.456665 0l0 -50.501312z" fill-rule="nonzero"/><path shape-rendering="crispEdges" fill="#ffffff" d="m414.4882 248.10236l48.456696 0l0 50.501312l-48.456696 0l0 -50.501312z" fill-rule="nonzero"/><path shape-rendering="crispEdges" fill="#ffffff" d="m462.9449 248.10236l48.456696 0l0 50.501312l-48.456696 0l0 -50.501312z" fill-rule="nonzero"/><path shape-rendering="crispEdges" fill="#ffffff" d="m511.40158 248.10236l48.456696 0l0 50.501312l-48.456696 0l0 -50.501312z" fill-rule="nonzero"/><path shape-rendering="crispEdges" fill="#ffffff" d="m559.8583 248.10236l48.456665 0l0 50.501312l-48.456665 0l0 -50.501312z" fill-rule="nonzero"/><path stroke="#434343" stroke-width="4.0" stroke-linecap="butt" d="m414.4882 94.59843l0 206.00525" fill-rule="nonzero"/><path stroke="#434343" stroke-width="4.0" stroke-linecap="butt" d="m462.9449 94.59843l0 206.00525" fill-rule="nonzero"/><path stroke="#434343" stroke-width="4.0" stroke-linecap="butt" d="m511.40158 94.59843l0 206.00525" fill-rule="nonzero"/><path stroke="#434343" stroke-width="4.0" stroke-linecap="butt" d="m559.8583 94.59843l0 206.00525" fill-rule="nonzero"/><path stroke="#434343" stroke-width="4.0" stroke-linecap="butt" d="m608.31494 94.59843l0 206.00525" fill-rule="nonzero"/><path stroke="#434343" stroke-width="4.0" stroke-linecap="butt" d="m412.4882 96.59843l197.82675 0" fill-rule="nonzero"/><path stroke="#434343" stroke-width="4.0" stroke-linecap="butt" d="m412.4882 147.09973l197.82675 0" fill-rule="nonzero"/><path stroke="#434343" stroke-width="4.0" stroke-linecap="butt" d="m412.4882 197.60104l197.82675 0" fill-rule="nonzero"/><path stroke="#434343" stroke-width="4.0" stroke-linecap="butt" d="m412.4882 248.10236l197.82675 0" fill-rule="nonzero"/><path stroke="#434343" stroke-width="4.0" stroke-linecap="butt" d="m412.4882 298.60367l197.82675 0" fill-rule="nonzero"/><path fill="#000000" d="m430.97995 122.12908q0.84375 0.375 1.28125 1.046875q0.453125 0.65625 0.453125 1.375q0 1.109375 -0.890625 1.953125q-0.890625 0.84375 -2.25 0.84375q-0.78125 0 -1.640625 -0.328125q-0.84375 -0.34375 -1.1875 -0.703125q-0.109375 -0.109375 -0.109375 -0.25q0 -0.109375 0.078125 -0.1875q0.09375 -0.09375 0.21875 -0.09375q0.109375 0 0.265625 0.109375q1.125 0.84375 2.390625 0.84375q1.078125 0 1.796875 -0.671875q0.71875 -0.671875 0.71875 -1.5q0 -0.546875 -0.359375 -1.0625q-0.34375 -0.53125 -1.015625 -0.828125q-0.671875 -0.3125 -1.34375 -0.3125q-0.21875 0 -0.328125 -0.078125q-0.09375 -0.09375 -0.09375 -0.234375q0 -0.125 0.09375 -0.21875q0.09375 -0.09375 0.28125 -0.09375l0.53125 0.015625q0.828125 0 1.359375 -0.5q0.546875 -0.515625 0.546875 -1.171875q0 -0.6875 -0.578125 -1.21875q-0.5625 -0.53125 -1.46875 -0.53125q-0.640625 0 -1.171875 0.21875q-0.53125 0.21875 -0.859375 0.609375q-0.109375 0.140625 -0.171875 0.171875q-0.0625 0.03125 -0.140625 0.03125q-0.125 0 -0.21875 -0.078125q-0.078125 -0.09375 -0.078125 -0.203125q0 -0.296875 0.625 -0.75q0.890625 -0.609375 2.015625 -0.609375q1.171875 0 1.90625 0.703125q0.75 0.6875 0.75 1.65625q0 0.609375 -0.359375 1.171875q-0.359375 0.546875 -1.046875 0.875zm6.51709 2.78125l2.0 0l-2.171875 4.0468674q-0.203125 0.375 -0.484375 0.375q-0.171875 0 -0.3125 -0.140625q-0.125 -0.125 -0.125 -0.296875q0 -0.078125 0.03125 -0.171875l1.0625 -3.8124924zm13.04834 -3.140625l0 1.53125q0 1.984375 -0.953125 3.140625q-0.734375 0.90625 -1.859375 0.90625q-0.546875 0 -1.03125 -0.21875q-0.46875 -0.21875 -0.8125 -0.59375q-0.203125 -0.25 -0.46875 -0.78125q-0.25 -0.53125 -0.359375 -0.984375q-0.171875 -0.625 -0.171875 -1.46875l0 -1.53125q0 -1.984375 0.953125 -3.140625q0.734375 -0.90625 1.859375 -0.90625q0.5625 0 1.03125 0.21875q0.46875 0.203125 0.8125 0.59375q0.21875 0.25 0.46875 0.796875q0.25 0.53125 0.359375 0.96875q0.171875 0.625 0.171875 1.46875zm-0.625 0.078125q0 -0.859375 -0.25 -1.609375q-0.234375 -0.75 -0.546875 -1.203125q-0.171875 -0.25 -0.46875 -0.4375q-0.421875 -0.265625 -0.9375 -0.265625q-1.03125 0 -1.625 1.0625q-0.578125 1.046875 -0.578125 2.453125l0 1.359375q0 0.875 0.234375 1.640625q0.25 0.75 0.5625 1.1875q0.1875 0.25 0.46875 0.4375q0.421875 0.265625 0.953125 0.265625q1.015625 0 1.59375 -1.0625q0.59375 -1.0625 0.59375 -2.46875l0 -1.359375z" fill-rule="nonzero"/><path fill="#000000" d="m479.43665 122.12908q0.84375 0.375 1.28125 1.046875q0.453125 0.65625 0.453125 1.375q0 1.109375 -0.890625 1.953125q-0.890625 0.84375 -2.25 0.84375q-0.78125 0 -1.640625 -0.328125q-0.84375 -0.34375 -1.1875 -0.703125q-0.109375 -0.109375 -0.109375 -0.25q0 -0.109375 0.078125 -0.1875q0.09375 -0.09375 0.21875 -0.09375q0.109375 0 0.265625 0.109375q1.125 0.84375 2.390625 0.84375q1.078125 0 1.796875 -0.671875q0.71875 -0.671875 0.71875 -1.5q0 -0.546875 -0.359375 -1.0625q-0.34375 -0.53125 -1.015625 -0.828125q-0.671875 -0.3125 -1.34375 -0.3125q-0.21875 0 -0.328125 -0.078125q-0.09375 -0.09375 -0.09375 -0.234375q0 -0.125 0.09375 -0.21875q0.09375 -0.09375 0.28125 -0.09375l0.53125 0.015625q0.828125 0 1.359375 -0.5q0.546875 -0.515625 0.546875 -1.171875q0 -0.6875 -0.578125 -1.21875q-0.5625 -0.53125 -1.46875 -0.53125q-0.640625 0 -1.171875 0.21875q-0.53125 0.21875 -0.859375 0.609375q-0.109375 0.140625 -0.171875 0.171875q-0.0625 0.03125 -0.140625 0.03125q-0.125 0 -0.21875 -0.078125q-0.078125 -0.09375 -0.078125 -0.203125q0 -0.296875 0.625 -0.75q0.890625 -0.609375 2.015625 -0.609375q1.171875 0 1.90625 0.703125q0.75 0.6875 0.75 1.65625q0 0.609375 -0.359375 1.171875q-0.359375 0.546875 -1.046875 0.875zm6.51709 2.78125l2.0 0l-2.171875 4.0468674q-0.203125 0.375 -0.484375 0.375q-0.171875 0 -0.3125 -0.140625q-0.125 -0.125 -0.125 -0.296875q0 -0.078125 0.03125 -0.171875l1.0625 -3.8124924zm10.532715 -7.09375l0 8.703125l2.109375 0q0.21875 0 0.3125 0.078125q0.09375 0.078125 0.09375 0.21875q0 0.140625 -0.09375 0.234375q-0.09375 0.078125 -0.3125 0.078125l-4.84375 0q-0.21875 0 -0.3125 -0.078125q-0.09375 -0.09375 -0.09375 -0.234375q0 -0.140625 0.09375 -0.21875q0.09375 -0.078125 0.3125 -0.078125l2.109375 0l0 -7.859375l-2.0 0.625q-0.15625 0.046875 -0.21875 0.046875q-0.109375 0 -0.203125 -0.078125q-0.09375 -0.09375 -0.09375 -0.21875q0 -0.109375 0.078125 -0.21875q0.0625 -0.046875 0.25 -0.125l2.8125 -0.875z" fill-rule="nonzero"/><path fill="#000000" d="m527.8934 122.12908q0.84375 0.375 1.28125 1.046875q0.453125 0.65625 0.453125 1.375q0 1.109375 -0.890625 1.953125q-0.890625 0.84375 -2.25 0.84375q-0.78125 0 -1.640625 -0.328125q-0.84375 -0.34375 -1.1875 -0.703125q-0.109375 -0.109375 -0.109375 -0.25q0 -0.109375 0.078125 -0.1875q0.09375 -0.09375 0.21875 -0.09375q0.109375 0 0.265625 0.109375q1.125 0.84375 2.390625 0.84375q1.078125 0 1.796875 -0.671875q0.71875 -0.671875 0.71875 -1.5q0 -0.546875 -0.359375 -1.0625q-0.34375 -0.53125 -1.015625 -0.828125q-0.671875 -0.3125 -1.34375 -0.3125q-0.21875 0 -0.328125 -0.078125q-0.09375 -0.09375 -0.09375 -0.234375q0 -0.125 0.09375 -0.21875q0.09375 -0.09375 0.28125 -0.09375l0.53125 0.015625q0.828125 0 1.359375 -0.5q0.546875 -0.515625 0.546875 -1.171875q0 -0.6875 -0.578125 -1.21875q-0.5625 -0.53125 -1.46875 -0.53125q-0.640625 0 -1.171875 0.21875q-0.53125 0.21875 -0.859375 0.609375q-0.109375 0.140625 -0.171875 0.171875q-0.0625 0.03125 -0.140625 0.03125q-0.125 0 -0.21875 -0.078125q-0.078125 -0.09375 -0.078125 -0.203125q0 -0.296875 0.625 -0.75q0.890625 -0.609375 2.015625 -0.609375q1.171875 0 1.90625 0.703125q0.75 0.6875 0.75 1.65625q0 0.609375 -0.359375 1.171875q-0.359375 0.546875 -1.046875 0.875zm6.51709 2.78125l2.0 0l-2.171875 4.0468674q-0.203125 0.375 -0.484375 0.375q-0.171875 0 -0.3125 -0.140625q-0.125 -0.125 -0.125 -0.296875q0 -0.078125 0.03125 -0.171875l1.0625 -3.8124924zm7.57959 1.609375l4.71875 0l0 -0.25q0 -0.21875 0.078125 -0.3125q0.09375 -0.09375 0.234375 -0.09375q0.140625 0 0.21875 0.09375q0.09375 0.09375 0.09375 0.3125l0 0.859375l-5.953125 0l0 -0.90625q1.875 -1.6875 3.65625 -3.4375q0.828125 -0.8125 1.125 -1.1875q0.3125 -0.375 0.421875 -0.65625q0.109375 -0.296875 0.109375 -0.59375q0 -0.796875 -0.640625 -1.40625q-0.625 -0.609375 -1.53125 -0.609375q-0.796875 0 -1.421875 0.46875q-0.625 0.46875 -0.8125 1.140625q-0.046875 0.171875 -0.109375 0.234375q-0.078125 0.0625 -0.203125 0.0625q-0.125 0 -0.21875 -0.078125q-0.078125 -0.078125 -0.078125 -0.203125q0 -0.34375 0.390625 -0.9375q0.390625 -0.609375 1.0625 -0.953125q0.671875 -0.34375 1.390625 -0.34375q1.140625 0 1.96875 0.796875q0.828125 0.796875 0.828125 1.8125q0 0.421875 -0.140625 0.78125q-0.125 0.34375 -0.46875 0.765625q-0.328125 0.421875 -1.1875 1.265625q-2.171875 2.140625 -3.53125 3.328125l0 0.046875z" fill-rule="nonzero"/><path fill="#000000" d="m576.35004 122.12908q0.84375 0.375 1.28125 1.046875q0.453125 0.65625 0.453125 1.375q0 1.109375 -0.890625 1.953125q-0.890625 0.84375 -2.25 0.84375q-0.78125 0 -1.640625 -0.328125q-0.84375 -0.34375 -1.1875 -0.703125q-0.109375 -0.109375 -0.109375 -0.25q0 -0.109375 0.078125 -0.1875q0.09375 -0.09375 0.21875 -0.09375q0.109375 0 0.265625 0.109375q1.125 0.84375 2.390625 0.84375q1.078125 0 1.796875 -0.671875q0.71875 -0.671875 0.71875 -1.5q0 -0.546875 -0.359375 -1.0625q-0.34375 -0.53125 -1.015625 -0.828125q-0.671875 -0.3125 -1.34375 -0.3125q-0.21875 0 -0.328125 -0.078125q-0.09375 -0.09375 -0.09375 -0.234375q0 -0.125 0.09375 -0.21875q0.09375 -0.09375 0.28125 -0.09375l0.53125 0.015625q0.828125 0 1.359375 -0.5q0.546875 -0.515625 0.546875 -1.171875q0 -0.6875 -0.578125 -1.21875q-0.5625 -0.53125 -1.46875 -0.53125q-0.640625 0 -1.171875 0.21875q-0.53125 0.21875 -0.859375 0.609375q-0.109375 0.140625 -0.171875 0.171875q-0.0625 0.03125 -0.140625 0.03125q-0.125 0 -0.21875 -0.078125q-0.078125 -0.09375 -0.078125 -0.203125q0 -0.296875 0.625 -0.75q0.890625 -0.609375 2.015625 -0.609375q1.171875 0 1.90625 0.703125q0.75 0.6875 0.75 1.65625q0 0.609375 -0.359375 1.171875q-0.359375 0.546875 -1.046875 0.875zm6.51709 2.78125l2.0 0l-2.171875 4.0468674q-0.203125 0.375 -0.484375 0.375q-0.171875 0 -0.3125 -0.140625q-0.125 -0.125 -0.125 -0.296875q0 -0.078125 0.03125 -0.171875l1.0625 -3.8124924zm11.48584 -2.78125q0.84375 0.375 1.28125 1.046875q0.453125 0.65625 0.453125 1.375q0 1.109375 -0.890625 1.953125q-0.890625 0.84375 -2.25 0.84375q-0.78125 0 -1.640625 -0.328125q-0.84375 -0.34375 -1.1875 -0.703125q-0.109375 -0.109375 -0.109375 -0.25q0 -0.109375 0.078125 -0.1875q0.09375 -0.09375 0.21875 -0.09375q0.109375 0 0.265625 0.109375q1.125 0.84375 2.390625 0.84375q1.078125 0 1.796875 -0.671875q0.71875 -0.671875 0.71875 -1.5q0 -0.546875 -0.359375 -1.0625q-0.34375 -0.53125 -1.015625 -0.828125q-0.671875 -0.3125 -1.34375 -0.3125q-0.21875 0 -0.328125 -0.078125q-0.09375 -0.09375 -0.09375 -0.234375q0 -0.125 0.09375 -0.21875q0.09375 -0.09375 0.28125 -0.09375l0.53125 0.015625q0.828125 0 1.359375 -0.5q0.546875 -0.515625 0.546875 -1.171875q0 -0.6875 -0.578125 -1.21875q-0.5625 -0.53125 -1.46875 -0.53125q-0.640625 0 -1.171875 0.21875q-0.53125 0.21875 -0.859375 0.609375q-0.109375 0.140625 -0.171875 0.171875q-0.0625 0.03125 -0.140625 0.03125q-0.125 0 -0.21875 -0.078125q-0.078125 -0.09375 -0.078125 -0.203125q0 -0.296875 0.625 -0.75q0.890625 -0.609375 2.015625 -0.609375q1.171875 0 1.90625 0.703125q0.75 0.6875 0.75 1.65625q0 0.609375 -0.359375 1.171875q-0.359375 0.546875 -1.046875 0.875z" fill-rule="nonzero"/><path fill="#000000" d="m427.0737 177.02103l4.71875 0l0 -0.25q0 -0.21875 0.078125 -0.3125q0.09375 -0.09375 0.234375 -0.09375q0.140625 0 0.21875 0.09375q0.09375 0.09375 0.09375 0.3125l0 0.859375l-5.953125 0l0 -0.90625q1.875 -1.6875 3.65625 -3.4375q0.828125 -0.8125 1.125 -1.1875q0.3125 -0.375 0.421875 -0.65625q0.109375 -0.296875 0.109375 -0.59375q0 -0.796875 -0.640625 -1.40625q-0.625 -0.609375 -1.53125 -0.609375q-0.796875 0 -1.421875 0.46875q-0.625 0.46875 -0.8125 1.140625q-0.046875 0.171875 -0.109375 0.234375q-0.078125 0.0625 -0.203125 0.0625q-0.125 0 -0.21875 -0.078125q-0.078125 -0.078125 -0.078125 -0.203125q0 -0.34375 0.390625 -0.9375q0.390625 -0.609375 1.0625 -0.953125q0.671875 -0.34375 1.390625 -0.34375q1.140625 0 1.96875 0.796875q0.828125 0.796875 0.828125 1.8125q0 0.421875 -0.140625 0.78125q-0.125 0.34375 -0.46875 0.765625q-0.328125 0.421875 -1.1875 1.265625q-2.171875 2.140625 -3.53125 3.328125l0 0.046875zm10.42334 -1.609375l2.0 0l-2.171875 4.0468597q-0.203125 0.375 -0.484375 0.375q-0.171875 0 -0.3125 -0.140625q-0.125 -0.125 -0.125 -0.296875q0 -0.078125 0.03125 -0.171875l1.0625 -3.8124847zm13.04834 -3.140625l0 1.53125q0 1.984375 -0.953125 3.140625q-0.734375 0.90625 -1.859375 0.90625q-0.546875 0 -1.03125 -0.21875q-0.46875 -0.21875 -0.8125 -0.59375q-0.203125 -0.25 -0.46875 -0.78125q-0.25 -0.53125 -0.359375 -0.984375q-0.171875 -0.625 -0.171875 -1.46875l0 -1.53125q0 -1.984375 0.953125 -3.140625q0.734375 -0.90625 1.859375 -0.90625q0.5625 0 1.03125 0.21875q0.46875 0.203125 0.8125 0.59375q0.21875 0.25 0.46875 0.796875q0.25 0.53125 0.359375 0.96875q0.171875 0.625 0.171875 1.46875zm-0.625 0.078125q0 -0.859375 -0.25 -1.609375q-0.234375 -0.75 -0.546875 -1.203125q-0.171875 -0.25 -0.46875 -0.4375q-0.421875 -0.265625 -0.9375 -0.265625q-1.03125 0 -1.625 1.0625q-0.578125 1.046875 -0.578125 2.453125l0 1.359375q0 0.875 0.234375 1.640625q0.25 0.75 0.5625 1.1875q0.1875 0.25 0.46875 0.4375q0.421875 0.265625 0.953125 0.265625q1.015625 0 1.59375 -1.0625q0.59375 -1.0625 0.59375 -2.46875l0 -1.359375z" fill-rule="nonzero"/><path fill="#000000" d="m475.5304 177.02103l4.71875 0l0 -0.25q0 -0.21875 0.078125 -0.3125q0.09375 -0.09375 0.234375 -0.09375q0.140625 0 0.21875 0.09375q0.09375 0.09375 0.09375 0.3125l0 0.859375l-5.953125 0l0 -0.90625q1.875 -1.6875 3.65625 -3.4375q0.828125 -0.8125 1.125 -1.1875q0.3125 -0.375 0.421875 -0.65625q0.109375 -0.296875 0.109375 -0.59375q0 -0.796875 -0.640625 -1.40625q-0.625 -0.609375 -1.53125 -0.609375q-0.796875 0 -1.421875 0.46875q-0.625 0.46875 -0.8125 1.140625q-0.046875 0.171875 -0.109375 0.234375q-0.078125 0.0625 -0.203125 0.0625q-0.125 0 -0.21875 -0.078125q-0.078125 -0.078125 -0.078125 -0.203125q0 -0.34375 0.390625 -0.9375q0.390625 -0.609375 1.0625 -0.953125q0.671875 -0.34375 1.390625 -0.34375q1.140625 0 1.96875 0.796875q0.828125 0.796875 0.828125 1.8125q0 0.421875 -0.140625 0.78125q-0.125 0.34375 -0.46875 0.765625q-0.328125 0.421875 -1.1875 1.265625q-2.171875 2.140625 -3.53125 3.328125l0 0.046875zm10.42334 -1.609375l2.0 0l-2.171875 4.0468597q-0.203125 0.375 -0.484375 0.375q-0.171875 0 -0.3125 -0.140625q-0.125 -0.125 -0.125 -0.296875q0 -0.078125 0.03125 -0.171875l1.0625 -3.8124847zm10.532715 -7.09375l0 8.703125l2.109375 0q0.21875 0 0.3125 0.078125q0.09375 0.078125 0.09375 0.21875q0 0.140625 -0.09375 0.234375q-0.09375 0.078125 -0.3125 0.078125l-4.84375 0q-0.21875 0 -0.3125 -0.078125q-0.09375 -0.09375 -0.09375 -0.234375q0 -0.140625 0.09375 -0.21875q0.09375 -0.078125 0.3125 -0.078125l2.109375 0l0 -7.859375l-2.0 0.625q-0.15625 0.046875 -0.21875 0.046875q-0.109375 0 -0.203125 -0.078125q-0.09375 -0.09375 -0.09375 -0.21875q0 -0.109375 0.078125 -0.21875q0.0625 -0.046875 0.25 -0.125l2.8125 -0.875z" fill-rule="nonzero"/><path fill="#000000" d="m523.9871 177.02103l4.71875 0l0 -0.25q0 -0.21875 0.078125 -0.3125q0.09375 -0.09375 0.234375 -0.09375q0.140625 0 0.21875 0.09375q0.09375 0.09375 0.09375 0.3125l0 0.859375l-5.953125 0l0 -0.90625q1.875 -1.6875 3.65625 -3.4375q0.828125 -0.8125 1.125 -1.1875q0.3125 -0.375 0.421875 -0.65625q0.109375 -0.296875 0.109375 -0.59375q0 -0.796875 -0.640625 -1.40625q-0.625 -0.609375 -1.53125 -0.609375q-0.796875 0 -1.421875 0.46875q-0.625 0.46875 -0.8125 1.140625q-0.046875 0.171875 -0.109375 0.234375q-0.078125 0.0625 -0.203125 0.0625q-0.125 0 -0.21875 -0.078125q-0.078125 -0.078125 -0.078125 -0.203125q0 -0.34375 0.390625 -0.9375q0.390625 -0.609375 1.0625 -0.953125q0.671875 -0.34375 1.390625 -0.34375q1.140625 0 1.96875 0.796875q0.828125 0.796875 0.828125 1.8125q0 0.421875 -0.140625 0.78125q-0.125 0.34375 -0.46875 0.765625q-0.328125 0.421875 -1.1875 1.265625q-2.171875 2.140625 -3.53125 3.328125l0 0.046875zm10.42334 -1.609375l2.0 0l-2.171875 4.0468597q-0.203125 0.375 -0.484375 0.375q-0.171875 0 -0.3125 -0.140625q-0.125 -0.125 -0.125 -0.296875q0 -0.078125 0.03125 -0.171875l1.0625 -3.8124847zm7.57959 1.609375l4.71875 0l0 -0.25q0 -0.21875 0.078125 -0.3125q0.09375 -0.09375 0.234375 -0.09375q0.140625 0 0.21875 0.09375q0.09375 0.09375 0.09375 0.3125l0 0.859375l-5.953125 0l0 -0.90625q1.875 -1.6875 3.65625 -3.4375q0.828125 -0.8125 1.125 -1.1875q0.3125 -0.375 0.421875 -0.65625q0.109375 -0.296875 0.109375 -0.59375q0 -0.796875 -0.640625 -1.40625q-0.625 -0.609375 -1.53125 -0.609375q-0.796875 0 -1.421875 0.46875q-0.625 0.46875 -0.8125 1.140625q-0.046875 0.171875 -0.109375 0.234375q-0.078125 0.0625 -0.203125 0.0625q-0.125 0 -0.21875 -0.078125q-0.078125 -0.078125 -0.078125 -0.203125q0 -0.34375 0.390625 -0.9375q0.390625 -0.609375 1.0625 -0.953125q0.671875 -0.34375 1.390625 -0.34375q1.140625 0 1.96875 0.796875q0.828125 0.796875 0.828125 1.8125q0 0.421875 -0.140625 0.78125q-0.125 0.34375 -0.46875 0.765625q-0.328125 0.421875 -1.1875 1.265625q-2.171875 2.140625 -3.53125 3.328125l0 0.046875z" fill-rule="nonzero"/><path fill="#000000" d="m572.4438 177.02103l4.71875 0l0 -0.25q0 -0.21875 0.078125 -0.3125q0.09375 -0.09375 0.234375 -0.09375q0.140625 0 0.21875 0.09375q0.09375 0.09375 0.09375 0.3125l0 0.859375l-5.953125 0l0 -0.90625q1.875 -1.6875 3.65625 -3.4375q0.828125 -0.8125 1.125 -1.1875q0.3125 -0.375 0.421875 -0.65625q0.109375 -0.296875 0.109375 -0.59375q0 -0.796875 -0.640625 -1.40625q-0.625 -0.609375 -1.53125 -0.609375q-0.796875 0 -1.421875 0.46875q-0.625 0.46875 -0.8125 1.140625q-0.046875 0.171875 -0.109375 0.234375q-0.078125 0.0625 -0.203125 0.0625q-0.125 0 -0.21875 -0.078125q-0.078125 -0.078125 -0.078125 -0.203125q0 -0.34375 0.390625 -0.9375q0.390625 -0.609375 1.0625 -0.953125q0.671875 -0.34375 1.390625 -0.34375q1.140625 0 1.96875 0.796875q0.828125 0.796875 0.828125 1.8125q0 0.421875 -0.140625 0.78125q-0.125 0.34375 -0.46875 0.765625q-0.328125 0.421875 -1.1875 1.265625q-2.171875 2.140625 -3.53125 3.328125l0 0.046875zm10.42334 -1.609375l2.0 0l-2.171875 4.0468597q-0.203125 0.375 -0.484375 0.375q-0.171875 0 -0.3125 -0.140625q-0.125 -0.125 -0.125 -0.296875q0 -0.078125 0.03125 -0.171875l1.0625 -3.8124847zm11.48584 -2.78125q0.84375 0.375 1.28125 1.046875q0.453125 0.65625 0.453125 1.375q0 1.109375 -0.890625 1.953125q-0.890625 0.84375 -2.25 0.84375q-0.78125 0 -1.640625 -0.328125q-0.84375 -0.34375 -1.1875 -0.703125q-0.109375 -0.109375 -0.109375 -0.25q0 -0.109375 0.078125 -0.1875q0.09375 -0.09375 0.21875 -0.09375q0.109375 0 0.265625 0.109375q1.125 0.84375 2.390625 0.84375q1.078125 0 1.796875 -0.671875q0.71875 -0.671875 0.71875 -1.5q0 -0.546875 -0.359375 -1.0625q-0.34375 -0.53125 -1.015625 -0.828125q-0.671875 -0.3125 -1.34375 -0.3125q-0.21875 0 -0.328125 -0.078125q-0.09375 -0.09375 -0.09375 -0.234375q0 -0.125 0.09375 -0.21875q0.09375 -0.09375 0.28125 -0.09375l0.53125 0.015625q0.828125 0 1.359375 -0.5q0.546875 -0.515625 0.546875 -1.171875q0 -0.6875 -0.578125 -1.21875q-0.5625 -0.53125 -1.46875 -0.53125q-0.640625 0 -1.171875 0.21875q-0.53125 0.21875 -0.859375 0.609375q-0.109375 0.140625 -0.171875 0.171875q-0.0625 0.03125 -0.140625 0.03125q-0.125 0 -0.21875 -0.078125q-0.078125 -0.09375 -0.078125 -0.203125q0 -0.296875 0.625 -0.75q0.890625 -0.609375 2.015625 -0.609375q1.171875 0 1.90625 0.703125q0.75 0.6875 0.75 1.65625q0 0.609375 -0.359375 1.171875q-0.359375 0.546875 -1.046875 0.875z" fill-rule="nonzero"/><path fill="#000000" d="m430.02682 218.81921l0 8.703125l2.109375 0q0.21875 0 0.3125 0.078125q0.09375 0.078125 0.09375 0.21875q0 0.140625 -0.09375 0.234375q-0.09375 0.078125 -0.3125 0.078125l-4.84375 0q-0.21875 0 -0.3125 -0.078125q-0.09375 -0.09375 -0.09375 -0.234375q0 -0.140625 0.09375 -0.21875q0.09375 -0.078125 0.3125 -0.078125l2.109375 0l0 -7.859375l-2.0 0.625q-0.15625 0.046875 -0.21875 0.046875q-0.109375 0 -0.203125 -0.078125q-0.09375 -0.09375 -0.09375 -0.21875q0 -0.109375 0.078125 -0.21875q0.0625 -0.046875 0.25 -0.125l2.8125 -0.875zm7.470215 7.09375l2.0 0l-2.171875 4.0468597q-0.203125 0.375 -0.484375 0.375q-0.171875 0 -0.3125 -0.140625q-0.125 -0.125 -0.125 -0.296875q0 -0.078125 0.03125 -0.171875l1.0625 -3.8124847zm13.04834 -3.140625l0 1.53125q0 1.984375 -0.953125 3.140625q-0.734375 0.90625 -1.859375 0.90625q-0.546875 0 -1.03125 -0.21875q-0.46875 -0.21875 -0.8125 -0.59375q-0.203125 -0.25 -0.46875 -0.78125q-0.25 -0.53125 -0.359375 -0.984375q-0.171875 -0.625 -0.171875 -1.46875l0 -1.53125q0 -1.984375 0.953125 -3.140625q0.734375 -0.90625 1.859375 -0.90625q0.5625 0 1.03125 0.21875q0.46875 0.203125 0.8125 0.59375q0.21875 0.25 0.46875 0.796875q0.25 0.53125 0.359375 0.96875q0.171875 0.625 0.171875 1.46875zm-0.625 0.078125q0 -0.859375 -0.25 -1.609375q-0.234375 -0.75 -0.546875 -1.203125q-0.171875 -0.25 -0.46875 -0.4375q-0.421875 -0.265625 -0.9375 -0.265625q-1.03125 0 -1.625 1.0625q-0.578125 1.046875 -0.578125 2.453125l0 1.359375q0 0.875 0.234375 1.640625q0.25 0.75 0.5625 1.1875q0.1875 0.25 0.46875 0.4375q0.421875 0.265625 0.953125 0.265625q1.015625 0 1.59375 -1.0625q0.59375 -1.0625 0.59375 -2.46875l0 -1.359375z" fill-rule="nonzero"/><path fill="#000000" d="m478.48352 218.81921l0 8.703125l2.109375 0q0.21875 0 0.3125 0.078125q0.09375 0.078125 0.09375 0.21875q0 0.140625 -0.09375 0.234375q-0.09375 0.078125 -0.3125 0.078125l-4.84375 0q-0.21875 0 -0.3125 -0.078125q-0.09375 -0.09375 -0.09375 -0.234375q0 -0.140625 0.09375 -0.21875q0.09375 -0.078125 0.3125 -0.078125l2.109375 0l0 -7.859375l-2.0 0.625q-0.15625 0.046875 -0.21875 0.046875q-0.109375 0 -0.203125 -0.078125q-0.09375 -0.09375 -0.09375 -0.21875q0 -0.109375 0.078125 -0.21875q0.0625 -0.046875 0.25 -0.125l2.8125 -0.875zm7.470215 7.09375l2.0 0l-2.171875 4.0468597q-0.203125 0.375 -0.484375 0.375q-0.171875 0 -0.3125 -0.140625q-0.125 -0.125 -0.125 -0.296875q0 -0.078125 0.03125 -0.171875l1.0625 -3.8124847zm10.532715 -7.09375l0 8.703125l2.109375 0q0.21875 0 0.3125 0.078125q0.09375 0.078125 0.09375 0.21875q0 0.140625 -0.09375 0.234375q-0.09375 0.078125 -0.3125 0.078125l-4.84375 0q-0.21875 0 -0.3125 -0.078125q-0.09375 -0.09375 -0.09375 -0.234375q0 -0.140625 0.09375 -0.21875q0.09375 -0.078125 0.3125 -0.078125l2.109375 0l0 -7.859375l-2.0 0.625q-0.15625 0.046875 -0.21875 0.046875q-0.109375 0 -0.203125 -0.078125q-0.09375 -0.09375 -0.09375 -0.21875q0 -0.109375 0.078125 -0.21875q0.0625 -0.046875 0.25 -0.125l2.8125 -0.875z" fill-rule="nonzero"/><path fill="#000000" d="m526.94025 218.81921l0 8.703125l2.109375 0q0.21875 0 0.3125 0.078125q0.09375 0.078125 0.09375 0.21875q0 0.140625 -0.09375 0.234375q-0.09375 0.078125 -0.3125 0.078125l-4.84375 0q-0.21875 0 -0.3125 -0.078125q-0.09375 -0.09375 -0.09375 -0.234375q0 -0.140625 0.09375 -0.21875q0.09375 -0.078125 0.3125 -0.078125l2.109375 0l0 -7.859375l-2.0 0.625q-0.15625 0.046875 -0.21875 0.046875q-0.109375 0 -0.203125 -0.078125q-0.09375 -0.09375 -0.09375 -0.21875q0 -0.109375 0.078125 -0.21875q0.0625 -0.046875 0.25 -0.125l2.8125 -0.875zm7.470215 7.09375l2.0 0l-2.171875 4.0468597q-0.203125 0.375 -0.484375 0.375q-0.171875 0 -0.3125 -0.140625q-0.125 -0.125 -0.125 -0.296875q0 -0.078125 0.03125 -0.171875l1.0625 -3.8124847zm7.57959 1.609375l4.71875 0l0 -0.25q0 -0.21875 0.078125 -0.3125q0.09375 -0.09375 0.234375 -0.09375q0.140625 0 0.21875 0.09375q0.09375 0.09375 0.09375 0.3125l0 0.859375l-5.953125 0l0 -0.90625q1.875 -1.6875 3.65625 -3.4375q0.828125 -0.8125 1.125 -1.1875q0.3125 -0.375 0.421875 -0.65625q0.109375 -0.296875 0.109375 -0.59375q0 -0.796875 -0.640625 -1.40625q-0.625 -0.609375 -1.53125 -0.609375q-0.796875 0 -1.421875 0.46875q-0.625 0.46875 -0.8125 1.140625q-0.046875 0.171875 -0.109375 0.234375q-0.078125 0.0625 -0.203125 0.0625q-0.125 0 -0.21875 -0.078125q-0.078125 -0.078125 -0.078125 -0.203125q0 -0.34375 0.390625 -0.9375q0.390625 -0.609375 1.0625 -0.953125q0.671875 -0.34375 1.390625 -0.34375q1.140625 0 1.96875 0.796875q0.828125 0.796875 0.828125 1.8125q0 0.421875 -0.140625 0.78125q-0.125 0.34375 -0.46875 0.765625q-0.328125 0.421875 -1.1875 1.265625q-2.171875 2.140625 -3.53125 3.328125l0 0.046875z" fill-rule="nonzero"/><path fill="#000000" d="m575.3969 218.81921l0 8.703125l2.109375 0q0.21875 0 0.3125 0.078125q0.09375 0.078125 0.09375 0.21875q0 0.140625 -0.09375 0.234375q-0.09375 0.078125 -0.3125 0.078125l-4.84375 0q-0.21875 0 -0.3125 -0.078125q-0.09375 -0.09375 -0.09375 -0.234375q0 -0.140625 0.09375 -0.21875q0.09375 -0.078125 0.3125 -0.078125l2.109375 0l0 -7.859375l-2.0 0.625q-0.15625 0.046875 -0.21875 0.046875q-0.109375 0 -0.203125 -0.078125q-0.09375 -0.09375 -0.09375 -0.21875q0 -0.109375 0.078125 -0.21875q0.0625 -0.046875 0.25 -0.125l2.8125 -0.875zm7.470215 7.09375l2.0 0l-2.171875 4.0468597q-0.203125 0.375 -0.484375 0.375q-0.171875 0 -0.3125 -0.140625q-0.125 -0.125 -0.125 -0.296875q0 -0.078125 0.03125 -0.171875l1.0625 -3.8124847zm11.48584 -2.78125q0.84375 0.375 1.28125 1.046875q0.453125 0.65625 0.453125 1.375q0 1.109375 -0.890625 1.953125q-0.890625 0.84375 -2.25 0.84375q-0.78125 0 -1.640625 -0.328125q-0.84375 -0.34375 -1.1875 -0.703125q-0.109375 -0.109375 -0.109375 -0.25q0 -0.109375 0.078125 -0.1875q0.09375 -0.09375 0.21875 -0.09375q0.109375 0 0.265625 0.109375q1.125 0.84375 2.390625 0.84375q1.078125 0 1.796875 -0.671875q0.71875 -0.671875 0.71875 -1.5q0 -0.546875 -0.359375 -1.0625q-0.34375 -0.53125 -1.015625 -0.828125q-0.671875 -0.3125 -1.34375 -0.3125q-0.21875 0 -0.328125 -0.078125q-0.09375 -0.09375 -0.09375 -0.234375q0 -0.125 0.09375 -0.21875q0.09375 -0.09375 0.28125 -0.09375l0.53125 0.015625q0.828125 0 1.359375 -0.5q0.546875 -0.515625 0.546875 -1.171875q0 -0.6875 -0.578125 -1.21875q-0.5625 -0.53125 -1.46875 -0.53125q-0.640625 0 -1.171875 0.21875q-0.53125 0.21875 -0.859375 0.609375q-0.109375 0.140625 -0.171875 0.171875q-0.0625 0.03125 -0.140625 0.03125q-0.125 0 -0.21875 -0.078125q-0.078125 -0.09375 -0.078125 -0.203125q0 -0.296875 0.625 -0.75q0.890625 -0.609375 2.015625 -0.609375q1.171875 0 1.90625 0.703125q0.75 0.6875 0.75 1.65625q0 0.609375 -0.359375 1.171875q-0.359375 0.546875 -1.046875 0.875z" fill-rule="nonzero"/><path fill="#000000" d="m432.54245 273.27365l0 1.53125q0 1.984375 -0.953125 3.140625q-0.734375 0.90625 -1.859375 0.90625q-0.546875 0 -1.03125 -0.21875q-0.46875 -0.21875 -0.8125 -0.59375q-0.203125 -0.25 -0.46875 -0.78125q-0.25 -0.53125 -0.359375 -0.984375q-0.171875 -0.625 -0.171875 -1.46875l0 -1.53125q0 -1.984375 0.953125 -3.140625q0.734375 -0.90625 1.859375 -0.90625q0.5625 0 1.03125 0.21875q0.46875 0.203125 0.8125 0.59375q0.21875 0.25 0.46875 0.796875q0.25 0.53125 0.359375 0.96875q0.171875 0.625 0.171875 1.46875zm-0.625 0.078125q0 -0.859375 -0.25 -1.609375q-0.234375 -0.75 -0.546875 -1.203125q-0.171875 -0.25 -0.46875 -0.4375q-0.421875 -0.265625 -0.9375 -0.265625q-1.03125 0 -1.625 1.0625q-0.578125 1.046875 -0.578125 2.453125l0 1.359375q0 0.875 0.234375 1.640625q0.25 0.75 0.5625 1.1875q0.1875 0.25 0.46875 0.4375q0.421875 0.265625 0.953125 0.265625q1.015625 0 1.59375 -1.0625q0.59375 -1.0625 0.59375 -2.46875l0 -1.359375zm5.57959 3.0625l2.0 0l-2.171875 4.046875q-0.203125 0.375 -0.484375 0.375q-0.171875 0 -0.3125 -0.140625q-0.125 -0.125 -0.125 -0.296875q0 -0.078125 0.03125 -0.171875l1.0625 -3.8125zm13.04834 -3.140625l0 1.53125q0 1.984375 -0.953125 3.140625q-0.734375 0.90625 -1.859375 0.90625q-0.546875 0 -1.03125 -0.21875q-0.46875 -0.21875 -0.8125 -0.59375q-0.203125 -0.25 -0.46875 -0.78125q-0.25 -0.53125 -0.359375 -0.984375q-0.171875 -0.625 -0.171875 -1.46875l0 -1.53125q0 -1.984375 0.953125 -3.140625q0.734375 -0.90625 1.859375 -0.90625q0.5625 0 1.03125 0.21875q0.46875 0.203125 0.8125 0.59375q0.21875 0.25 0.46875 0.796875q0.25 0.53125 0.359375 0.96875q0.171875 0.625 0.171875 1.46875zm-0.625 0.078125q0 -0.859375 -0.25 -1.609375q-0.234375 -0.75 -0.546875 -1.203125q-0.171875 -0.25 -0.46875 -0.4375q-0.421875 -0.265625 -0.9375 -0.265625q-1.03125 0 -1.625 1.0625q-0.578125 1.046875 -0.578125 2.453125l0 1.359375q0 0.875 0.234375 1.640625q0.25 0.75 0.5625 1.1875q0.1875 0.25 0.46875 0.4375q0.421875 0.265625 0.953125 0.265625q1.015625 0 1.59375 -1.0625q0.59375 -1.0625 0.59375 -2.46875l0 -1.359375z" fill-rule="nonzero"/><path fill="#000000" d="m480.99915 273.27365l0 1.53125q0 1.984375 -0.953125 3.140625q-0.734375 0.90625 -1.859375 0.90625q-0.546875 0 -1.03125 -0.21875q-0.46875 -0.21875 -0.8125 -0.59375q-0.203125 -0.25 -0.46875 -0.78125q-0.25 -0.53125 -0.359375 -0.984375q-0.171875 -0.625 -0.171875 -1.46875l0 -1.53125q0 -1.984375 0.953125 -3.140625q0.734375 -0.90625 1.859375 -0.90625q0.5625 0 1.03125 0.21875q0.46875 0.203125 0.8125 0.59375q0.21875 0.25 0.46875 0.796875q0.25 0.53125 0.359375 0.96875q0.171875 0.625 0.171875 1.46875zm-0.625 0.078125q0 -0.859375 -0.25 -1.609375q-0.234375 -0.75 -0.546875 -1.203125q-0.171875 -0.25 -0.46875 -0.4375q-0.421875 -0.265625 -0.9375 -0.265625q-1.03125 0 -1.625 1.0625q-0.578125 1.046875 -0.578125 2.453125l0 1.359375q0 0.875 0.234375 1.640625q0.25 0.75 0.5625 1.1875q0.1875 0.25 0.46875 0.4375q0.421875 0.265625 0.953125 0.265625q1.015625 0 1.59375 -1.0625q0.59375 -1.0625 0.59375 -2.46875l0 -1.359375zm5.57959 3.0625l2.0 0l-2.171875 4.046875q-0.203125 0.375 -0.484375 0.375q-0.171875 0 -0.3125 -0.140625q-0.125 -0.125 -0.125 -0.296875q0 -0.078125 0.03125 -0.171875l1.0625 -3.8125zm10.532715 -7.09375l0 8.703125l2.109375 0q0.21875 0 0.3125 0.078125q0.09375 0.078125 0.09375 0.21875q0 0.140625 -0.09375 0.234375q-0.09375 0.078125 -0.3125 0.078125l-4.84375 0q-0.21875 0 -0.3125 -0.078125q-0.09375 -0.09375 -0.09375 -0.234375q0 -0.140625 0.09375 -0.21875q0.09375 -0.078125 0.3125 -0.078125l2.109375 0l0 -7.859375l-2.0 0.625q-0.15625 0.046875 -0.21875 0.046875q-0.109375 0 -0.203125 -0.078125q-0.09375 -0.09375 -0.09375 -0.21875q0 -0.109375 0.078125 -0.21875q0.0625 -0.046875 0.25 -0.125l2.8125 -0.875z" fill-rule="nonzero"/><path fill="#000000" d="m529.4559 273.27365l0 1.53125q0 1.984375 -0.953125 3.140625q-0.734375 0.90625 -1.859375 0.90625q-0.546875 0 -1.03125 -0.21875q-0.46875 -0.21875 -0.8125 -0.59375q-0.203125 -0.25 -0.46875 -0.78125q-0.25 -0.53125 -0.359375 -0.984375q-0.171875 -0.625 -0.171875 -1.46875l0 -1.53125q0 -1.984375 0.953125 -3.140625q0.734375 -0.90625 1.859375 -0.90625q0.5625 0 1.03125 0.21875q0.46875 0.203125 0.8125 0.59375q0.21875 0.25 0.46875 0.796875q0.25 0.53125 0.359375 0.96875q0.171875 0.625 0.171875 1.46875zm-0.625 0.078125q0 -0.859375 -0.25 -1.609375q-0.234375 -0.75 -0.546875 -1.203125q-0.171875 -0.25 -0.46875 -0.4375q-0.421875 -0.265625 -0.9375 -0.265625q-1.03125 0 -1.625 1.0625q-0.578125 1.046875 -0.578125 2.453125l0 1.359375q0 0.875 0.234375 1.640625q0.25 0.75 0.5625 1.1875q0.1875 0.25 0.46875 0.4375q0.421875 0.265625 0.953125 0.265625q1.015625 0 1.59375 -1.0625q0.59375 -1.0625 0.59375 -2.46875l0 -1.359375zm5.57959 3.0625l2.0 0l-2.171875 4.046875q-0.203125 0.375 -0.484375 0.375q-0.171875 0 -0.3125 -0.140625q-0.125 -0.125 -0.125 -0.296875q0 -0.078125 0.03125 -0.171875l1.0625 -3.8125zm7.57959 1.609375l4.71875 0l0 -0.25q0 -0.21875 0.078125 -0.3125q0.09375 -0.09375 0.234375 -0.09375q0.140625 0 0.21875 0.09375q0.09375 0.09375 0.09375 0.3125l0 0.859375l-5.953125 0l0 -0.90625q1.875 -1.6875 3.65625 -3.4375q0.828125 -0.8125 1.125 -1.1875q0.3125 -0.375 0.421875 -0.65625q0.109375 -0.296875 0.109375 -0.59375q0 -0.796875 -0.640625 -1.40625q-0.625 -0.609375 -1.53125 -0.609375q-0.796875 0 -1.421875 0.46875q-0.625 0.46875 -0.8125 1.140625q-0.046875 0.171875 -0.109375 0.234375q-0.078125 0.0625 -0.203125 0.0625q-0.125 0 -0.21875 -0.078125q-0.078125 -0.078125 -0.078125 -0.203125q0 -0.34375 0.390625 -0.9375q0.390625 -0.609375 1.0625 -0.953125q0.671875 -0.34375 1.390625 -0.34375q1.140625 0 1.96875 0.796875q0.828125 0.796875 0.828125 1.8125q0 0.421875 -0.140625 0.78125q-0.125 0.34375 -0.46875 0.765625q-0.328125 0.421875 -1.1875 1.265625q-2.171875 2.140625 -3.53125 3.328125l0 0.046875z" fill-rule="nonzero"/><path fill="#000000" d="m577.91254 273.27365l0 1.53125q0 1.984375 -0.953125 3.140625q-0.734375 0.90625 -1.859375 0.90625q-0.546875 0 -1.03125 -0.21875q-0.46875 -0.21875 -0.8125 -0.59375q-0.203125 -0.25 -0.46875 -0.78125q-0.25 -0.53125 -0.359375 -0.984375q-0.171875 -0.625 -0.171875 -1.46875l0 -1.53125q0 -1.984375 0.953125 -3.140625q0.734375 -0.90625 1.859375 -0.90625q0.5625 0 1.03125 0.21875q0.46875 0.203125 0.8125 0.59375q0.21875 0.25 0.46875 0.796875q0.25 0.53125 0.359375 0.96875q0.171875 0.625 0.171875 1.46875zm-0.625 0.078125q0 -0.859375 -0.25 -1.609375q-0.234375 -0.75 -0.546875 -1.203125q-0.171875 -0.25 -0.46875 -0.4375q-0.421875 -0.265625 -0.9375 -0.265625q-1.03125 0 -1.625 1.0625q-0.578125 1.046875 -0.578125 2.453125l0 1.359375q0 0.875 0.234375 1.640625q0.25 0.75 0.5625 1.1875q0.1875 0.25 0.46875 0.4375q0.421875 0.265625 0.953125 0.265625q1.015625 0 1.59375 -1.0625q0.59375 -1.0625 0.59375 -2.46875l0 -1.359375zm5.57959 3.0625l2.0 0l-2.171875 4.046875q-0.203125 0.375 -0.484375 0.375q-0.171875 0 -0.3125 -0.140625q-0.125 -0.125 -0.125 -0.296875q0 -0.078125 0.03125 -0.171875l1.0625 -3.8125zm11.48584 -2.78125q0.84375 0.375 1.28125 1.046875q0.453125 0.65625 0.453125 1.375q0 1.109375 -0.890625 1.953125q-0.890625 0.84375 -2.25 0.84375q-0.78125 0 -1.640625 -0.328125q-0.84375 -0.34375 -1.1875 -0.703125q-0.109375 -0.109375 -0.109375 -0.25q0 -0.109375 0.078125 -0.1875q0.09375 -0.09375 0.21875 -0.09375q0.109375 0 0.265625 0.109375q1.125 0.84375 2.390625 0.84375q1.078125 0 1.796875 -0.671875q0.71875 -0.671875 0.71875 -1.5q0 -0.546875 -0.359375 -1.0625q-0.34375 -0.53125 -1.015625 -0.828125q-0.671875 -0.3125 -1.34375 -0.3125q-0.21875 0 -0.328125 -0.078125q-0.09375 -0.09375 -0.09375 -0.234375q0 -0.125 0.09375 -0.21875q0.09375 -0.09375 0.28125 -0.09375l0.53125 0.015625q0.828125 0 1.359375 -0.5q0.546875 -0.515625 0.546875 -1.171875q0 -0.6875 -0.578125 -1.21875q-0.5625 -0.53125 -1.46875 -0.53125q-0.640625 0 -1.171875 0.21875q-0.53125 0.21875 -0.859375 0.609375q-0.109375 0.140625 -0.171875 0.171875q-0.0625 0.03125 -0.140625 0.03125q-0.125 0 -0.21875 -0.078125q-0.078125 -0.09375 -0.078125 -0.203125q0 -0.296875 0.625 -0.75q0.890625 -0.609375 2.015625 -0.609375q1.171875 0 1.90625 0.703125q0.75 0.6875 0.75 1.65625q0 0.609375 -0.359375 1.171875q-0.359375 0.546875 -1.046875 0.875z" fill-rule="nonzero"/><path fill="#000000" fill-opacity="0.0" d="m453.3701 46.83727l116.06296 0l0 48.125988l-116.06296 0z" fill-rule="evenodd"/><path fill="#000000" d="m472.69434 73.75727l0 -13.359379l1.765625 0l0 13.359379l-1.765625 0zm4.683319 0l0 -9.671875l1.46875 0l0 1.375q1.0625 -1.5937538 3.078125 -1.5937538q0.875 0 1.609375 0.3125038q0.734375 0.3125 1.09375 0.828125q0.375 0.5 0.515625 1.203125q0.09375 0.453125 0.09375 1.59375l0 5.953125l-1.640625 0l0 -5.890625q0 -1.0 -0.203125 -1.484375q-0.1875 -0.5 -0.671875 -0.796875q-0.484375 -0.296875 -1.140625 -0.296875q-1.046875 0 -1.8125 0.671875q-0.75 0.65625 -0.75 2.515625l0 5.28125l-1.640625 0zm16.641327 0l0 -1.21875q-0.90625 1.4375 -2.703125 1.4375q-1.15625 0 -2.125 -0.640625q-0.96875 -0.640625 -1.5 -1.78125q-0.53125 -1.140625 -0.53125 -2.625q0 -1.453125 0.484375 -2.625q0.484375 -1.1875 1.4375 -1.8125q0.96875 -0.6250038 2.171875 -0.6250038q0.875 0 1.546875 0.3750038q0.6875 0.359375 1.109375 0.953125l0 -4.796879l1.640625 0l0 13.359379l-1.53125 0zm-5.171875 -4.828125q0 1.859375 0.78125 2.78125q0.78125 0.921875 1.84375 0.921875q1.078125 0 1.828125 -0.875q0.75 -0.890625 0.75 -2.6875q0 -1.984375 -0.765625 -2.90625q-0.765625 -0.9375 -1.890625 -0.9375q-1.078125 0 -1.8125 0.890625q-0.734375 0.890625 -0.734375 2.8125zm15.906982 1.71875l1.6875 0.203125q-0.40625 1.484375 -1.484375 2.3125q-1.078125 0.8125 -2.765625 0.8125q-2.125 0 -3.375 -1.296875q-1.234375 -1.3125 -1.234375 -3.671875q0 -2.453125 1.25 -3.796875q1.265625 -1.3437538 3.265625 -1.3437538q1.9375 0 3.15625 1.3281288q1.234375 1.3125 1.234375 3.703125q0 0.15625 0 0.4375l-7.21875 0q0.09375 1.59375 0.90625 2.453125q0.8125 0.84375 2.015625 0.84375q0.90625 0 1.546875 -0.46875q0.640625 -0.484375 1.015625 -1.515625zm-5.390625 -2.65625l5.40625 0q-0.109375 -1.21875 -0.625 -1.828125q-0.78125 -0.953125 -2.03125 -0.953125q-1.125 0 -1.90625 0.765625q-0.765625 0.75 -0.84375 2.015625zm8.047577 5.765625l3.53125 -5.03125l-3.265625 -4.640625l2.046875 0l1.484375 2.265625q0.421875 0.640625 0.671875 1.078125q0.40628052 -0.59375 0.7344055 -1.0625l1.640625 -2.28125l1.953125 0l-3.34375 4.546875l3.59375 5.125l-2.015625 0l-1.984375 -3.0l-0.5156555 -0.8125l-2.546875 3.8125l-1.984375 0zm16.87503 -5.234375l0 -1.578125l5.65625 0l0 4.953125q-1.296875 1.046875 -2.6875 1.578125q-1.375 0.515625 -2.84375 0.515625q-1.96875 0 -3.578125 -0.84375q-1.609375 -0.84375 -2.421875 -2.4375q-0.8125 -1.59375 -0.8125 -3.5625q0 -1.953125 0.8125 -3.6406288q0.8125 -1.6875 2.34375 -2.5q1.53125 -0.828125 3.515625 -0.828125q1.453125 0 2.625 0.46875q1.171875 0.46875 1.828125 1.3125q0.671875 0.828125 1.015625 2.1718788l-1.59375 0.4375q-0.296875 -1.0156288 -0.75 -1.5937538q-0.4375 -0.59375 -1.265625 -0.9375q-0.828125 -0.34375 -1.84375 -0.34375q-1.203125 0 -2.09375 0.375q-0.890625 0.359375 -1.4375 0.96875q-0.53125 0.59375 -0.828125 1.3125038q-0.515625 1.234375 -0.515625 2.6875q0 1.78125 0.609375 2.984375q0.625 1.203125 1.796875 1.796875q1.171875 0.578125 2.5 0.578125q1.140625 0 2.234375 -0.4375q1.09375 -0.453125 1.65625 -0.953125l0 -2.484375l-3.921875 0zm8.042664 5.234375l0 -9.671875l1.46875 0l0 1.46875q0.5625 -1.03125 1.03125 -1.359375q0.484375 -0.3281288 1.0625 -0.3281288q0.828125 0 1.6875 0.5312538l-0.5625 1.515625q-0.609375 -0.359375 -1.203125 -0.359375q-0.546875 0 -0.96875 0.328125q-0.421875 0.328125 -0.609375 0.890625q-0.28125 0.875 -0.28125 1.921875l0 5.0625l-1.625 0zm6.2282715 -11.468754l0 -1.890625l1.640625 0l0 1.890625l-1.640625 0zm0 11.468754l0 -9.671875l1.640625 0l0 9.671875l-1.640625 0zm10.410461 0l0 -1.21875q-0.90625 1.4375 -2.703125 1.4375q-1.15625 0 -2.125 -0.640625q-0.96875 -0.640625 -1.5 -1.78125q-0.53125 -1.140625 -0.53125 -2.625q0 -1.453125 0.484375 -2.625q0.484375 -1.1875 1.4375 -1.8125q0.96875 -0.6250038 2.171875 -0.6250038q0.875 0 1.546875 0.3750038q0.6875 0.359375 1.109375 0.953125l0 -4.796879l1.640625 0l0 13.359379l-1.53125 0zm-5.171875 -4.828125q0 1.859375 0.78125 2.78125q0.78125 0.921875 1.84375 0.921875q1.078125 0 1.828125 -0.875q0.75 -0.890625 0.75 -2.6875q0 -1.984375 -0.765625 -2.90625q-0.765625 -0.9375 -1.890625 -0.9375q-1.078125 0 -1.8125 0.890625q-0.734375 0.890625 -0.734375 2.8125z" fill-rule="nonzero"/><path fill="#000000" fill-opacity="0.0" d="m406.11285 413.7638l206.77167 0l0 36.787384l-206.77167 0z" fill-rule="evenodd"/><path fill="#000000" d="m474.21844 440.68378l0 -13.359375l9.015625 0l0 1.578125l-7.25 0l0 4.140625l6.265625 0l0 1.578125l-6.265625 0l0 6.0625l-1.765625 0zm17.724121 -3.109375l1.6875 0.203125q-0.40625 1.484375 -1.484375 2.3125q-1.078125 0.8125 -2.765625 0.8125q-2.125 0 -3.375 -1.296875q-1.234375 -1.3125 -1.234375 -3.671875q0 -2.453125 1.25 -3.796875q1.265625 -1.34375 3.265625 -1.34375q1.9375 0 3.15625 1.328125q1.234375 1.3125 1.234375 3.703125q0 0.15625 0 0.4375l-7.21875 0q0.09375 1.59375 0.90625 2.453125q0.8125 0.84375 2.015625 0.84375q0.90625 0 1.546875 -0.46875q0.640625 -0.484375 1.015625 -1.515625zm-5.390625 -2.65625l5.40625 0q-0.109375 -1.21875 -0.625 -1.828125q-0.78125 -0.953125 -2.03125 -0.953125q-1.125 0 -1.90625 0.765625q-0.765625 0.75 -0.84375 2.015625zm15.453827 4.578125q-0.921875 0.765625 -1.765625 1.09375q-0.828125 0.3125 -1.796875 0.3125q-1.59375 0 -2.453125 -0.78125q-0.859375 -0.78125 -0.859375 -1.984375q0 -0.71875 0.328125 -1.296875q0.328125 -0.59375 0.84375 -0.9375q0.53125 -0.359375 1.1875 -0.546875q0.46875 -0.125 1.453125 -0.25q1.984375 -0.234375 2.921875 -0.5625q0.015625 -0.34375 0.015625 -0.421875q0 -1.0 -0.46875 -1.421875q-0.625 -0.546875 -1.875 -0.546875q-1.15625 0 -1.703125 0.40625q-0.546875 0.40625 -0.8125 1.421875l-1.609375 -0.21875q0.21875 -1.015625 0.71875 -1.640625q0.5 -0.640625 1.453125 -0.984375q0.953125 -0.34375 2.1875 -0.34375q1.25 0 2.015625 0.296875q0.78125 0.28125 1.140625 0.734375q0.375 0.4375 0.515625 1.109375q0.078125 0.421875 0.078125 1.515625l0 2.1875q0 2.28125 0.109375 2.890625q0.109375 0.59375 0.40625 1.15625l-1.703125 0q-0.265625 -0.515625 -0.328125 -1.1875zm-0.140625 -3.671875q-0.890625 0.375 -2.671875 0.625q-1.015625 0.140625 -1.4375 0.328125q-0.421875 0.1875 -0.65625 0.53125q-0.21875 0.34375 -0.21875 0.78125q0 0.65625 0.5 1.09375q0.5 0.4375 1.453125 0.4375q0.9375 0 1.671875 -0.40625q0.75 -0.421875 1.09375 -1.140625q0.265625 -0.5625 0.265625 -1.640625l0 -0.609375zm7.7819824 3.390625l0.234375 1.453125q-0.6875 0.140625 -1.234375 0.140625q-0.890625 0 -1.390625 -0.28125q-0.484375 -0.28125 -0.6875 -0.734375q-0.203125 -0.46875 -0.203125 -1.9375l0 -5.578125l-1.203125 0l0 -1.265625l1.203125 0l0 -2.390625l1.625 -0.984375l0 3.375l1.65625 0l0 1.265625l-1.65625 0l0 5.671875q0 0.6875 0.078125 0.890625q0.09375 0.203125 0.28125 0.328125q0.203125 0.109375 0.578125 0.109375q0.265625 0 0.71875 -0.0625zm7.933319 1.46875l0 -1.421875q-1.125 1.640625 -3.0625 1.640625q-0.859375 0 -1.609375 -0.328125q-0.734375 -0.328125 -1.0937805 -0.828125q-0.359375 -0.5 -0.5 -1.21875q-0.109375 -0.46875 -0.109375 -1.53125l0 -5.984375l1.6406555 0l0 5.359375q0 1.28125 0.109375 1.734375q0.15625 0.640625 0.65625 1.015625q0.5 0.375 1.234375 0.375q0.734375 0 1.375 -0.375q0.65625 -0.390625 0.921875 -1.03125q0.265625 -0.65625 0.265625 -1.890625l0 -5.1875l1.640625 0l0 9.671875l-1.46875 0zm4.0319214 0l0 -9.671875l1.46875 0l0 1.46875q0.5625 -1.03125 1.03125 -1.359375q0.484375 -0.328125 1.0625 -0.328125q0.828125 0 1.6875 0.53125l-0.5625 1.515625q-0.609375 -0.359375 -1.203125 -0.359375q-0.546875 0 -0.96875 0.328125q-0.421875 0.328125 -0.609375 0.890625q-0.28125 0.875 -0.28125 1.921875l0 5.0625l-1.625 0zm12.8533325 -3.109375l1.6875 0.203125q-0.40625 1.484375 -1.484375 2.3125q-1.078125 0.8125 -2.765625 0.8125q-2.125 0 -3.375 -1.296875q-1.234375 -1.3125 -1.234375 -3.671875q0 -2.453125 1.25 -3.796875q1.265625 -1.34375 3.265625 -1.34375q1.9375 0 3.15625 1.328125q1.234375 1.3125 1.234375 3.703125q0 0.15625 0 0.4375l-7.21875 0q0.09375 1.59375 0.90625 2.453125q0.8125 0.84375 2.015625 0.84375q0.90625 0 1.546875 -0.46875q0.640625 -0.484375 1.015625 -1.515625zm-5.390625 -2.65625l5.40625 0q-0.109375 -1.21875 -0.625 -1.828125q-0.78125 -0.953125 -2.03125 -0.953125q-1.125 0 -1.90625 0.765625q-0.765625 0.75 -0.84375 2.015625zm8.485107 2.875l1.625 -0.25q0.125 0.96875 0.75 1.5q0.625 0.515625 1.75 0.515625q1.125 0 1.671875 -0.453125q0.546875 -0.46875 0.546875 -1.09375q0 -0.546875 -0.484375 -0.875q-0.328125 -0.21875 -1.671875 -0.546875q-1.8125 -0.46875 -2.515625 -0.796875q-0.6875 -0.328125 -1.046875 -0.90625q-0.359375 -0.59375 -0.359375 -1.3125q0 -0.640625 0.296875 -1.1875q0.296875 -0.5625 0.8125 -0.921875q0.375 -0.28125 1.03125 -0.46875q0.671875 -0.203125 1.421875 -0.203125q1.140625 0 2.0 0.328125q0.859375 0.328125 1.265625 0.890625q0.421875 0.5625 0.578125 1.5l-1.609375 0.21875q-0.109375 -0.75 -0.640625 -1.171875q-0.515625 -0.421875 -1.46875 -0.421875q-1.140625 0 -1.625 0.375q-0.46875 0.375 -0.46875 0.875q0 0.3125 0.1875 0.578125q0.203125 0.265625 0.640625 0.4375q0.234375 0.09375 1.4375 0.421875q1.75 0.453125 2.4375 0.75q0.6875 0.296875 1.078125 0.859375q0.390625 0.5625 0.390625 1.40625q0 0.828125 -0.484375 1.546875q-0.46875 0.71875 -1.375 1.125q-0.90625 0.390625 -2.046875 0.390625q-1.875 0 -2.875 -0.78125q-0.984375 -0.78125 -1.25 -2.328125z" fill-rule="nonzero"/><path fill="#000000" fill-opacity="0.0" d="m569.43304 285.37796l-47.77948 104.53543" fill-rule="evenodd"/><path stroke="#000000" stroke-width="2.0" stroke-linejoin="round" stroke-linecap="butt" stroke-dasharray="8.0,6.0,2.0,6.0" d="m569.43304 285.37796l-42.791077 93.62143" fill-rule="evenodd"/><path fill="#000000" stroke="#000000" stroke-width="2.0" stroke-linecap="butt" d="m523.63745 377.62613l-0.76849365 9.628052l6.777527 -6.8815613z" fill-rule="evenodd"/><path fill="#000000" fill-opacity="0.0" d="m584.6037 133.88452l46.393677 255.49606" fill-rule="evenodd"/><path stroke="#000000" stroke-width="2.0" stroke-linejoin="round" stroke-linecap="butt" stroke-dasharray="8.0,6.0,2.0,6.0" d="m584.6037 133.88452l44.249756 243.68915" fill-rule="evenodd"/><path fill="#000000" stroke="#000000" stroke-width="2.0" stroke-linecap="butt" d="m625.60315 378.16385l4.871826 8.339966l1.6287842 -9.520355z" fill-rule="evenodd"/><path fill="#000000" fill-opacity="0.0" d="m530.1365 285.37796l-47.77951 104.53543" fill-rule="evenodd"/><path stroke="#000000" stroke-width="2.0" stroke-linejoin="round" stroke-linecap="butt" stroke-dasharray="8.0,6.0,2.0,6.0" d="m530.1365 285.37796l-42.791077 93.62143" fill-rule="evenodd"/><path fill="#000000" stroke="#000000" stroke-width="2.0" stroke-linecap="butt" d="m484.34088 377.62613l-0.76849365 9.628052l6.7774963 -6.8815613z" fill-rule="evenodd"/><path fill="#000000" fill-opacity="0.0" d="m486.39633 285.37796l-47.77954 104.53543" fill-rule="evenodd"/><path stroke="#000000" stroke-width="2.0" stroke-linejoin="round" stroke-linecap="butt" stroke-dasharray="8.0,6.0,2.0,6.0" d="m486.39633 285.37796l-42.791107 93.62143" fill-rule="evenodd"/><path fill="#000000" stroke="#000000" stroke-width="2.0" stroke-linecap="butt" d="m440.6007 377.62613l-0.76849365 9.628052l6.7774963 -6.8815613z" fill-rule="evenodd"/><path fill="#000000" fill-opacity="0.0" d="m438.6168 285.37796l-47.77951 104.53543" fill-rule="evenodd"/><path stroke="#000000" stroke-width="2.0" stroke-linejoin="round" stroke-linecap="butt" stroke-dasharray="8.0,6.0,2.0,6.0" d="m438.6168 285.37796l-42.791077 93.62143" fill-rule="evenodd"/><path fill="#000000" stroke="#000000" stroke-width="2.0" stroke-linecap="butt" d="m392.8212 377.62613l-0.76849365 9.628052l6.7774963 -6.8815613z" fill-rule="evenodd"/><path fill="#000000" fill-opacity="0.0" d="m334.87665 108.83202l0 295.49606" fill-rule="evenodd"/><path stroke="#666666" stroke-width="3.0" stroke-linejoin="round" stroke-linecap="butt" d="m334.87665 108.83202l0 295.49606" fill-rule="evenodd"/></g></svg>